SplineFontDB: 3.0
FontName: Sawasdee
FullName: Sawasdee
FamilyName: Sawasdee
Weight: Book
Copyright: Copyright (c) 2007 Pol Udomwittayanukul. All rights reserved.
Version: 001.007: 2012-02-13
ItalicAngle: 0
UnderlinePosition: -255
UnderlineWidth: 102
Ascent: 1536
Descent: 512
InvalidEm: 0
sfntRevision: 0x000101ca
LayerCount: 2
Layer: 0 1 "Back" 1
Layer: 1 1 "Fore" 0
XUID: [1021 542 582384140 4119335]
StyleMap: 0x0040
FSType: 8
OS2Version: 4
OS2_WeightWidthSlopeOnly: 0
OS2_UseTypoMetrics: 1
CreationTime: 1178430034
ModificationTime: 1465817090
PfmFamily: 17
TTFWeight: 400
TTFWidth: 5
LineGap: 184
VLineGap: 0
Panose: 2 0 5 3 0 0 0 0 0 0
OS2TypoAscent: 1536
OS2TypoAOffset: 0
OS2TypoDescent: -512
OS2TypoDOffset: 0
OS2TypoLinegap: 184
OS2WinAscent: 2213
OS2WinAOffset: 0
OS2WinDescent: 848
OS2WinDOffset: 0
HheadAscent: 2217
HheadAOffset: 0
HheadDescent: -766
HheadDOffset: 0
OS2SubXSize: 1331
OS2SubYSize: 1433
OS2SubXOff: 0
OS2SubYOff: 286
OS2SupXSize: 1331
OS2SupYSize: 1433
OS2SupXOff: 0
OS2SupYOff: 983
OS2StrikeYSize: 102
OS2StrikeYPos: 530
OS2CapHeight: 1493
OS2XHeight: 1014
OS2Vendor: 'PfEd'
OS2CodePages: 00010001.00000000
OS2UnicodeRanges: 8100002f.5000200a.00000000.00000000
Lookup: 4 0 1 "'liga' Standard Ligatures in Latin lookup 0" { "'liga' Standard Ligatures in Latin lookup 0 subtable"  } ['liga' ('latn' <'dflt' > ) ]
Lookup: 4 0 0 "'frac' Diagonal Fractions in Latin lookup 1" { "'frac' Diagonal Fractions in Latin lookup 1 subtable"  } ['frac' ('latn' <'dflt' > ) ]
Lookup: 6 0 0 "'ccmp' Glyph Composition/Decomposition in Thai lookup 2" { "'ccmp' Glyph Composition/Decomposition in Thai lookup 2 subtable"  } ['ccmp' ('DFLT' <'dflt' > 'thai' <'KUY ' 'THA ' 'dflt' > ) ]
Lookup: 1 0 0 "'ccmp' Glyph Composition/Decomposition in Thai lookup 3" { "'ccmp' Glyph Composition/Decomposition in Thai lookup 3 subtable"  } ['ccmp' ('thai' <'PAL ' 'SAN ' > ) ]

StartChar: .notdef
Encoding: 65536 -1 0
Width: 748
Flags: W
LayerCount: 2
Fore
SplineSet
68 0 m 1,0,-1
 68 1365 l 1,1,-1
 612 1365 l 1,2,-1
 612 0 l 1,3,-1
 68 0 l 1,0,-1
136 68 m 1,4,-1
 544 68 l 1,5,-1
 544 1297 l 1,6,-1
 136 1297 l 1,7,-1
 136 68 l 1,4,-1
EndSplineSet
EndChar

StartChar: exclam
Encoding: 33 33 4
Width: 498
GlyphClass: 2
Flags: W
LayerCount: 2
Fore
SplineSet
280 269 m 1,0,-1
 222 269 l 1,1,-1
 190 1493 l 1,2,-1
 312 1493 l 1,3,-1
 280 269 l 1,0,-1
168 69 m 0,4,5
 168 103 168 103 192 127.5 c 128,-1,6
 216 152 216 152 250 152 c 128,-1,7
 284 152 284 152 308.5 127.5 c 128,-1,8
 333 103 333 103 333 69 c 0,9,10
 333 36 333 36 308 10.5 c 128,-1,11
 283 -15 283 -15 250 -15 c 128,-1,12
 217 -15 217 -15 192.5 10.5 c 128,-1,13
 168 36 168 36 168 69 c 0,4,5
EndSplineSet
EndChar

StartChar: quotedbl
Encoding: 34 34 5
Width: 690
GlyphClass: 2
Flags: W
LayerCount: 2
Fore
SplineSet
258 1164 m 1,0,-1
 197 1164 l 1,1,-1
 168 1551 l 1,2,-1
 286 1551 l 1,3,-1
 258 1164 l 1,0,-1
495 1164 m 1,4,-1
 436 1164 l 1,5,-1
 406 1551 l 1,6,-1
 526 1551 l 1,7,-1
 495 1164 l 1,4,-1
EndSplineSet
EndChar

StartChar: numbersign
Encoding: 35 35 6
Width: 1066
GlyphClass: 2
Flags: W
LayerCount: 2
Fore
SplineSet
611 0 m 1,0,-1
 521 0 l 1,1,-1
 634 463 l 1,2,-1
 307 463 l 1,3,-1
 197 0 l 1,4,-1
 105 0 l 1,5,-1
 215 463 l 1,6,-1
 0 463 l 1,7,-1
 0 553 l 1,8,-1
 235 553 l 1,9,-1
 329 940 l 1,10,-1
 101 940 l 1,11,-1
 101 1030 l 1,12,-1
 349 1030 l 1,13,-1
 459 1493 l 1,14,-1
 553 1493 l 1,15,-1
 440 1030 l 1,16,-1
 767 1030 l 1,17,-1
 878 1493 l 1,18,-1
 969 1493 l 1,19,-1
 859 1030 l 1,20,-1
 1068 1030 l 1,21,-1
 1068 940 l 1,22,-1
 835 940 l 1,23,-1
 743 553 l 1,24,-1
 965 553 l 1,25,-1
 965 463 l 1,26,-1
 724 463 l 1,27,-1
 611 0 l 1,0,-1
325 553 m 1,28,-1
 651 553 l 1,29,-1
 743 940 l 1,30,-1
 419 940 l 1,31,-1
 325 553 l 1,28,-1
EndSplineSet
EndChar

StartChar: dollar
Encoding: 36 36 7
Width: 1179
GlyphClass: 2
Flags: W
LayerCount: 2
Fore
SplineSet
643 -150 m 1,0,-1
 549 -150 l 1,1,-1
 549 -27 l 1,2,3
 473 -21 473 -21 404.5 8.5 c 128,-1,4
 336 38 336 38 277 90.5 c 128,-1,5
 218 143 218 143 177.5 226.5 c 128,-1,6
 137 310 137 310 124 414 c 1,7,-1
 213 427 l 1,8,9
 235 258 235 258 327.5 168 c 128,-1,10
 420 78 420 78 549 64 c 1,11,-1
 549 806 l 1,12,13
 477 838 477 838 430 865 c 128,-1,14
 383 892 383 892 335 933.5 c 128,-1,15
 287 975 287 975 263 1030 c 128,-1,16
 239 1085 239 1085 239 1155 c 0,17,18
 239 1291 239 1291 325 1390 c 128,-1,19
 411 1489 411 1489 549 1502 c 1,20,-1
 549 1636 l 1,21,-1
 638 1636 l 1,22,-1
 638 1502 l 1,23,24
 747 1488 747 1488 837 1416 c 128,-1,25
 927 1344 927 1344 967 1226 c 1,26,-1
 884 1198 l 1,27,28
 852 1289 852 1289 787 1344 c 128,-1,29
 722 1399 722 1399 643 1412 c 1,30,-1
 643 869 l 1,31,32
 807 800 807 800 876 754 c 0,33,34
 1043 643 1043 643 1058 464 c 0,35,36
 1059 446 1059 446 1059 427 c 0,37,38
 1059 247 1059 247 938 125.5 c 128,-1,39
 817 4 817 4 643 -15 c 1,40,-1
 643 -150 l 1,0,-1
638 763 m 1,41,-1
 638 64 l 1,42,43
 776 85 776 85 871.5 181.5 c 128,-1,44
 967 278 967 278 967 421 c 0,45,46
 967 477 967 477 948 524.5 c 128,-1,47
 929 572 929 572 901.5 604.5 c 128,-1,48
 874 637 874 637 826 668.5 c 128,-1,49
 778 700 778 700 738.5 718.5 c 128,-1,50
 699 737 699 737 638 763 c 1,41,-1
549 902 m 1,51,-1
 549 1403 l 1,52,53
 449 1390 449 1390 389 1319 c 128,-1,54
 329 1248 329 1248 329 1149 c 0,55,56
 329 1062 329 1062 385.5 1007 c 128,-1,57
 442 952 442 952 549 902 c 1,51,-1
EndSplineSet
EndChar

StartChar: percent
Encoding: 37 37 8
Width: 1568
GlyphClass: 2
Flags: W
LayerCount: 2
Fore
SplineSet
1155 566 m 128,-1,1
 1276 566 1276 566 1362 481 c 128,-1,2
 1448 396 1448 396 1448 275 c 128,-1,3
 1448 154 1448 154 1362 68.5 c 128,-1,4
 1276 -17 1276 -17 1155 -17 c 128,-1,5
 1034 -17 1034 -17 947.5 68.5 c 128,-1,6
 861 154 861 154 861 275 c 0,7,8
 861 395 861 395 947.5 480.5 c 128,-1,0
 1034 566 1034 566 1155 566 c 128,-1,1
951 275 m 128,-1,10
 951 192 951 192 1010.5 133 c 128,-1,11
 1070 74 1070 74 1155 74 c 128,-1,12
 1240 74 1240 74 1299.5 133 c 128,-1,13
 1359 192 1359 192 1359 275 c 128,-1,14
 1359 358 1359 358 1299.5 416 c 128,-1,15
 1240 474 1240 474 1155 474 c 128,-1,16
 1070 474 1070 474 1010.5 416 c 128,-1,9
 951 358 951 358 951 275 c 128,-1,10
414 1504 m 128,-1,18
 535 1504 535 1504 621 1418 c 128,-1,19
 707 1332 707 1332 707 1211 c 128,-1,20
 707 1090 707 1090 621 1005 c 128,-1,21
 535 920 535 920 414 920 c 128,-1,22
 293 920 293 920 208.5 1005 c 128,-1,23
 124 1090 124 1090 124 1211 c 128,-1,24
 124 1332 124 1332 208.5 1418 c 128,-1,17
 293 1504 293 1504 414 1504 c 128,-1,18
213 1211 m 0,25,26
 213 1129 213 1129 271.5 1070.5 c 128,-1,27
 330 1012 330 1012 414 1012 c 0,28,29
 499 1012 499 1012 558.5 1070.5 c 128,-1,30
 618 1129 618 1129 618 1211 c 0,31,32
 618 1295 618 1295 558.5 1353.5 c 128,-1,33
 499 1412 499 1412 414 1412 c 0,34,35
 330 1412 330 1412 271.5 1353.5 c 128,-1,36
 213 1295 213 1295 213 1211 c 0,25,26
1260 1493 m 1,37,-1
 1370 1493 l 1,38,-1
 312 0 l 1,39,-1
 199 0 l 1,40,-1
 1260 1493 l 1,37,-1
EndSplineSet
EndChar

StartChar: ampersand
Encoding: 38 38 9
Width: 1354
GlyphClass: 2
Flags: W
LayerCount: 2
Fore
SplineSet
1155 534 m 1,0,-1
 1251 534 l 1,1,2
 1251 367 1251 367 1155 231 c 1,3,-1
 1318 0 l 1,4,-1
 1209 0 l 1,5,-1
 1094 158 l 1,6,7
 1018 77 1018 77 912 31 c 128,-1,8
 806 -15 806 -15 687 -15 c 0,9,10
 534 -15 534 -15 404.5 59 c 128,-1,11
 275 133 275 133 199.5 260.5 c 128,-1,12
 124 388 124 388 124 538 c 0,13,14
 124 707 124 707 219.5 846 c 128,-1,15
 315 985 315 985 468 1047 c 1,16,17
 421 1140 421 1140 421 1229 c 0,18,19
 421 1355 421 1355 508 1434 c 128,-1,20
 595 1513 595 1513 726 1513 c 0,21,22
 855 1513 855 1513 946.5 1429 c 128,-1,23
 1038 1345 1038 1345 1038 1191 c 1,24,-1
 949 1191 l 1,25,26
 949 1309 949 1309 883 1366.5 c 128,-1,27
 817 1424 817 1424 726 1424 c 0,28,29
 630 1424 630 1424 570 1370 c 128,-1,30
 510 1316 510 1316 510 1229 c 0,31,32
 510 1141 510 1141 575 1041 c 1,33,-1
 1100 307 l 1,34,35
 1155 410 1155 410 1155 534 c 1,0,-1
1045 231 m 1,36,-1
 517 967 l 1,37,38
 381 918 381 918 297 799.5 c 128,-1,39
 213 681 213 681 213 534 c 0,40,41
 213 343 213 343 351.5 207.5 c 128,-1,42
 490 72 490 72 687 72 c 0,43,44
 793 72 793 72 886 114.5 c 128,-1,45
 979 157 979 157 1045 231 c 1,36,-1
EndSplineSet
EndChar

StartChar: quotesingle
Encoding: 39 39 10
Width: 451
GlyphClass: 2
Flags: W
LayerCount: 2
Fore
SplineSet
258 1164 m 1,0,-1
 197 1164 l 1,1,-1
 168 1551 l 1,2,-1
 286 1551 l 1,3,-1
 258 1164 l 1,0,-1
EndSplineSet
EndChar

StartChar: parenleft
Encoding: 40 40 11
Width: 487
GlyphClass: 2
Flags: W
LayerCount: 2
Fore
SplineSet
352 1574 m 1,0,-1
 421 1574 l 1,1,2
 224 1132 224 1132 224 669 c 128,-1,3
 224 206 224 206 427 -269 c 1,4,-1
 359 -269 l 1,5,6
 124 207 124 207 124 683 c 0,7,8
 124 1146 124 1146 352 1574 c 1,0,-1
EndSplineSet
EndChar

StartChar: parenright
Encoding: 41 41 12
Width: 457
GlyphClass: 2
Flags: W
LayerCount: 2
Fore
SplineSet
69 1574 m 1,0,-1
 137 1574 l 1,1,2
 367 1139 367 1139 367 683 c 0,3,4
 367 219 367 219 132 -269 c 1,5,-1
 62 -269 l 1,6,7
 267 207 267 207 267 669 c 0,8,9
 267 1123 267 1123 69 1574 c 1,0,-1
EndSplineSet
EndChar

StartChar: asterisk
Encoding: 42 42 13
Width: 910
GlyphClass: 2
Flags: W
LayerCount: 2
Fore
SplineSet
410 1766 m 1,0,-1
 504 1766 l 1,1,-1
 504 1558 l 1,2,-1
 726 1612 l 1,3,-1
 745 1525 l 1,4,-1
 530 1476 l 1,5,-1
 665 1273 l 1,6,-1
 591 1224 l 1,7,-1
 457 1424 l 1,8,-1
 322 1224 l 1,9,-1
 248 1273 l 1,10,-1
 383 1476 l 1,11,-1
 168 1525 l 1,12,-1
 188 1612 l 1,13,-1
 410 1558 l 1,14,-1
 410 1766 l 1,0,-1
EndSplineSet
EndChar

StartChar: plus
Encoding: 43 43 14
Width: 1036
GlyphClass: 2
Flags: W
LayerCount: 2
Fore
SplineSet
564 349 m 1,0,-1
 474 349 l 1,1,-1
 474 701 l 1,2,-1
 124 701 l 1,3,-1
 124 790 l 1,4,-1
 474 790 l 1,5,-1
 474 1144 l 1,6,-1
 564 1144 l 1,7,-1
 564 790 l 1,8,-1
 916 790 l 1,9,-1
 916 701 l 1,10,-1
 564 701 l 1,11,-1
 564 349 l 1,0,-1
EndSplineSet
EndChar

StartChar: comma
Encoding: 44 44 15
Width: 523
GlyphClass: 2
Flags: W
LayerCount: 2
Fore
SplineSet
168 69 m 0,0,1
 168 103 168 103 192 127.5 c 128,-1,2
 216 152 216 152 250 152 c 0,3,4
 291 152 291 152 325 120.5 c 128,-1,5
 359 89 359 89 359 30 c 0,6,7
 359 -17 359 -17 344 -62 c 128,-1,8
 329 -107 329 -107 307.5 -138 c 128,-1,9
 286 -169 286 -169 264.5 -193.5 c 128,-1,10
 243 -218 243 -218 228 -230 c 2,11,-1
 213 -242 l 1,12,-1
 168 -242 l 1,13,14
 213 -205 213 -205 254 -129.5 c 128,-1,15
 295 -54 295 -54 295 0 c 1,16,17
 275 -15 275 -15 250 -15 c 0,18,19
 217 -15 217 -15 192.5 10.5 c 128,-1,20
 168 36 168 36 168 69 c 0,0,1
EndSplineSet
EndChar

StartChar: hyphen
Encoding: 45 45 16
Width: 856
GlyphClass: 2
Flags: W
LayerCount: 2
Fore
SplineSet
737 643 m 1,0,-1
 737 553 l 1,1,-1
 124 553 l 1,2,-1
 124 643 l 1,3,-1
 737 643 l 1,0,-1
EndSplineSet
EndChar

StartChar: period
Encoding: 46 46 17
Width: 498
GlyphClass: 2
Flags: W
LayerCount: 2
Fore
SplineSet
168 69 m 0,0,1
 168 103 168 103 192 127.5 c 128,-1,2
 216 152 216 152 250 152 c 128,-1,3
 284 152 284 152 308.5 127.5 c 128,-1,4
 333 103 333 103 333 69 c 0,5,6
 333 36 333 36 308 10.5 c 128,-1,7
 283 -15 283 -15 250 -15 c 128,-1,8
 217 -15 217 -15 192.5 10.5 c 128,-1,9
 168 36 168 36 168 69 c 0,0,1
EndSplineSet
EndChar

StartChar: slash
Encoding: 47 47 18
Width: 1168
GlyphClass: 2
Flags: W
LayerCount: 2
Fore
SplineSet
1059 1493 m 1,0,-1
 1171 1493 l 1,1,-1
 109 0 l 1,2,-1
 0 0 l 1,3,-1
 1059 1493 l 1,0,-1
EndSplineSet
EndChar

StartChar: zero
Encoding: 48 48 19
Width: 1192
GlyphClass: 2
Flags: W
LayerCount: 2
Fore
SplineSet
1092 745 m 0,0,1
 1092 545 1092 545 1030 372 c 128,-1,2
 968 199 968 199 853.5 92 c 128,-1,3
 739 -15 739 -15 598 -15 c 0,4,5
 456 -15 456 -15 340.5 92 c 128,-1,6
 225 199 225 199 163 372 c 128,-1,7
 101 545 101 545 101 745 c 0,8,9
 101 895 101 895 138 1033.5 c 128,-1,10
 175 1172 175 1172 239 1276.5 c 128,-1,11
 303 1381 303 1381 397 1443.5 c 128,-1,12
 491 1506 491 1506 598 1506 c 0,13,14
 739 1506 739 1506 853.5 1399.5 c 128,-1,15
 968 1293 968 1293 1030 1119.5 c 128,-1,16
 1092 946 1092 946 1092 745 c 0,0,1
190 745 m 0,17,18
 190 603 190 603 224.5 476.5 c 128,-1,19
 259 350 259 350 316 263 c 128,-1,20
 373 176 373 176 447 125 c 128,-1,21
 521 74 521 74 598 74 c 0,22,23
 659 74 659 74 718.5 106 c 128,-1,24
 778 138 778 138 829 198.5 c 128,-1,25
 880 259 880 259 919 340 c 128,-1,26
 958 421 958 421 980.5 526 c 128,-1,27
 1003 631 1003 631 1003 745 c 0,28,29
 1003 888 1003 888 968.5 1015 c 128,-1,30
 934 1142 934 1142 877.5 1229 c 128,-1,31
 821 1316 821 1316 747.5 1366.5 c 128,-1,32
 674 1417 674 1417 598 1417 c 0,33,34
 521 1417 521 1417 447 1366.5 c 128,-1,35
 373 1316 373 1316 316 1229 c 128,-1,36
 259 1142 259 1142 224.5 1015 c 128,-1,37
 190 888 190 888 190 745 c 0,17,18
EndSplineSet
EndChar

StartChar: one
Encoding: 49 49 20
Width: 1192
GlyphClass: 2
Flags: W
LayerCount: 2
Fore
SplineSet
553 0 m 1,0,-1
 549 1332 l 1,1,-1
 387 1235 l 1,2,-1
 342 1314 l 1,3,-1
 643 1493 l 1,4,-1
 643 0 l 1,5,-1
 553 0 l 1,0,-1
EndSplineSet
EndChar

StartChar: two
Encoding: 50 50 21
Width: 1192
GlyphClass: 2
Flags: W
LayerCount: 2
Fore
SplineSet
1074 0 m 1,0,-1
 101 0 l 1,1,-1
 101 43 l 2,2,3
 101 146 101 146 147.5 236 c 128,-1,4
 194 326 194 326 268 392 c 128,-1,5
 342 458 342 458 432 518.5 c 128,-1,6
 522 579 522 579 611.5 635 c 128,-1,7
 701 691 701 691 775 748 c 128,-1,8
 849 805 849 805 895.5 877.5 c 128,-1,9
 942 950 942 950 942 1032 c 0,10,11
 942 1195 942 1195 841.5 1306 c 128,-1,12
 741 1417 741 1417 600 1417 c 0,13,14
 457 1417 457 1417 354.5 1305.5 c 128,-1,15
 252 1194 252 1194 252 1032 c 1,16,-1
 164 1032 l 1,17,18
 164 1160 164 1160 221.5 1269 c 128,-1,19
 279 1378 279 1378 379 1442 c 128,-1,20
 479 1506 479 1506 598 1506 c 0,21,22
 716 1506 716 1506 816 1442 c 128,-1,23
 916 1378 916 1378 973 1269 c 128,-1,24
 1030 1160 1030 1160 1030 1032 c 0,25,26
 1030 960 1030 960 1003 894.5 c 128,-1,27
 976 829 976 829 930 777 c 128,-1,28
 884 725 884 725 824 677 c 128,-1,29
 764 629 764 629 697 586 c 128,-1,30
 630 543 630 543 562.5 501 c 128,-1,31
 495 459 495 459 431.5 413.5 c 128,-1,32
 368 368 368 368 317.5 320.5 c 128,-1,33
 267 273 267 273 233 214 c 128,-1,34
 199 155 199 155 190 90 c 1,35,-1
 1074 90 l 1,36,-1
 1074 0 l 1,0,-1
EndSplineSet
EndChar

StartChar: three
Encoding: 51 51 22
Width: 1192
GlyphClass: 2
Flags: W
LayerCount: 2
Fore
SplineSet
137 446 m 1,0,-1
 231 446 l 1,1,2
 231 293 231 293 339 183.5 c 128,-1,3
 447 74 447 74 600 74 c 0,4,5
 752 74 752 74 860.5 183.5 c 128,-1,6
 969 293 969 293 969 446 c 0,7,8
 969 597 969 597 860.5 705.5 c 128,-1,9
 752 814 752 814 600 814 c 1,10,-1
 600 904 l 1,11,12
 712 904 712 904 790.5 973.5 c 128,-1,13
 869 1043 869 1043 869 1153 c 0,14,15
 869 1262 869 1262 790.5 1339.5 c 128,-1,16
 712 1417 712 1417 600 1417 c 128,-1,17
 488 1417 488 1417 409.5 1339.5 c 128,-1,18
 331 1262 331 1262 331 1153 c 1,19,-1
 242 1153 l 1,20,21
 242 1300 242 1300 347 1403 c 128,-1,22
 452 1506 452 1506 600 1506 c 128,-1,23
 748 1506 748 1506 853.5 1403 c 128,-1,24
 959 1300 959 1300 959 1153 c 0,25,26
 959 1058 959 1058 913 982.5 c 128,-1,27
 867 907 867 907 788 861 c 1,28,29
 909 807 909 807 983 694 c 128,-1,30
 1057 581 1057 581 1057 446 c 0,31,32
 1057 320 1057 320 995 214 c 128,-1,33
 933 108 933 108 827.5 46.5 c 128,-1,34
 722 -15 722 -15 598 -15 c 0,35,36
 406 -15 406 -15 271.5 119.5 c 128,-1,37
 137 254 137 254 137 446 c 1,0,-1
EndSplineSet
EndChar

StartChar: four
Encoding: 52 52 23
Width: 1192
GlyphClass: 2
Flags: W
LayerCount: 2
Fore
SplineSet
844 367 m 1,0,-1
 844 1243 l 1,1,-1
 179 367 l 1,2,-1
 844 367 l 1,0,-1
933 0 m 1,3,-1
 844 0 l 1,4,-1
 844 278 l 1,5,-1
 0 278 l 1,6,-1
 933 1511 l 1,7,-1
 933 367 l 1,8,-1
 1100 367 l 1,9,-1
 1068 278 l 1,10,-1
 933 278 l 1,11,-1
 933 0 l 1,3,-1
EndSplineSet
EndChar

StartChar: five
Encoding: 53 53 24
Width: 1192
GlyphClass: 2
Flags: W
LayerCount: 2
Fore
SplineSet
916 1403 m 1,0,-1
 280 1403 l 1,1,-1
 239 904 l 1,2,3
 309 979 309 979 400.5 1021 c 128,-1,4
 492 1063 492 1063 593 1063 c 0,5,6
 731 1063 731 1063 846.5 990 c 128,-1,7
 962 917 962 917 1028 792.5 c 128,-1,8
 1094 668 1094 668 1094 521 c 0,9,10
 1094 375 1094 375 1028 251.5 c 128,-1,11
 962 128 962 128 846.5 55.5 c 128,-1,12
 731 -17 731 -17 593 -17 c 0,13,14
 406 -17 406 -17 265.5 115 c 128,-1,15
 125 247 125 247 98 440 c 1,16,-1
 188 440 l 1,17,18
 215 282 215 282 329.5 177 c 128,-1,19
 444 72 444 72 593 72 c 0,20,21
 763 72 763 72 884.5 204 c 128,-1,22
 1006 336 1006 336 1006 526 c 0,23,24
 1006 715 1006 715 884.5 846.5 c 128,-1,25
 763 978 763 978 593 978 c 0,26,27
 480 978 480 978 384 914.5 c 128,-1,28
 288 851 288 851 233 745 c 1,29,-1
 134 745 l 1,30,-1
 197 1493 l 1,31,-1
 947 1493 l 1,32,-1
 916 1403 l 1,0,-1
EndSplineSet
EndChar

StartChar: six
Encoding: 54 54 25
Width: 1192
GlyphClass: 2
Flags: W
LayerCount: 2
Fore
SplineSet
1006 540 m 0,0,1
 1006 730 1006 730 884.5 862 c 128,-1,2
 763 994 763 994 593 994 c 0,3,4
 424 994 424 994 302.5 862 c 128,-1,5
 181 730 181 730 181 540 c 0,6,7
 181 351 181 351 302.5 219 c 128,-1,8
 424 87 424 87 593 87 c 0,9,10
 763 87 763 87 884.5 219 c 128,-1,11
 1006 351 1006 351 1006 540 c 0,0,1
620 1504 m 1,12,-1
 728 1504 l 1,13,-1
 421 1047 l 1,14,15
 507 1081 507 1081 593 1081 c 0,16,17
 731 1081 731 1081 846.5 1007.5 c 128,-1,18
 962 934 962 934 1028 810 c 128,-1,19
 1094 686 1094 686 1094 540 c 128,-1,20
 1094 394 1094 394 1028 270 c 128,-1,21
 962 146 962 146 846.5 73 c 128,-1,22
 731 0 731 0 593 0 c 0,23,24
 456 0 456 0 340.5 73 c 128,-1,25
 225 146 225 146 158.5 270 c 128,-1,26
 92 394 92 394 92 540 c 0,27,28
 92 626 92 626 113 702.5 c 128,-1,29
 134 779 134 779 186.5 870 c 128,-1,30
 239 961 239 961 290 1034 c 128,-1,31
 341 1107 341 1107 442 1248 c 128,-1,32
 543 1389 543 1389 620 1504 c 1,12,-1
EndSplineSet
EndChar

StartChar: seven
Encoding: 55 55 26
Width: 1192
GlyphClass: 2
Flags: W
LayerCount: 2
Fore
SplineSet
164 1493 m 1,0,-1
 1164 1493 l 1,1,-1
 495 0 l 1,2,-1
 396 0 l 1,3,-1
 1027 1403 l 1,4,-1
 134 1403 l 1,5,-1
 164 1493 l 1,0,-1
EndSplineSet
EndChar

StartChar: eight
Encoding: 56 56 27
Width: 1192
GlyphClass: 2
Flags: W
LayerCount: 2
Fore
SplineSet
598 1506 m 0,0,1
 743 1506 743 1506 847 1405 c 128,-1,2
 951 1304 951 1304 951 1162 c 0,3,4
 951 1068 951 1068 905 989.5 c 128,-1,5
 859 911 859 911 781 867 c 1,6,7
 904 812 904 812 980.5 698 c 128,-1,8
 1057 584 1057 584 1057 446 c 0,9,10
 1057 320 1057 320 995 214 c 128,-1,11
 933 108 933 108 827.5 46.5 c 128,-1,12
 722 -15 722 -15 598 -15 c 0,13,14
 406 -15 406 -15 271.5 119.5 c 128,-1,15
 137 254 137 254 137 446 c 0,16,17
 137 585 137 585 212.5 698.5 c 128,-1,18
 288 812 288 812 412 867 c 1,19,20
 335 911 335 911 288.5 990 c 128,-1,21
 242 1069 242 1069 242 1162 c 0,22,23
 242 1304 242 1304 346.5 1405 c 128,-1,24
 451 1506 451 1506 598 1506 c 0,0,1
226 446 m 0,25,26
 226 293 226 293 335 183.5 c 128,-1,27
 444 74 444 74 598 74 c 0,28,29
 749 74 749 74 858 183.5 c 128,-1,30
 967 293 967 293 967 446 c 0,31,32
 967 597 967 597 858 705.5 c 128,-1,33
 749 814 749 814 598 814 c 0,34,35
 445 814 445 814 335.5 705.5 c 128,-1,36
 226 597 226 597 226 446 c 0,25,26
598 904 m 0,37,38
 707 904 707 904 784 980 c 128,-1,39
 861 1056 861 1056 861 1162 c 0,40,41
 861 1267 861 1267 783.5 1342 c 128,-1,42
 706 1417 706 1417 598 1417 c 0,43,44
 487 1417 487 1417 409 1342 c 128,-1,45
 331 1267 331 1267 331 1162 c 0,46,47
 331 1056 331 1056 409 980 c 128,-1,48
 487 904 487 904 598 904 c 0,37,38
EndSplineSet
EndChar

StartChar: nine
Encoding: 57 57 28
Width: 1192
GlyphClass: 2
Flags: W
LayerCount: 2
Fore
SplineSet
181 965 m 0,0,1
 181 774 181 774 302.5 642 c 128,-1,2
 424 510 424 510 593 510 c 0,3,4
 763 510 763 510 884.5 642 c 128,-1,5
 1006 774 1006 774 1006 965 c 0,6,7
 1006 1154 1006 1154 884.5 1285.5 c 128,-1,8
 763 1417 763 1417 593 1417 c 0,9,10
 424 1417 424 1417 302.5 1285.5 c 128,-1,11
 181 1154 181 1154 181 965 c 0,0,1
566 0 m 1,12,-1
 459 0 l 1,13,-1
 767 457 l 1,14,15
 681 423 681 423 593 423 c 0,16,17
 456 423 456 423 340.5 496.5 c 128,-1,18
 225 570 225 570 158.5 694.5 c 128,-1,19
 92 819 92 819 92 965 c 0,20,21
 92 1110 92 1110 158.5 1234 c 128,-1,22
 225 1358 225 1358 340.5 1431 c 128,-1,23
 456 1504 456 1504 593 1504 c 0,24,25
 731 1504 731 1504 846.5 1431 c 128,-1,26
 962 1358 962 1358 1028 1234.5 c 128,-1,27
 1094 1111 1094 1111 1094 965 c 0,28,29
 1094 893 1094 893 1076.5 823 c 128,-1,30
 1059 753 1059 753 1032 694 c 128,-1,31
 1005 635 1005 635 952 553.5 c 128,-1,32
 899 472 899 472 850.5 404.5 c 128,-1,33
 802 337 802 337 718 219.5 c 128,-1,34
 634 102 634 102 566 0 c 1,12,-1
EndSplineSet
EndChar

StartChar: colon
Encoding: 58 58 29
Width: 498
GlyphClass: 2
Flags: W
LayerCount: 2
Fore
SplineSet
168 69 m 0,0,1
 168 103 168 103 192 127.5 c 128,-1,2
 216 152 216 152 250 152 c 128,-1,3
 284 152 284 152 308.5 127.5 c 128,-1,4
 333 103 333 103 333 69 c 0,5,6
 333 36 333 36 308 10.5 c 128,-1,7
 283 -15 283 -15 250 -15 c 128,-1,8
 217 -15 217 -15 192.5 10.5 c 128,-1,9
 168 36 168 36 168 69 c 0,0,1
168 949 m 128,-1,11
 168 983 168 983 192 1007.5 c 128,-1,12
 216 1032 216 1032 250 1032 c 128,-1,13
 284 1032 284 1032 308.5 1007.5 c 128,-1,14
 333 983 333 983 333 949 c 128,-1,15
 333 915 333 915 308.5 891 c 128,-1,16
 284 867 284 867 250 867 c 128,-1,17
 216 867 216 867 192 891 c 128,-1,10
 168 915 168 915 168 949 c 128,-1,11
EndSplineSet
EndChar

StartChar: semicolon
Encoding: 59 59 30
Width: 498
GlyphClass: 2
Flags: W
LayerCount: 2
Fore
SplineSet
168 69 m 0,0,1
 168 103 168 103 192 127.5 c 128,-1,2
 216 152 216 152 250 152 c 0,3,4
 291 152 291 152 325 120.5 c 128,-1,5
 359 89 359 89 359 30 c 0,6,7
 359 -17 359 -17 344 -62 c 128,-1,8
 329 -107 329 -107 307.5 -138 c 128,-1,9
 286 -169 286 -169 264.5 -193.5 c 128,-1,10
 243 -218 243 -218 228 -230 c 2,11,-1
 213 -242 l 1,12,-1
 168 -242 l 1,13,14
 213 -205 213 -205 254 -129.5 c 128,-1,15
 295 -54 295 -54 295 0 c 1,16,17
 275 -15 275 -15 250 -15 c 0,18,19
 217 -15 217 -15 192.5 10.5 c 128,-1,20
 168 36 168 36 168 69 c 0,0,1
168 949 m 128,-1,22
 168 983 168 983 192 1007.5 c 128,-1,23
 216 1032 216 1032 250 1032 c 128,-1,24
 284 1032 284 1032 308.5 1007.5 c 128,-1,25
 333 983 333 983 333 949 c 128,-1,26
 333 915 333 915 308.5 891 c 128,-1,27
 284 867 284 867 250 867 c 128,-1,28
 216 867 216 867 192 891 c 128,-1,21
 168 915 168 915 168 949 c 128,-1,22
EndSplineSet
EndChar

StartChar: less
Encoding: 60 60 31
Width: 1183
GlyphClass: 2
Flags: W
LayerCount: 2
Fore
SplineSet
1126 0 m 1,0,-1
 951 0 l 1,1,-1
 124 508 l 1,2,-1
 951 1014 l 1,3,-1
 1126 1014 l 1,4,-1
 295 508 l 1,5,-1
 1126 0 l 1,0,-1
EndSplineSet
EndChar

StartChar: equal
Encoding: 61 61 32
Width: 1036
GlyphClass: 2
Flags: W
LayerCount: 2
Fore
SplineSet
916 761 m 1,0,-1
 916 671 l 1,1,-1
 124 671 l 1,2,-1
 124 761 l 1,3,-1
 916 761 l 1,0,-1
916 521 m 1,4,-1
 916 432 l 1,5,-1
 124 432 l 1,6,-1
 124 521 l 1,7,-1
 916 521 l 1,4,-1
EndSplineSet
EndChar

StartChar: greater
Encoding: 62 62 33
Width: 1203
GlyphClass: 2
Flags: W
LayerCount: 2
Fore
SplineSet
295 0 m 1,0,-1
 124 0 l 1,1,-1
 951 508 l 1,2,-1
 124 1014 l 1,3,-1
 295 1014 l 1,4,-1
 1126 508 l 1,5,-1
 295 0 l 1,0,-1
EndSplineSet
EndChar

StartChar: question
Encoding: 63 63 34
Width: 1036
GlyphClass: 2
Flags: W
LayerCount: 2
Fore
SplineSet
406 69 m 0,0,1
 406 103 406 103 431.5 127.5 c 128,-1,2
 457 152 457 152 491 152 c 0,3,4
 524 152 524 152 548.5 127 c 128,-1,5
 573 102 573 102 573 69 c 128,-1,6
 573 36 573 36 548 10.5 c 128,-1,7
 523 -15 523 -15 491 -15 c 0,8,9
 457 -15 457 -15 431.5 10.5 c 128,-1,10
 406 36 406 36 406 69 c 0,0,1
538 307 m 1,11,-1
 448 307 l 1,12,-1
 448 457 l 2,13,14
 448 528 448 528 469 593 c 128,-1,15
 490 658 490 658 523 708 c 128,-1,16
 556 758 556 758 596.5 804.5 c 128,-1,17
 637 851 637 851 677.5 891 c 128,-1,18
 718 931 718 931 751 969 c 128,-1,19
 784 1007 784 1007 805 1048.5 c 128,-1,20
 826 1090 826 1090 826 1130 c 0,21,22
 826 1257 826 1257 744 1337 c 128,-1,23
 662 1417 662 1417 540 1417 c 0,24,25
 402 1417 402 1417 307.5 1328 c 128,-1,26
 213 1239 213 1239 213 1130 c 1,27,-1
 124 1130 l 1,28,29
 124 1280 124 1280 246 1393 c 128,-1,30
 368 1506 368 1506 540 1506 c 0,31,32
 702 1506 702 1506 809 1400 c 128,-1,33
 916 1294 916 1294 916 1130 c 0,34,35
 916 1078 916 1078 895 1028 c 128,-1,36
 874 978 874 978 841 936.5 c 128,-1,37
 808 895 808 895 767.5 853.5 c 128,-1,38
 727 812 727 812 686.5 768.5 c 128,-1,39
 646 725 646 725 613 679.5 c 128,-1,40
 580 634 580 634 559 576.5 c 128,-1,41
 538 519 538 519 538 457 c 2,42,-1
 538 307 l 1,11,-1
EndSplineSet
EndChar

StartChar: at
Encoding: 64 64 35
Width: 2029
GlyphClass: 2
Flags: W
LayerCount: 2
Fore
SplineSet
1448 1014 m 1,0,-1
 1542 1014 l 1,1,-1
 1424 517 l 1,2,3
 1397 432 1397 432 1397 359 c 0,4,5
 1397 231 1397 231 1459.5 151.5 c 128,-1,6
 1522 72 1522 72 1596 72 c 0,7,8
 1625 72 1625 72 1654 85.5 c 128,-1,9
 1683 99 1683 99 1713.5 132.5 c 128,-1,10
 1744 166 1744 166 1767 216 c 128,-1,11
 1790 266 1790 266 1805 346 c 128,-1,12
 1820 426 1820 426 1820 526 c 0,13,14
 1820 708 1820 708 1755 873 c 128,-1,15
 1690 1038 1690 1038 1581.5 1155.5 c 128,-1,16
 1473 1273 1473 1273 1325.5 1342.5 c 128,-1,17
 1178 1412 1178 1412 1019 1412 c 0,18,19
 857 1412 857 1412 708.5 1340.5 c 128,-1,20
 560 1269 560 1269 451.5 1148 c 128,-1,21
 343 1027 343 1027 279 858 c 128,-1,22
 215 689 215 689 215 502 c 128,-1,23
 215 315 215 315 279 145.5 c 128,-1,24
 343 -24 343 -24 451.5 -145.5 c 128,-1,25
 560 -267 560 -267 708.5 -338.5 c 128,-1,26
 857 -410 857 -410 1019 -410 c 0,27,28
 1221 -410 1221 -410 1406 -295 c 1,29,-1
 1453 -369 l 1,30,31
 1254 -495 1254 -495 1019 -495 c 0,32,33
 835 -495 835 -495 669 -415.5 c 128,-1,34
 503 -336 503 -336 383.5 -202 c 128,-1,35
 264 -68 264 -68 194 116.5 c 128,-1,36
 124 301 124 301 124 504 c 128,-1,37
 124 707 124 707 194 892 c 128,-1,38
 264 1077 264 1077 383.5 1211 c 128,-1,39
 503 1345 503 1345 669 1424.5 c 128,-1,40
 835 1504 835 1504 1019 1504 c 0,41,42
 1163 1504 1163 1504 1298.5 1454.5 c 128,-1,43
 1434 1405 1434 1405 1543.5 1314 c 128,-1,44
 1653 1223 1653 1223 1735.5 1102.5 c 128,-1,45
 1818 982 1818 982 1863.5 833 c 128,-1,46
 1909 684 1909 684 1909 526 c 0,47,48
 1909 406 1909 406 1888.5 309 c 128,-1,49
 1868 212 1868 212 1836 152 c 128,-1,50
 1804 92 1804 92 1762 52 c 128,-1,51
 1720 12 1720 12 1679 -4 c 128,-1,52
 1638 -20 1638 -20 1596 -20 c 0,53,54
 1494 -20 1494 -20 1415 63.5 c 128,-1,55
 1336 147 1336 147 1314 275 c 1,56,57
 1225 144 1225 144 1093.5 63.5 c 128,-1,58
 962 -17 962 -17 824 -17 c 0,59,60
 664 -17 664 -17 565 90 c 128,-1,61
 466 197 466 197 466 365 c 0,62,63
 466 488 466 488 520 610 c 128,-1,64
 574 732 574 732 659.5 822.5 c 128,-1,65
 745 913 745 913 856.5 970 c 128,-1,66
 968 1027 968 1027 1077 1027 c 0,67,68
 1189 1027 1189 1027 1273.5 972 c 128,-1,69
 1358 917 1358 917 1399 822 c 1,70,-1
 1448 1014 l 1,0,-1
1083 938 m 0,71,72
 991 938 991 938 896.5 888 c 128,-1,73
 802 838 802 838 728.5 759.5 c 128,-1,74
 655 681 655 681 608.5 576 c 128,-1,75
 562 471 562 471 562 367 c 0,76,77
 562 237 562 237 633.5 155.5 c 128,-1,78
 705 74 705 74 826 74 c 0,79,80
 917 74 917 74 1011.5 122.5 c 128,-1,81
 1106 171 1106 171 1180.5 249 c 128,-1,82
 1255 327 1255 327 1302.5 433 c 128,-1,83
 1350 539 1350 539 1350 645 c 0,84,85
 1350 774 1350 774 1277 856 c 128,-1,86
 1204 938 1204 938 1083 938 c 0,71,72
EndSplineSet
EndChar

StartChar: A
Encoding: 65 65 36
Width: 1322
GlyphClass: 2
Flags: W
LayerCount: 2
Fore
SplineSet
365 553 m 1,0,-1
 967 553 l 1,1,-1
 665 1278 l 1,2,-1
 365 553 l 1,0,-1
1003 463 m 1,3,-1
 322 463 l 1,4,-1
 132 0 l 1,5,-1
 36 0 l 1,6,-1
 662 1511 l 1,7,-1
 1290 0 l 1,8,-1
 1194 0 l 1,9,-1
 1003 463 l 1,3,-1
EndSplineSet
EndChar

StartChar: B
Encoding: 66 66 37
Width: 1215
GlyphClass: 2
Flags: W
LayerCount: 2
Fore
SplineSet
239 0 m 1,0,-1
 143 0 l 1,1,2
 168 50 168 50 168 134 c 2,3,-1
 168 1493 l 1,4,-1
 258 1493 l 1,5,-1
 258 754 l 1,6,7
 295 863 295 863 406.5 946.5 c 128,-1,8
 518 1030 518 1030 634 1030 c 0,9,10
 761 1030 761 1030 867 958.5 c 128,-1,11
 973 887 973 887 1033.5 767 c 128,-1,12
 1094 647 1094 647 1094 508 c 0,13,14
 1094 368 1094 368 1033.5 247.5 c 128,-1,15
 973 127 973 127 867 56 c 128,-1,16
 761 -15 761 -15 634 -15 c 0,17,18
 520 -15 520 -15 408 70.5 c 128,-1,19
 296 156 296 156 258 260 c 1,20,-1
 258 134 l 2,21,22
 258 66 258 66 239 0 c 1,0,-1
258 508 m 128,-1,24
 258 328 258 328 369 201 c 128,-1,25
 480 74 480 74 634 74 c 0,26,27
 786 74 786 74 898 201.5 c 128,-1,28
 1010 329 1010 329 1010 508 c 0,29,30
 1010 688 1010 688 898 814 c 128,-1,31
 786 940 786 940 634 940 c 0,32,33
 480 940 480 940 369 814 c 128,-1,23
 258 688 258 688 258 508 c 128,-1,24
EndSplineSet
EndChar

StartChar: C
Encoding: 67 67 38
Width: 1098
GlyphClass: 2
Flags: W
LayerCount: 2
Fore
SplineSet
902 280 m 1,0,-1
 978 235 l 1,1,2
 916 123 916 123 811.5 56 c 128,-1,3
 707 -11 707 -11 585 -11 c 0,4,5
 458 -11 458 -11 351.5 59.5 c 128,-1,6
 245 130 245 130 184.5 250 c 128,-1,7
 124 370 124 370 124 510 c 0,8,9
 124 651 124 651 184.5 771 c 128,-1,10
 245 891 245 891 351.5 961.5 c 128,-1,11
 458 1032 458 1032 585 1032 c 0,12,13
 707 1032 707 1032 811.5 965 c 128,-1,14
 916 898 916 898 978 786 c 1,15,-1
 902 741 l 1,16,17
 849 833 849 833 765.5 886.5 c 128,-1,18
 682 940 682 940 585 940 c 0,19,20
 432 940 432 940 320 816 c 128,-1,21
 208 692 208 692 208 513 c 0,22,23
 208 333 208 333 320 207 c 128,-1,24
 432 81 432 81 585 81 c 0,25,26
 682 81 682 81 766 134 c 128,-1,27
 850 187 850 187 902 280 c 1,0,-1
EndSplineSet
EndChar

StartChar: D
Encoding: 68 68 39
Width: 1215
GlyphClass: 2
Flags: W
LayerCount: 2
Fore
SplineSet
1074 0 m 1,0,-1
 978 0 l 1,1,2
 961 59 961 59 961 134 c 2,3,-1
 961 260 l 1,4,5
 923 156 923 156 810.5 70.5 c 128,-1,6
 698 -15 698 -15 585 -15 c 0,7,8
 458 -15 458 -15 351.5 56 c 128,-1,9
 245 127 245 127 184.5 247.5 c 128,-1,10
 124 368 124 368 124 508 c 128,-1,11
 124 648 124 648 184.5 767.5 c 128,-1,12
 245 887 245 887 351.5 958.5 c 128,-1,13
 458 1030 458 1030 585 1030 c 0,14,15
 700 1030 700 1030 812 946.5 c 128,-1,16
 924 863 924 863 961 754 c 1,17,-1
 961 1493 l 1,18,-1
 1050 1493 l 1,19,-1
 1050 134 l 2,20,21
 1050 48 1050 48 1074 0 c 1,0,-1
961 508 m 128,-1,23
 961 688 961 688 850 814 c 128,-1,24
 739 940 739 940 585 940 c 0,25,26
 432 940 432 940 320 814 c 128,-1,27
 208 688 208 688 208 508 c 0,28,29
 208 329 208 329 320 201.5 c 128,-1,30
 432 74 432 74 585 74 c 128,-1,31
 738 74 738 74 849.5 201 c 128,-1,22
 961 328 961 328 961 508 c 128,-1,23
EndSplineSet
EndChar

StartChar: E
Encoding: 69 69 40
Width: 1094
GlyphClass: 2
Flags: W
LayerCount: 2
Fore
SplineSet
974 912 m 1,0,-1
 974 822 l 1,1,-1
 258 822 l 1,2,-1
 258 90 l 1,3,-1
 1032 90 l 1,4,-1
 1032 0 l 1,5,-1
 168 0 l 1,6,-1
 168 1493 l 1,7,-1
 1036 1493 l 1,8,-1
 1036 1403 l 1,9,-1
 258 1403 l 1,10,-1
 258 912 l 1,11,-1
 974 912 l 1,0,-1
EndSplineSet
EndChar

StartChar: F
Encoding: 70 70 41
Width: 1094
GlyphClass: 2
Flags: W
LayerCount: 2
Fore
SplineSet
974 912 m 1,0,-1
 974 822 l 1,1,-1
 258 822 l 1,2,-1
 258 0 l 1,3,-1
 168 0 l 1,4,-1
 168 1493 l 1,5,-1
 1036 1493 l 1,6,-1
 1036 1403 l 1,7,-1
 258 1403 l 1,8,-1
 258 912 l 1,9,-1
 974 912 l 1,0,-1
EndSplineSet
EndChar

StartChar: G
Encoding: 71 71 42
Width: 1215
GlyphClass: 2
Flags: W
LayerCount: 2
Fore
SplineSet
978 1014 m 1,0,-1
 1074 1014 l 1,1,2
 1050 968 1050 968 1050 880 c 2,3,-1
 1050 0 l 2,4,5
 1050 -140 1050 -140 987.5 -260 c 128,-1,6
 925 -380 925 -380 817 -450.5 c 128,-1,7
 709 -521 709 -521 581 -521 c 0,8,9
 405 -521 405 -521 275 -391 c 1,10,-1
 340 -329 l 1,11,12
 446 -432 446 -432 585 -432 c 0,13,14
 739 -432 739 -432 850 -306 c 128,-1,15
 961 -180 961 -180 961 0 c 2,16,-1
 961 260 l 1,17,18
 924 151 924 151 812.5 68 c 128,-1,19
 701 -15 701 -15 585 -15 c 0,20,21
 458 -15 458 -15 351.5 56 c 128,-1,22
 245 127 245 127 184.5 247.5 c 128,-1,23
 124 368 124 368 124 508 c 128,-1,24
 124 648 124 648 184.5 767.5 c 128,-1,25
 245 887 245 887 351.5 958.5 c 128,-1,26
 458 1030 458 1030 585 1030 c 0,27,28
 699 1030 699 1030 811 944.5 c 128,-1,29
 923 859 923 859 961 754 c 1,30,-1
 961 880 l 2,31,32
 961 955 961 955 978 1014 c 1,0,-1
955 508 m 0,33,34
 955 688 955 688 843.5 814 c 128,-1,35
 732 940 732 940 579 940 c 0,36,37
 425 940 425 940 314 814 c 128,-1,38
 203 688 203 688 203 508 c 128,-1,39
 203 328 203 328 314.5 201 c 128,-1,40
 426 74 426 74 579 74 c 128,-1,41
 732 74 732 74 843.5 201.5 c 128,-1,42
 955 329 955 329 955 508 c 0,33,34
EndSplineSet
EndChar

StartChar: H
Encoding: 72 72 43
Width: 1078
GlyphClass: 2
Flags: W
LayerCount: 2
Fore
SplineSet
457 468 m 128,-1,1
 457 502 457 502 481.5 527.5 c 128,-1,2
 506 553 506 553 540 553 c 128,-1,3
 574 553 574 553 599 527.5 c 128,-1,4
 624 502 624 502 624 468 c 128,-1,5
 624 434 624 434 599 409.5 c 128,-1,6
 574 385 574 385 540 385 c 128,-1,7
 506 385 506 385 481.5 409.5 c 128,-1,0
 457 434 457 434 457 468 c 128,-1,1
457 1023 m 128,-1,9
 457 1057 457 1057 481.5 1082.5 c 128,-1,10
 506 1108 506 1108 540 1108 c 128,-1,11
 574 1108 574 1108 599 1082.5 c 128,-1,12
 624 1057 624 1057 624 1023 c 128,-1,13
 624 989 624 989 599 964.5 c 128,-1,14
 574 940 574 940 540 940 c 128,-1,15
 506 940 506 940 481.5 964.5 c 128,-1,8
 457 989 457 989 457 1023 c 128,-1,9
938 790 m 1,16,-1
 938 701 l 1,17,-1
 143 701 l 1,18,-1
 143 790 l 1,19,-1
 938 790 l 1,16,-1
EndSplineSet
EndChar

StartChar: I
Encoding: 73 73 44
Width: 422
GlyphClass: 2
Flags: W
LayerCount: 2
Fore
SplineSet
258 0 m 1,0,-1
 168 0 l 1,1,-1
 168 1493 l 1,2,-1
 258 1493 l 1,3,-1
 258 0 l 1,0,-1
EndSplineSet
EndChar

StartChar: J
Encoding: 74 74 45
Width: 415
GlyphClass: 2
Flags: W
LayerCount: 2
Fore
SplineSet
168 1014 m 1,0,-1
 258 1014 l 1,1,-1
 258 2 l 2,2,3
 258 -127 258 -127 174 -219.5 c 128,-1,4
 90 -312 90 -312 -30 -312 c 1,5,-1
 -30 -235 l 1,6,7
 51 -235 51 -235 109.5 -164.5 c 128,-1,8
 168 -94 168 -94 168 2 c 2,9,-1
 168 1014 l 1,0,-1
128 1254 m 0,10,11
 128 1287 128 1287 151.5 1311 c 128,-1,12
 175 1335 175 1335 208 1335 c 128,-1,13
 241 1335 241 1335 265 1311 c 128,-1,14
 289 1287 289 1287 289 1254 c 0,15,16
 289 1220 289 1220 265 1196.5 c 128,-1,17
 241 1173 241 1173 208 1173 c 128,-1,18
 175 1173 175 1173 151.5 1196.5 c 128,-1,19
 128 1220 128 1220 128 1254 c 0,10,11
EndSplineSet
EndChar

StartChar: K
Encoding: 75 75 46
Width: 1215
GlyphClass: 2
Flags: W
LayerCount: 2
Fore
SplineSet
978 1014 m 1,0,-1
 1074 1014 l 1,1,2
 1050 968 1050 968 1050 880 c 2,3,-1
 1050 -448 l 1,4,-1
 961 -448 l 1,5,-1
 961 260 l 1,6,7
 924 151 924 151 812.5 68 c 128,-1,8
 701 -15 701 -15 585 -15 c 0,9,10
 458 -15 458 -15 351.5 56 c 128,-1,11
 245 127 245 127 184.5 247.5 c 128,-1,12
 124 368 124 368 124 508 c 128,-1,13
 124 648 124 648 184.5 767.5 c 128,-1,14
 245 887 245 887 351.5 958.5 c 128,-1,15
 458 1030 458 1030 585 1030 c 0,16,17
 699 1030 699 1030 811 944.5 c 128,-1,18
 923 859 923 859 961 754 c 1,19,-1
 961 880 l 2,20,21
 961 955 961 955 978 1014 c 1,0,-1
961 508 m 128,-1,23
 961 688 961 688 850 814 c 128,-1,24
 739 940 739 940 585 940 c 0,25,26
 432 940 432 940 320 814 c 128,-1,27
 208 688 208 688 208 508 c 0,28,29
 208 329 208 329 320 201.5 c 128,-1,30
 432 74 432 74 585 74 c 128,-1,31
 738 74 738 74 849.5 201 c 128,-1,22
 961 328 961 328 961 508 c 128,-1,23
EndSplineSet
EndChar

StartChar: L
Encoding: 76 76 47
Width: 1094
GlyphClass: 2
Flags: W
LayerCount: 2
Fore
SplineSet
1036 0 m 1,0,-1
 168 0 l 1,1,-1
 168 1493 l 1,2,-1
 258 1493 l 1,3,-1
 258 90 l 1,4,-1
 1036 90 l 1,5,-1
 1036 0 l 1,0,-1
EndSplineSet
EndChar

StartChar: M
Encoding: 77 77 48
Width: 1732
GlyphClass: 2
Flags: W
LayerCount: 2
Fore
SplineSet
124 0 m 1,0,-1
 36 0 l 1,1,-1
 322 1511 l 1,2,-1
 867 215 l 1,3,-1
 1421 1511 l 1,4,-1
 1699 0 l 1,5,-1
 1605 0 l 1,6,-1
 1386 1200 l 1,7,-1
 861 -17 l 1,8,-1
 352 1200 l 1,9,-1
 124 0 l 1,0,-1
EndSplineSet
EndChar

StartChar: N
Encoding: 78 78 49
Width: 1678
GlyphClass: 2
Flags: W
LayerCount: 2
Fore
SplineSet
168 0 m 1,0,-1
 168 1511 l 1,1,-1
 1424 202 l 1,2,-1
 1424 1493 l 1,3,-1
 1513 1493 l 1,4,-1
 1513 -17 l 1,5,-1
 258 1290 l 1,6,-1
 258 0 l 1,7,-1
 168 0 l 1,0,-1
EndSplineSet
EndChar

StartChar: O
Encoding: 79 79 50
Width: 1758
GlyphClass: 2
Flags: W
LayerCount: 2
Fore
SplineSet
880 1506 m 128,-1,1
 1034 1506 1034 1506 1174.5 1446 c 128,-1,2
 1315 1386 1315 1386 1416.5 1284 c 128,-1,3
 1518 1182 1518 1182 1578 1041 c 128,-1,4
 1638 900 1638 900 1638 745 c 128,-1,5
 1638 590 1638 590 1578 449.5 c 128,-1,6
 1518 309 1518 309 1416.5 207 c 128,-1,7
 1315 105 1315 105 1174.5 45 c 128,-1,8
 1034 -15 1034 -15 880 -15 c 128,-1,9
 726 -15 726 -15 586 45 c 128,-1,10
 446 105 446 105 345 207 c 128,-1,11
 244 309 244 309 184 449.5 c 128,-1,12
 124 590 124 590 124 745 c 128,-1,13
 124 900 124 900 184 1041 c 128,-1,14
 244 1182 244 1182 345 1284 c 128,-1,15
 446 1386 446 1386 586 1446 c 128,-1,0
 726 1506 726 1506 880 1506 c 128,-1,1
213 745 m 0,16,17
 213 609 213 609 265.5 485 c 128,-1,18
 318 361 318 361 407 271 c 128,-1,19
 496 181 496 181 620 127.5 c 128,-1,20
 744 74 744 74 880 74 c 0,21,22
 1017 74 1017 74 1141 127.5 c 128,-1,23
 1265 181 1265 181 1354 271 c 128,-1,24
 1443 361 1443 361 1496 485 c 128,-1,25
 1549 609 1549 609 1549 745 c 0,26,27
 1549 928 1549 928 1460 1082.5 c 128,-1,28
 1371 1237 1371 1237 1216.5 1327 c 128,-1,29
 1062 1417 1062 1417 880 1417 c 128,-1,30
 698 1417 698 1417 544.5 1327 c 128,-1,31
 391 1237 391 1237 302 1082.5 c 128,-1,32
 213 928 213 928 213 745 c 0,16,17
EndSplineSet
EndChar

StartChar: P
Encoding: 80 80 51
Width: 1203
GlyphClass: 2
Flags: W
LayerCount: 2
Fore
SplineSet
168 0 m 1,0,-1
 168 1495 l 1,1,-1
 698 1495 l 2,2,3
 859 1495 859 1495 971 1379 c 128,-1,4
 1083 1263 1083 1263 1083 1100 c 0,5,6
 1083 935 1083 935 971.5 818 c 128,-1,7
 860 701 860 701 701 701 c 2,8,-1
 258 701 l 1,9,-1
 258 0 l 1,10,-1
 168 0 l 1,0,-1
258 795 m 1,11,-1
 701 795 l 2,12,13
 820 795 820 795 905.5 884 c 128,-1,14
 991 973 991 973 991 1100 c 128,-1,15
 991 1227 991 1227 905 1316.5 c 128,-1,16
 819 1406 819 1406 698 1406 c 2,17,-1
 258 1406 l 1,18,-1
 258 795 l 1,11,-1
EndSplineSet
EndChar

StartChar: Q
Encoding: 81 81 52
Width: 1215
GlyphClass: 2
Flags: W
LayerCount: 2
Fore
SplineSet
978 1014 m 1,0,-1
 1074 1014 l 1,1,2
 1050 968 1050 968 1050 880 c 2,3,-1
 1050 -448 l 1,4,-1
 961 -448 l 1,5,-1
 961 260 l 1,6,7
 924 151 924 151 812.5 68 c 128,-1,8
 701 -15 701 -15 585 -15 c 0,9,10
 458 -15 458 -15 351.5 56 c 128,-1,11
 245 127 245 127 184.5 247.5 c 128,-1,12
 124 368 124 368 124 508 c 128,-1,13
 124 648 124 648 184.5 767.5 c 128,-1,14
 245 887 245 887 351.5 958.5 c 128,-1,15
 458 1030 458 1030 585 1030 c 0,16,17
 699 1030 699 1030 811 944.5 c 128,-1,18
 923 859 923 859 961 754 c 1,19,-1
 961 880 l 2,20,21
 961 955 961 955 978 1014 c 1,0,-1
961 508 m 128,-1,23
 961 688 961 688 850 814 c 128,-1,24
 739 940 739 940 585 940 c 0,25,26
 432 940 432 940 320 814 c 128,-1,27
 208 688 208 688 208 508 c 0,28,29
 208 329 208 329 320 201.5 c 128,-1,30
 432 74 432 74 585 74 c 128,-1,31
 738 74 738 74 849.5 201 c 128,-1,22
 961 328 961 328 961 508 c 128,-1,23
EndSplineSet
EndChar

StartChar: R
Encoding: 82 82 53
Width: 648
GlyphClass: 2
Flags: W
LayerCount: 2
Fore
SplineSet
143 1014 m 1,0,-1
 239 1014 l 1,1,2
 258 948 258 948 258 880 c 2,3,-1
 258 754 l 1,4,5
 281 831 281 831 365 914 c 128,-1,6
 449 997 449 997 534 1030 c 1,7,-1
 634 959 l 1,8,9
 546 959 546 959 458.5 897 c 128,-1,10
 371 835 371 835 314.5 732.5 c 128,-1,11
 258 630 258 630 258 521 c 2,12,-1
 258 0 l 1,13,-1
 168 0 l 1,14,-1
 168 880 l 2,15,16
 168 966 168 966 143 1014 c 1,0,-1
EndSplineSet
EndChar

StartChar: S
Encoding: 83 83 54
Width: 892
GlyphClass: 2
Flags: W
LayerCount: 2
Fore
SplineSet
709 835 m 1,0,-1
 626 806 l 1,1,2
 605 873 605 873 555 908.5 c 128,-1,3
 505 944 505 944 448 944 c 0,4,5
 382 944 382 944 335.5 902 c 128,-1,6
 289 860 289 860 289 788 c 0,7,8
 289 750 289 750 310 719 c 128,-1,9
 331 688 331 688 365 668 c 128,-1,10
 399 648 399 648 442.5 627 c 128,-1,11
 486 606 486 606 531 588 c 128,-1,12
 576 570 576 570 619.5 543 c 128,-1,13
 663 516 663 516 697 485 c 128,-1,14
 731 454 731 454 752 405 c 128,-1,15
 773 356 773 356 773 295 c 0,16,17
 773 156 773 156 674 69.5 c 128,-1,18
 575 -17 575 -17 444 -17 c 0,19,20
 387 -17 387 -17 335 1.5 c 128,-1,21
 283 20 283 20 239 56 c 128,-1,22
 195 92 195 92 164 152 c 128,-1,23
 133 212 133 212 124 289 c 1,24,-1
 213 302 l 1,25,26
 227 188 227 188 292.5 130 c 128,-1,27
 358 72 358 72 446 72 c 0,28,29
 539 72 539 72 611 134.5 c 128,-1,30
 683 197 683 197 683 295 c 0,31,32
 683 349 683 349 656 390.5 c 128,-1,33
 629 432 629 432 586.5 458 c 128,-1,34
 544 484 544 484 492 507 c 128,-1,35
 440 530 440 530 388 554 c 128,-1,36
 336 578 336 578 293.5 606.5 c 128,-1,37
 251 635 251 635 224 681.5 c 128,-1,38
 197 728 197 728 197 788 c 0,39,40
 197 900 197 900 271.5 966 c 128,-1,41
 346 1032 346 1032 448 1032 c 0,42,43
 532 1032 532 1032 605 981.5 c 128,-1,44
 678 931 678 931 709 835 c 1,0,-1
EndSplineSet
EndChar

StartChar: T
Encoding: 84 84 55
Width: 551
GlyphClass: 2
Flags: W
LayerCount: 2
Fore
SplineSet
258 0 m 1,0,-1
 168 0 l 1,1,-1
 168 925 l 1,2,-1
 79 925 l 1,3,-1
 79 1014 l 1,4,-1
 168 1014 l 1,5,-1
 168 1254 l 1,6,-1
 258 1254 l 1,7,-1
 258 1014 l 1,8,-1
 538 1014 l 1,9,-1
 508 925 l 1,10,-1
 258 925 l 1,11,-1
 258 0 l 1,0,-1
EndSplineSet
EndChar

StartChar: U
Encoding: 85 85 56
Width: 1393
GlyphClass: 2
Flags: W
LayerCount: 2
Fore
SplineSet
168 1493 m 1,0,-1
 258 1493 l 1,1,-1
 258 566 l 2,2,3
 258 431 258 431 319 317 c 128,-1,4
 380 203 380 203 481.5 138.5 c 128,-1,5
 583 74 583 74 701 74 c 128,-1,6
 819 74 819 74 919.5 138.5 c 128,-1,7
 1020 203 1020 203 1079.5 316.5 c 128,-1,8
 1139 430 1139 430 1139 566 c 2,9,-1
 1139 1493 l 1,10,-1
 1229 1493 l 1,11,-1
 1229 566 l 2,12,13
 1229 409 1229 409 1158.5 275.5 c 128,-1,14
 1088 142 1088 142 965.5 63.5 c 128,-1,15
 843 -15 843 -15 698 -15 c 128,-1,16
 553 -15 553 -15 431 63.5 c 128,-1,17
 309 142 309 142 238.5 275.5 c 128,-1,18
 168 409 168 409 168 566 c 2,19,-1
 168 1493 l 1,0,-1
EndSplineSet
EndChar

StartChar: V
Encoding: 86 86 57
Width: 1286
GlyphClass: 2
Flags: W
LayerCount: 2
Fore
SplineSet
1155 1493 m 1,0,-1
 1254 1493 l 1,1,-1
 654 -17 l 1,2,-1
 36 1493 l 1,3,-1
 132 1493 l 1,4,-1
 651 224 l 1,5,-1
 1155 1493 l 1,0,-1
EndSplineSet
EndChar

StartChar: W
Encoding: 87 87 58
Width: 1346
GlyphClass: 2
Flags: W
LayerCount: 2
Fore
SplineSet
258 90 m 1,0,-1
 468 90 l 2,1,2
 651 90 651 90 804.5 176 c 128,-1,3
 958 262 958 262 1047.5 413 c 128,-1,4
 1137 564 1137 564 1137 745 c 0,5,6
 1137 928 1137 928 1047.5 1079.5 c 128,-1,7
 958 1231 958 1231 804.5 1317 c 128,-1,8
 651 1403 651 1403 468 1403 c 2,9,-1
 258 1403 l 1,10,-1
 258 90 l 1,0,-1
168 0 m 1,11,-1
 168 1493 l 1,12,-1
 468 1493 l 2,13,14
 622 1493 622 1493 762 1435 c 128,-1,15
 902 1377 902 1377 1004 1277.5 c 128,-1,16
 1106 1178 1106 1178 1166 1039 c 128,-1,17
 1226 900 1226 900 1226 745 c 0,18,19
 1226 539 1226 539 1124 367.5 c 128,-1,20
 1022 196 1022 196 848 98 c 128,-1,21
 674 0 674 0 468 0 c 2,22,-1
 168 0 l 1,11,-1
EndSplineSet
EndChar

StartChar: X
Encoding: 88 88 59
Width: 982
GlyphClass: 2
Flags: W
LayerCount: 2
Fore
SplineSet
925 1493 m 1,0,-1
 925 1403 l 1,1,-1
 538 1403 l 1,2,-1
 538 0 l 1,3,-1
 448 0 l 1,4,-1
 448 1403 l 1,5,-1
 60 1403 l 1,6,-1
 60 1493 l 1,7,-1
 925 1493 l 1,0,-1
EndSplineSet
EndChar

StartChar: Y
Encoding: 89 89 60
Width: 946
GlyphClass: 2
Flags: W
LayerCount: 2
Fore
SplineSet
36 1014 m 1,0,-1
 128 1014 l 1,1,-1
 477 119 l 1,2,-1
 818 1014 l 1,3,-1
 914 1014 l 1,4,-1
 331 -521 l 1,5,-1
 235 -521 l 1,6,-1
 432 -2 l 1,7,-1
 36 1014 l 1,0,-1
EndSplineSet
EndChar

StartChar: Z
Encoding: 90 90 61
Width: 1185
GlyphClass: 2
Flags: W
LayerCount: 2
Fore
SplineSet
134 1493 m 1,0,-1
 1130 1493 l 1,1,-1
 203 90 l 1,2,-1
 1153 90 l 1,3,-1
 1121 0 l 1,4,-1
 36 0 l 1,5,-1
 965 1403 l 1,6,-1
 105 1403 l 1,7,-1
 134 1493 l 1,0,-1
EndSplineSet
EndChar

StartChar: bracketleft
Encoding: 91 91 62
Width: 433
GlyphClass: 2
Flags: W
LayerCount: 2
Fore
SplineSet
258 1493 m 1,0,-1
 258 -224 l 1,1,-1
 436 -224 l 1,2,-1
 436 -314 l 1,3,-1
 168 -314 l 1,4,-1
 168 1583 l 1,5,-1
 436 1583 l 1,6,-1
 436 1493 l 1,7,-1
 258 1493 l 1,0,-1
EndSplineSet
EndChar

StartChar: backslash
Encoding: 92 92 63
Width: 1168
GlyphClass: 2
Flags: W
LayerCount: 2
Fore
SplineSet
0 1493 m 1,0,-1
 109 1493 l 1,1,-1
 1171 0 l 1,2,-1
 1059 0 l 1,3,-1
 0 1493 l 1,0,-1
EndSplineSet
EndChar

StartChar: bracketright
Encoding: 93 93 64
Width: 433
GlyphClass: 2
Flags: W
LayerCount: 2
Fore
SplineSet
179 1493 m 1,0,-1
 0 1493 l 1,1,-1
 0 1583 l 1,2,-1
 269 1583 l 1,3,-1
 269 -314 l 1,4,-1
 0 -314 l 1,5,-1
 0 -224 l 1,6,-1
 179 -224 l 1,7,-1
 179 1493 l 1,0,-1
EndSplineSet
EndChar

StartChar: asciicircum
Encoding: 94 94 65
Width: 1196
GlyphClass: 2
Flags: W
LayerCount: 2
Fore
SplineSet
553 1493 m 1,0,-1
 654 1493 l 1,1,-1
 1077 745 l 1,2,-1
 974 745 l 1,3,-1
 602 1399 l 1,4,-1
 226 745 l 1,5,-1
 124 745 l 1,6,-1
 553 1493 l 1,0,-1
EndSplineSet
EndChar

StartChar: underscore
Encoding: 95 95 66
Width: 970
GlyphClass: 2
Flags: W
LayerCount: 2
Fore
SplineSet
974 0 m 1,0,-1
 974 -90 l 1,1,-1
 0 -90 l 1,2,-1
 0 0 l 1,3,-1
 974 0 l 1,0,-1
EndSplineSet
EndChar

StartChar: grave
Encoding: 96 96 67
Width: 425
GlyphClass: 2
Flags: W
LayerCount: 2
Fore
SplineSet
284 1229 m 1,0,-1
 215 1229 l 1,1,-1
 72 1523 l 1,2,-1
 186 1523 l 1,3,-1
 284 1229 l 1,0,-1
EndSplineSet
EndChar

StartChar: a
Encoding: 97 97 68
Width: 1060
GlyphClass: 2
Flags: W
LayerCount: 2
Fore
SplineSet
920 0 m 1,0,-1
 824 0 l 1,1,2
 806 57 806 57 806 134 c 2,3,-1
 806 213 l 1,4,5
 734 113 734 113 633.5 48 c 128,-1,6
 533 -17 533 -17 421 -17 c 0,7,8
 340 -17 340 -17 276.5 8.5 c 128,-1,9
 213 34 213 34 176 76 c 128,-1,10
 139 118 139 118 120 165.5 c 128,-1,11
 101 213 101 213 101 262 c 0,12,13
 101 313 101 313 116.5 356 c 128,-1,14
 132 399 132 399 156.5 429.5 c 128,-1,15
 181 460 181 460 221.5 484.5 c 128,-1,16
 262 509 262 509 299.5 524.5 c 128,-1,17
 337 540 337 540 393 551.5 c 128,-1,18
 449 563 449 563 490 568.5 c 128,-1,19
 531 574 531 574 592 577 c 128,-1,20
 653 580 653 580 688.5 580.5 c 128,-1,21
 724 581 724 581 779 581 c 2,22,-1
 806 581 l 1,23,24
 801 746 801 746 708.5 844 c 128,-1,25
 616 942 616 942 495 942 c 0,26,27
 424 942 424 942 356.5 905 c 128,-1,28
 289 868 289 868 239 797 c 1,29,-1
 168 844 l 1,30,31
 229 938 229 938 315 985 c 128,-1,32
 401 1032 401 1032 495 1032 c 0,33,34
 571 1032 571 1032 641.5 1001.5 c 128,-1,35
 712 971 712 971 768 915.5 c 128,-1,36
 824 860 824 860 858.5 773 c 128,-1,37
 893 686 893 686 895 581 c 2,38,-1
 895 134 l 2,39,40
 895 47 895 47 920 0 c 1,0,-1
421 72 m 0,41,42
 536 72 536 72 644 149 c 128,-1,43
 752 226 752 226 806 325 c 1,44,-1
 806 517 l 1,45,46
 759 516 759 516 727.5 515 c 128,-1,47
 696 514 696 514 641.5 510.5 c 128,-1,48
 587 507 587 507 549 502.5 c 128,-1,49
 511 498 511 498 460.5 488 c 128,-1,50
 410 478 410 478 375 465.5 c 128,-1,51
 340 453 340 453 302.5 433.5 c 128,-1,52
 265 414 265 414 242 390.5 c 128,-1,53
 219 367 219 367 204.5 334 c 128,-1,54
 190 301 190 301 190 262 c 0,55,56
 190 190 190 190 250 131 c 128,-1,57
 310 72 310 72 421 72 c 0,41,42
EndSplineSet
EndChar

StartChar: b
Encoding: 98 98 69
Width: 1215
GlyphClass: 2
Flags: W
LayerCount: 2
Fore
SplineSet
239 0 m 1,0,-1
 143 0 l 1,1,2
 168 50 168 50 168 134 c 2,3,-1
 168 1493 l 1,4,-1
 258 1493 l 1,5,-1
 258 754 l 1,6,7
 295 863 295 863 406.5 946.5 c 128,-1,8
 518 1030 518 1030 634 1030 c 0,9,10
 761 1030 761 1030 867 958.5 c 128,-1,11
 973 887 973 887 1033.5 767 c 128,-1,12
 1094 647 1094 647 1094 508 c 0,13,14
 1094 368 1094 368 1033.5 247.5 c 128,-1,15
 973 127 973 127 867 56 c 128,-1,16
 761 -15 761 -15 634 -15 c 0,17,18
 520 -15 520 -15 408 70.5 c 128,-1,19
 296 156 296 156 258 260 c 1,20,-1
 258 134 l 2,21,22
 258 66 258 66 239 0 c 1,0,-1
258 508 m 128,-1,24
 258 328 258 328 369 201 c 128,-1,25
 480 74 480 74 634 74 c 0,26,27
 786 74 786 74 898 201.5 c 128,-1,28
 1010 329 1010 329 1010 508 c 0,29,30
 1010 688 1010 688 898 814 c 128,-1,31
 786 940 786 940 634 940 c 0,32,33
 480 940 480 940 369 814 c 128,-1,23
 258 688 258 688 258 508 c 128,-1,24
EndSplineSet
EndChar

StartChar: c
Encoding: 99 99 70
Width: 1098
GlyphClass: 2
Flags: W
LayerCount: 2
Fore
SplineSet
902 280 m 1,0,-1
 978 235 l 1,1,2
 916 123 916 123 811.5 56 c 128,-1,3
 707 -11 707 -11 585 -11 c 0,4,5
 458 -11 458 -11 351.5 59.5 c 128,-1,6
 245 130 245 130 184.5 250 c 128,-1,7
 124 370 124 370 124 510 c 0,8,9
 124 651 124 651 184.5 771 c 128,-1,10
 245 891 245 891 351.5 961.5 c 128,-1,11
 458 1032 458 1032 585 1032 c 0,12,13
 707 1032 707 1032 811.5 965 c 128,-1,14
 916 898 916 898 978 786 c 1,15,-1
 902 741 l 1,16,17
 849 833 849 833 765.5 886.5 c 128,-1,18
 682 940 682 940 585 940 c 0,19,20
 432 940 432 940 320 816 c 128,-1,21
 208 692 208 692 208 513 c 0,22,23
 208 333 208 333 320 207 c 128,-1,24
 432 81 432 81 585 81 c 0,25,26
 682 81 682 81 766 134 c 128,-1,27
 850 187 850 187 902 280 c 1,0,-1
EndSplineSet
EndChar

StartChar: d
Encoding: 100 100 71
Width: 1215
GlyphClass: 2
Flags: W
LayerCount: 2
Fore
SplineSet
1074 0 m 1,0,-1
 978 0 l 1,1,2
 961 59 961 59 961 134 c 2,3,-1
 961 260 l 1,4,5
 923 156 923 156 810.5 70.5 c 128,-1,6
 698 -15 698 -15 585 -15 c 0,7,8
 458 -15 458 -15 351.5 56 c 128,-1,9
 245 127 245 127 184.5 247.5 c 128,-1,10
 124 368 124 368 124 508 c 128,-1,11
 124 648 124 648 184.5 767.5 c 128,-1,12
 245 887 245 887 351.5 958.5 c 128,-1,13
 458 1030 458 1030 585 1030 c 0,14,15
 700 1030 700 1030 812 946.5 c 128,-1,16
 924 863 924 863 961 754 c 1,17,-1
 961 1493 l 1,18,-1
 1050 1493 l 1,19,-1
 1050 134 l 2,20,21
 1050 48 1050 48 1074 0 c 1,0,-1
961 508 m 128,-1,23
 961 688 961 688 850 814 c 128,-1,24
 739 940 739 940 585 940 c 0,25,26
 432 940 432 940 320 814 c 128,-1,27
 208 688 208 688 208 508 c 0,28,29
 208 329 208 329 320 201.5 c 128,-1,30
 432 74 432 74 585 74 c 128,-1,31
 738 74 738 74 849.5 201 c 128,-1,22
 961 328 961 328 961 508 c 128,-1,23
EndSplineSet
EndChar

StartChar: e
Encoding: 101 101 72
Width: 1177
GlyphClass: 2
Flags: W
LayerCount: 2
Fore
SplineSet
222 593 m 1,0,-1
 959 593 l 1,1,2
 931 744 931 744 827 842 c 128,-1,3
 723 940 723 940 589 940 c 0,4,5
 456 940 456 940 352.5 842 c 128,-1,6
 249 744 249 744 222 593 c 1,0,-1
1057 508 m 1,7,-1
 208 508 l 1,8,9
 208 329 208 329 320 204 c 128,-1,10
 432 79 432 79 585 79 c 0,11,12
 686 79 686 79 783 133 c 128,-1,13
 880 187 880 187 931 278 c 1,14,-1
 1010 233 l 1,15,16
 949 124 949 124 830 54.5 c 128,-1,17
 711 -15 711 -15 585 -15 c 0,18,19
 458 -15 458 -15 351.5 56 c 128,-1,20
 245 127 245 127 184.5 247.5 c 128,-1,21
 124 368 124 368 124 508 c 0,22,23
 124 647 124 647 185.5 767 c 128,-1,24
 247 887 247 887 354.5 958.5 c 128,-1,25
 462 1030 462 1030 589 1030 c 0,26,27
 709 1030 709 1030 812.5 965.5 c 128,-1,28
 916 901 916 901 980 792 c 128,-1,29
 1044 683 1044 683 1055 553 c 1,30,-1
 1057 508 l 1,7,-1
EndSplineSet
EndChar

StartChar: f
Encoding: 102 102 73
Width: 532
GlyphClass: 2
Flags: W
LayerCount: 2
Fore
SplineSet
164 0 m 1,0,-1
 164 925 l 1,1,-1
 79 925 l 1,2,-1
 79 1014 l 1,3,-1
 164 1014 l 1,4,-1
 164 1104 l 2,5,6
 164 1270 164 1270 272.5 1388 c 128,-1,7
 381 1506 381 1506 534 1506 c 1,8,-1
 534 1448 l 1,9,10
 422 1448 422 1448 337 1342.5 c 128,-1,11
 252 1237 252 1237 252 1104 c 2,12,-1
 252 1014 l 1,13,-1
 534 1014 l 1,14,-1
 504 925 l 1,15,-1
 252 925 l 1,16,-1
 252 0 l 1,17,-1
 164 0 l 1,0,-1
EndSplineSet
EndChar

StartChar: g
Encoding: 103 103 74
Width: 1215
GlyphClass: 2
Flags: W
LayerCount: 2
Fore
SplineSet
978 1014 m 1,0,-1
 1074 1014 l 1,1,2
 1050 968 1050 968 1050 880 c 2,3,-1
 1050 0 l 2,4,5
 1050 -140 1050 -140 987.5 -260 c 128,-1,6
 925 -380 925 -380 817 -450.5 c 128,-1,7
 709 -521 709 -521 581 -521 c 0,8,9
 405 -521 405 -521 275 -391 c 1,10,-1
 340 -329 l 1,11,12
 446 -432 446 -432 585 -432 c 0,13,14
 739 -432 739 -432 850 -306 c 128,-1,15
 961 -180 961 -180 961 0 c 2,16,-1
 961 260 l 1,17,18
 924 151 924 151 812.5 68 c 128,-1,19
 701 -15 701 -15 585 -15 c 0,20,21
 458 -15 458 -15 351.5 56 c 128,-1,22
 245 127 245 127 184.5 247.5 c 128,-1,23
 124 368 124 368 124 508 c 128,-1,24
 124 648 124 648 184.5 767.5 c 128,-1,25
 245 887 245 887 351.5 958.5 c 128,-1,26
 458 1030 458 1030 585 1030 c 0,27,28
 699 1030 699 1030 811 944.5 c 128,-1,29
 923 859 923 859 961 754 c 1,30,-1
 961 880 l 2,31,32
 961 955 961 955 978 1014 c 1,0,-1
955 508 m 0,33,34
 955 688 955 688 843.5 814 c 128,-1,35
 732 940 732 940 579 940 c 0,36,37
 425 940 425 940 314 814 c 128,-1,38
 203 688 203 688 203 508 c 128,-1,39
 203 328 203 328 314.5 201 c 128,-1,40
 426 74 426 74 579 74 c 128,-1,41
 732 74 732 74 843.5 201.5 c 128,-1,42
 955 329 955 329 955 508 c 0,33,34
EndSplineSet
EndChar

StartChar: h
Encoding: 104 104 75
Width: 1071
GlyphClass: 2
Flags: W
LayerCount: 2
Fore
SplineSet
168 0 m 1,0,-1
 168 1493 l 1,1,-1
 258 1493 l 1,2,-1
 258 726 l 1,3,4
 310 848 310 848 409 939 c 128,-1,5
 508 1030 508 1030 600 1030 c 0,6,7
 702 1030 702 1030 772.5 973 c 128,-1,8
 843 916 843 916 874.5 827 c 128,-1,9
 906 738 906 738 906 626 c 2,10,-1
 906 0 l 1,11,-1
 818 0 l 1,12,-1
 818 626 l 2,13,14
 818 681 818 681 807.5 732 c 128,-1,15
 797 783 797 783 774 832 c 128,-1,16
 751 881 751 881 705.5 910.5 c 128,-1,17
 660 940 660 940 598 940 c 0,18,19
 539 940 539 940 475.5 894 c 128,-1,20
 412 848 412 848 365.5 781.5 c 128,-1,21
 319 715 319 715 288.5 640 c 128,-1,22
 258 565 258 565 258 508 c 2,23,-1
 258 0 l 1,24,-1
 168 0 l 1,0,-1
EndSplineSet
EndChar

StartChar: i
Encoding: 105 105 76
Width: 422
GlyphClass: 2
Flags: W
LayerCount: 2
Fore
SplineSet
132 1254 m 0,0,1
 132 1287 132 1287 155.5 1311 c 128,-1,2
 179 1335 179 1335 213 1335 c 0,3,4
 246 1335 246 1335 269.5 1311 c 128,-1,5
 293 1287 293 1287 293 1254 c 0,6,7
 293 1220 293 1220 270 1196.5 c 128,-1,8
 247 1173 247 1173 213 1173 c 128,-1,9
 179 1173 179 1173 155.5 1196.5 c 128,-1,10
 132 1220 132 1220 132 1254 c 0,0,1
258 0 m 1,11,-1
 168 0 l 1,12,-1
 168 1014 l 1,13,-1
 258 1014 l 1,14,-1
 258 0 l 1,11,-1
EndSplineSet
EndChar

StartChar: j
Encoding: 106 106 77
Width: 415
GlyphClass: 2
Flags: W
LayerCount: 2
Fore
SplineSet
168 1014 m 1,0,-1
 258 1014 l 1,1,-1
 258 2 l 2,2,3
 258 -127 258 -127 174 -219.5 c 128,-1,4
 90 -312 90 -312 -30 -312 c 1,5,-1
 -30 -235 l 1,6,7
 51 -235 51 -235 109.5 -164.5 c 128,-1,8
 168 -94 168 -94 168 2 c 2,9,-1
 168 1014 l 1,0,-1
128 1254 m 0,10,11
 128 1287 128 1287 151.5 1311 c 128,-1,12
 175 1335 175 1335 208 1335 c 128,-1,13
 241 1335 241 1335 265 1311 c 128,-1,14
 289 1287 289 1287 289 1254 c 0,15,16
 289 1220 289 1220 265 1196.5 c 128,-1,17
 241 1173 241 1173 208 1173 c 128,-1,18
 175 1173 175 1173 151.5 1196.5 c 128,-1,19
 128 1220 128 1220 128 1254 c 0,10,11
EndSplineSet
EndChar

StartChar: k
Encoding: 107 107 78
Width: 1215
GlyphClass: 2
Flags: W
LayerCount: 2
Fore
SplineSet
978 1014 m 1,0,-1
 1074 1014 l 1,1,2
 1050 968 1050 968 1050 880 c 2,3,-1
 1050 -448 l 1,4,-1
 961 -448 l 1,5,-1
 961 260 l 1,6,7
 924 151 924 151 812.5 68 c 128,-1,8
 701 -15 701 -15 585 -15 c 0,9,10
 458 -15 458 -15 351.5 56 c 128,-1,11
 245 127 245 127 184.5 247.5 c 128,-1,12
 124 368 124 368 124 508 c 128,-1,13
 124 648 124 648 184.5 767.5 c 128,-1,14
 245 887 245 887 351.5 958.5 c 128,-1,15
 458 1030 458 1030 585 1030 c 0,16,17
 699 1030 699 1030 811 944.5 c 128,-1,18
 923 859 923 859 961 754 c 1,19,-1
 961 880 l 2,20,21
 961 955 961 955 978 1014 c 1,0,-1
961 508 m 128,-1,23
 961 688 961 688 850 814 c 128,-1,24
 739 940 739 940 585 940 c 0,25,26
 432 940 432 940 320 814 c 128,-1,27
 208 688 208 688 208 508 c 0,28,29
 208 329 208 329 320 201.5 c 128,-1,30
 432 74 432 74 585 74 c 128,-1,31
 738 74 738 74 849.5 201 c 128,-1,22
 961 328 961 328 961 508 c 128,-1,23
EndSplineSet
EndChar

StartChar: l
Encoding: 108 108 79
Width: 422
GlyphClass: 2
Flags: W
LayerCount: 2
Fore
SplineSet
258 0 m 1,0,-1
 168 0 l 1,1,-1
 168 1493 l 1,2,-1
 258 1493 l 1,3,-1
 258 0 l 1,0,-1
EndSplineSet
EndChar

StartChar: m
Encoding: 109 109 80
Width: 1595
GlyphClass: 2
Flags: W
LayerCount: 2
Fore
SplineSet
143 1014 m 1,0,-1
 239 1014 l 1,1,2
 258 948 258 948 258 880 c 2,3,-1
 258 734 l 1,4,5
 306 852 306 852 396 941 c 128,-1,6
 486 1030 486 1030 566 1030 c 0,7,8
 685 1030 685 1030 757 947.5 c 128,-1,9
 829 865 829 865 848 734 c 1,10,11
 898 856 898 856 982.5 941.5 c 128,-1,12
 1067 1027 1067 1027 1149 1027 c 0,13,14
 1243 1027 1243 1027 1308.5 968.5 c 128,-1,15
 1374 910 1374 910 1402.5 821.5 c 128,-1,16
 1431 733 1431 733 1431 624 c 2,17,-1
 1431 0 l 1,18,-1
 1341 0 l 1,19,-1
 1341 624 l 2,20,21
 1341 678 1341 678 1332 729 c 128,-1,22
 1323 780 1323 780 1302.5 829 c 128,-1,23
 1282 878 1282 878 1242 908 c 128,-1,24
 1202 938 1202 938 1147 938 c 0,25,26
 1080 938 1080 938 1007 862.5 c 128,-1,27
 934 787 934 787 888 685 c 128,-1,28
 842 583 842 583 842 504 c 2,29,-1
 842 0 l 1,30,-1
 752 0 l 1,31,-1
 752 626 l 2,32,33
 752 681 752 681 743 732 c 128,-1,34
 734 783 734 783 714 832 c 128,-1,35
 694 881 694 881 653.5 910.5 c 128,-1,36
 613 940 613 940 557 940 c 0,37,38
 495 940 495 940 423.5 868 c 128,-1,39
 352 796 352 796 305 694 c 128,-1,40
 258 592 258 592 258 508 c 2,41,-1
 258 0 l 1,42,-1
 168 0 l 1,43,-1
 168 880 l 2,44,45
 168 966 168 966 143 1014 c 1,0,-1
EndSplineSet
EndChar

StartChar: n
Encoding: 110 110 81
Width: 1071
GlyphClass: 2
Flags: W
LayerCount: 2
Fore
SplineSet
143 1014 m 1,0,-1
 239 1014 l 1,1,2
 258 948 258 948 258 880 c 2,3,-1
 258 728 l 1,4,5
 313 853 313 853 410.5 941.5 c 128,-1,6
 508 1030 508 1030 600 1030 c 0,7,8
 702 1030 702 1030 772.5 973 c 128,-1,9
 843 916 843 916 874.5 827 c 128,-1,10
 906 738 906 738 906 626 c 2,11,-1
 906 0 l 1,12,-1
 818 0 l 1,13,-1
 818 626 l 2,14,15
 818 681 818 681 807.5 732 c 128,-1,16
 797 783 797 783 774 832 c 128,-1,17
 751 881 751 881 705.5 910.5 c 128,-1,18
 660 940 660 940 598 940 c 0,19,20
 539 940 539 940 475.5 894 c 128,-1,21
 412 848 412 848 365.5 781.5 c 128,-1,22
 319 715 319 715 288.5 640 c 128,-1,23
 258 565 258 565 258 508 c 2,24,-1
 258 0 l 1,25,-1
 168 0 l 1,26,-1
 168 880 l 2,27,28
 168 966 168 966 143 1014 c 1,0,-1
EndSplineSet
EndChar

StartChar: o
Encoding: 111 111 82
Width: 1282
GlyphClass: 2
Flags: W
LayerCount: 2
Fore
SplineSet
643 1030 m 0,0,1
 748 1030 748 1030 844 989 c 128,-1,2
 940 948 940 948 1010 878 c 128,-1,3
 1080 808 1080 808 1121 711 c 128,-1,4
 1162 614 1162 614 1162 508 c 0,5,6
 1162 401 1162 401 1121 304 c 128,-1,7
 1080 207 1080 207 1010 137.5 c 128,-1,8
 940 68 940 68 844 26.5 c 128,-1,9
 748 -15 748 -15 643 -15 c 0,10,11
 428 -15 428 -15 276 138 c 128,-1,12
 124 291 124 291 124 508 c 0,13,14
 124 650 124 650 193.5 770.5 c 128,-1,15
 263 891 263 891 382.5 960.5 c 128,-1,16
 502 1030 502 1030 643 1030 c 0,0,1
213 508 m 0,17,18
 213 329 213 329 339.5 201.5 c 128,-1,19
 466 74 466 74 645 74 c 128,-1,20
 824 74 824 74 950.5 201.5 c 128,-1,21
 1077 329 1077 329 1077 508 c 0,22,23
 1077 686 1077 686 950.5 813 c 128,-1,24
 824 940 824 940 645 940 c 128,-1,25
 466 940 466 940 339.5 813 c 128,-1,26
 213 686 213 686 213 508 c 0,17,18
EndSplineSet
EndChar

StartChar: p
Encoding: 112 112 83
Width: 1215
GlyphClass: 2
Flags: W
LayerCount: 2
Fore
SplineSet
143 1014 m 1,0,-1
 239 1014 l 1,1,2
 258 948 258 948 258 880 c 2,3,-1
 258 754 l 1,4,5
 296 859 296 859 408 944.5 c 128,-1,6
 520 1030 520 1030 634 1030 c 0,7,8
 761 1030 761 1030 867 958.5 c 128,-1,9
 973 887 973 887 1033.5 767 c 128,-1,10
 1094 647 1094 647 1094 508 c 0,11,12
 1094 368 1094 368 1033.5 247.5 c 128,-1,13
 973 127 973 127 867 56 c 128,-1,14
 761 -15 761 -15 634 -15 c 0,15,16
 518 -15 518 -15 406.5 67.5 c 128,-1,17
 295 150 295 150 258 260 c 1,18,-1
 258 -448 l 1,19,-1
 168 -448 l 1,20,-1
 168 880 l 2,21,22
 168 966 168 966 143 1014 c 1,0,-1
258 508 m 128,-1,24
 258 328 258 328 369 201 c 128,-1,25
 480 74 480 74 634 74 c 0,26,27
 786 74 786 74 898 201.5 c 128,-1,28
 1010 329 1010 329 1010 508 c 0,29,30
 1010 688 1010 688 898 814 c 128,-1,31
 786 940 786 940 634 940 c 0,32,33
 480 940 480 940 369 814 c 128,-1,23
 258 688 258 688 258 508 c 128,-1,24
EndSplineSet
EndChar

StartChar: q
Encoding: 113 113 84
Width: 1215
GlyphClass: 2
Flags: W
LayerCount: 2
Fore
SplineSet
978 1014 m 1,0,-1
 1074 1014 l 1,1,2
 1050 968 1050 968 1050 880 c 2,3,-1
 1050 -448 l 1,4,-1
 961 -448 l 1,5,-1
 961 260 l 1,6,7
 924 151 924 151 812.5 68 c 128,-1,8
 701 -15 701 -15 585 -15 c 0,9,10
 458 -15 458 -15 351.5 56 c 128,-1,11
 245 127 245 127 184.5 247.5 c 128,-1,12
 124 368 124 368 124 508 c 128,-1,13
 124 648 124 648 184.5 767.5 c 128,-1,14
 245 887 245 887 351.5 958.5 c 128,-1,15
 458 1030 458 1030 585 1030 c 0,16,17
 699 1030 699 1030 811 944.5 c 128,-1,18
 923 859 923 859 961 754 c 1,19,-1
 961 880 l 2,20,21
 961 955 961 955 978 1014 c 1,0,-1
961 508 m 128,-1,23
 961 688 961 688 850 814 c 128,-1,24
 739 940 739 940 585 940 c 0,25,26
 432 940 432 940 320 814 c 128,-1,27
 208 688 208 688 208 508 c 0,28,29
 208 329 208 329 320 201.5 c 128,-1,30
 432 74 432 74 585 74 c 128,-1,31
 738 74 738 74 849.5 201 c 128,-1,22
 961 328 961 328 961 508 c 128,-1,23
EndSplineSet
EndChar

StartChar: r
Encoding: 114 114 85
Width: 648
GlyphClass: 2
Flags: W
LayerCount: 2
Fore
SplineSet
143 1014 m 1,0,-1
 239 1014 l 1,1,2
 258 948 258 948 258 880 c 2,3,-1
 258 754 l 1,4,5
 281 831 281 831 365 914 c 128,-1,6
 449 997 449 997 534 1030 c 1,7,-1
 634 959 l 1,8,9
 546 959 546 959 458.5 897 c 128,-1,10
 371 835 371 835 314.5 732.5 c 128,-1,11
 258 630 258 630 258 521 c 2,12,-1
 258 0 l 1,13,-1
 168 0 l 1,14,-1
 168 880 l 2,15,16
 168 966 168 966 143 1014 c 1,0,-1
EndSplineSet
EndChar

StartChar: s
Encoding: 115 115 86
Width: 892
GlyphClass: 2
Flags: W
LayerCount: 2
Fore
SplineSet
709 835 m 1,0,-1
 626 806 l 1,1,2
 605 873 605 873 555 908.5 c 128,-1,3
 505 944 505 944 448 944 c 0,4,5
 382 944 382 944 335.5 902 c 128,-1,6
 289 860 289 860 289 788 c 0,7,8
 289 750 289 750 310 719 c 128,-1,9
 331 688 331 688 365 668 c 128,-1,10
 399 648 399 648 442.5 627 c 128,-1,11
 486 606 486 606 531 588 c 128,-1,12
 576 570 576 570 619.5 543 c 128,-1,13
 663 516 663 516 697 485 c 128,-1,14
 731 454 731 454 752 405 c 128,-1,15
 773 356 773 356 773 295 c 0,16,17
 773 156 773 156 674 69.5 c 128,-1,18
 575 -17 575 -17 444 -17 c 0,19,20
 387 -17 387 -17 335 1.5 c 128,-1,21
 283 20 283 20 239 56 c 128,-1,22
 195 92 195 92 164 152 c 128,-1,23
 133 212 133 212 124 289 c 1,24,-1
 213 302 l 1,25,26
 227 188 227 188 292.5 130 c 128,-1,27
 358 72 358 72 446 72 c 0,28,29
 539 72 539 72 611 134.5 c 128,-1,30
 683 197 683 197 683 295 c 0,31,32
 683 349 683 349 656 390.5 c 128,-1,33
 629 432 629 432 586.5 458 c 128,-1,34
 544 484 544 484 492 507 c 128,-1,35
 440 530 440 530 388 554 c 128,-1,36
 336 578 336 578 293.5 606.5 c 128,-1,37
 251 635 251 635 224 681.5 c 128,-1,38
 197 728 197 728 197 788 c 0,39,40
 197 900 197 900 271.5 966 c 128,-1,41
 346 1032 346 1032 448 1032 c 0,42,43
 532 1032 532 1032 605 981.5 c 128,-1,44
 678 931 678 931 709 835 c 1,0,-1
EndSplineSet
EndChar

StartChar: t
Encoding: 116 116 87
Width: 551
GlyphClass: 2
Flags: W
LayerCount: 2
Fore
SplineSet
258 0 m 1,0,-1
 168 0 l 1,1,-1
 168 925 l 1,2,-1
 79 925 l 1,3,-1
 79 1014 l 1,4,-1
 168 1014 l 1,5,-1
 168 1254 l 1,6,-1
 258 1254 l 1,7,-1
 258 1014 l 1,8,-1
 538 1014 l 1,9,-1
 508 925 l 1,10,-1
 258 925 l 1,11,-1
 258 0 l 1,0,-1
EndSplineSet
EndChar

StartChar: u
Encoding: 117 117 88
Width: 1066
GlyphClass: 2
Flags: W
LayerCount: 2
Fore
SplineSet
168 1014 m 1,0,-1
 258 1014 l 1,1,-1
 258 387 l 2,2,3
 258 256 258 256 337 165 c 128,-1,4
 416 74 416 74 530 74 c 0,5,6
 645 74 645 74 728.5 165.5 c 128,-1,7
 812 257 812 257 812 387 c 2,8,-1
 812 1014 l 1,9,-1
 902 1014 l 1,10,-1
 902 387 l 2,11,12
 902 222 902 222 795 103.5 c 128,-1,13
 688 -15 688 -15 534 -15 c 0,14,15
 381 -15 381 -15 274.5 103.5 c 128,-1,16
 168 222 168 222 168 387 c 2,17,-1
 168 1014 l 1,0,-1
EndSplineSet
EndChar

StartChar: v
Encoding: 118 118 89
Width: 946
GlyphClass: 2
Flags: W
LayerCount: 2
Fore
SplineSet
36 1014 m 1,0,-1
 132 1014 l 1,1,-1
 474 203 l 1,2,-1
 814 1014 l 1,3,-1
 914 1014 l 1,4,-1
 477 -30 l 1,5,-1
 36 1014 l 1,0,-1
EndSplineSet
EndChar

StartChar: w
Encoding: 119 119 90
Width: 1346
GlyphClass: 2
Flags: W
LayerCount: 2
Fore
SplineSet
258 90 m 1,0,-1
 468 90 l 2,1,2
 651 90 651 90 804.5 176 c 128,-1,3
 958 262 958 262 1047.5 413 c 128,-1,4
 1137 564 1137 564 1137 745 c 0,5,6
 1137 928 1137 928 1047.5 1079.5 c 128,-1,7
 958 1231 958 1231 804.5 1317 c 128,-1,8
 651 1403 651 1403 468 1403 c 2,9,-1
 258 1403 l 1,10,-1
 258 90 l 1,0,-1
168 0 m 1,11,-1
 168 1493 l 1,12,-1
 468 1493 l 2,13,14
 622 1493 622 1493 762 1435 c 128,-1,15
 902 1377 902 1377 1004 1277.5 c 128,-1,16
 1106 1178 1106 1178 1166 1039 c 128,-1,17
 1226 900 1226 900 1226 745 c 0,18,19
 1226 539 1226 539 1124 367.5 c 128,-1,20
 1022 196 1022 196 848 98 c 128,-1,21
 674 0 674 0 468 0 c 2,22,-1
 168 0 l 1,11,-1
EndSplineSet
EndChar

StartChar: x
Encoding: 120 120 91
Width: 982
GlyphClass: 2
Flags: W
LayerCount: 2
Fore
SplineSet
925 1493 m 1,0,-1
 925 1403 l 1,1,-1
 538 1403 l 1,2,-1
 538 0 l 1,3,-1
 448 0 l 1,4,-1
 448 1403 l 1,5,-1
 60 1403 l 1,6,-1
 60 1493 l 1,7,-1
 925 1493 l 1,0,-1
EndSplineSet
EndChar

StartChar: y
Encoding: 121 121 92
Width: 946
GlyphClass: 2
Flags: W
LayerCount: 2
Fore
SplineSet
36 1014 m 1,0,-1
 128 1014 l 1,1,-1
 477 119 l 1,2,-1
 818 1014 l 1,3,-1
 914 1014 l 1,4,-1
 331 -521 l 1,5,-1
 235 -521 l 1,6,-1
 432 -2 l 1,7,-1
 36 1014 l 1,0,-1
EndSplineSet
EndChar

StartChar: z
Encoding: 122 122 93
Width: 888
GlyphClass: 2
Flags: W
LayerCount: 2
Fore
SplineSet
158 1014 m 1,0,-1
 853 1014 l 1,1,-1
 205 90 l 1,2,-1
 850 90 l 1,3,-1
 822 0 l 1,4,-1
 36 0 l 1,5,-1
 687 925 l 1,6,-1
 128 925 l 1,7,-1
 158 1014 l 1,0,-1
EndSplineSet
EndChar

StartChar: braceleft
Encoding: 123 123 94
Width: 570
GlyphClass: 2
Flags: W
LayerCount: 2
Fore
SplineSet
346 1224 m 2,0,-1
 346 929 l 2,1,2
 346 816 346 816 318.5 749 c 128,-1,3
 291 682 291 682 231 628 c 1,4,5
 287 582 287 582 316.5 516 c 128,-1,6
 346 450 346 450 346 331 c 2,7,-1
 346 34 l 2,8,9
 346 -100 346 -100 390.5 -175 c 128,-1,10
 435 -250 435 -250 513 -250 c 1,11,-1
 513 -312 l 1,12,13
 485 -312 485 -312 458.5 -306.5 c 128,-1,14
 432 -301 432 -301 402 -288 c 128,-1,15
 372 -275 372 -275 347.5 -249 c 128,-1,16
 323 -223 323 -223 302 -186.5 c 128,-1,17
 281 -150 281 -150 269.5 -93.5 c 128,-1,18
 258 -37 258 -37 258 34 c 2,19,-1
 258 331 l 2,20,21
 258 405 258 405 242.5 453.5 c 128,-1,22
 227 502 227 502 201.5 529.5 c 128,-1,23
 176 557 176 557 126 591 c 1,24,-1
 126 665 l 1,25,26
 176 699 176 699 201.5 726.5 c 128,-1,27
 227 754 227 754 242.5 802.5 c 128,-1,28
 258 851 258 851 258 925 c 2,29,-1
 258 1224 l 2,30,31
 258 1307 258 1307 275 1371 c 128,-1,32
 292 1435 292 1435 318 1471 c 128,-1,33
 344 1507 344 1507 380 1529.5 c 128,-1,34
 416 1552 416 1552 447.5 1559.5 c 128,-1,35
 479 1567 479 1567 513 1567 c 1,36,-1
 513 1506 l 1,37,38
 435 1506 435 1506 390.5 1431.5 c 128,-1,39
 346 1357 346 1357 346 1224 c 2,0,-1
EndSplineSet
EndChar

StartChar: bar
Encoding: 124 124 95
Width: 422
GlyphClass: 2
Flags: W
LayerCount: 2
Fore
SplineSet
258 -150 m 1,0,-1
 168 -150 l 1,1,-1
 168 1641 l 1,2,-1
 258 1641 l 1,3,-1
 258 -150 l 1,0,-1
EndSplineSet
EndChar

StartChar: braceright
Encoding: 125 125 96
Width: 574
GlyphClass: 2
Flags: W
LayerCount: 2
Fore
SplineSet
60 1506 m 1,0,-1
 60 1565 l 1,1,2
 94 1565 94 1565 126 1557.5 c 128,-1,3
 158 1550 158 1550 194.5 1527.5 c 128,-1,4
 231 1505 231 1505 258 1468.5 c 128,-1,5
 285 1432 285 1432 302.5 1368 c 128,-1,6
 320 1304 320 1304 320 1220 c 2,7,-1
 320 922 l 2,8,9
 320 848 320 848 335 800 c 128,-1,10
 350 752 350 752 375.5 724 c 128,-1,11
 401 696 401 696 450 662 c 1,12,-1
 450 589 l 1,13,14
 401 555 401 555 375.5 527 c 128,-1,15
 350 499 350 499 335 451 c 128,-1,16
 320 403 320 403 320 329 c 2,17,-1
 320 30 l 2,18,19
 320 -54 320 -54 302.5 -117.5 c 128,-1,20
 285 -181 285 -181 258 -217.5 c 128,-1,21
 231 -254 231 -254 194.5 -276.5 c 128,-1,22
 158 -299 158 -299 126 -306.5 c 128,-1,23
 94 -314 94 -314 60 -314 c 1,24,-1
 60 -252 l 1,25,26
 139 -252 139 -252 185 -177.5 c 128,-1,27
 231 -103 231 -103 231 30 c 2,28,-1
 231 329 l 2,29,30
 231 449 231 449 260.5 515 c 128,-1,31
 290 581 290 581 346 626 c 1,32,33
 284 679 284 679 255 745.5 c 128,-1,34
 226 812 226 812 226 925 c 2,35,-1
 226 1224 l 2,36,37
 226 1358 226 1358 182 1432 c 128,-1,38
 138 1506 138 1506 60 1506 c 1,0,-1
EndSplineSet
EndChar

StartChar: asciitilde
Encoding: 126 126 97
Width: 1058
GlyphClass: 2
Flags: W
LayerCount: 2
Fore
SplineSet
878 598 m 1,0,-1
 938 598 l 1,1,2
 938 485 938 485 888.5 431.5 c 128,-1,3
 839 378 839 378 759 378 c 0,4,5
 708 378 708 378 644 399 c 128,-1,6
 580 420 580 420 529.5 445.5 c 128,-1,7
 479 471 479 471 418 492 c 128,-1,8
 357 513 357 513 312 513 c 0,9,10
 289 513 289 513 269 508 c 128,-1,11
 249 503 249 503 227.5 491 c 128,-1,12
 206 479 206 479 193.5 452 c 128,-1,13
 181 425 181 425 181 387 c 1,14,-1
 124 387 l 1,15,16
 124 503 124 503 177 555 c 128,-1,17
 230 607 230 607 312 607 c 0,18,19
 369 607 369 607 434 586 c 128,-1,20
 499 565 499 565 548 539.5 c 128,-1,21
 597 514 597 514 655.5 493 c 128,-1,22
 714 472 714 472 759 472 c 0,23,24
 878 472 878 472 878 598 c 1,0,-1
EndSplineSet
EndChar

StartChar: exclamdown
Encoding: 161 161 99
Width: 570
GlyphClass: 2
Flags: W
LayerCount: 2
Fore
SplineSet
258 745 m 1,0,-1
 316 745 l 1,1,-1
 346 -477 l 1,2,-1
 226 -477 l 1,3,-1
 258 745 l 1,0,-1
203 947 m 0,4,5
 203 980 203 980 228 1005 c 128,-1,6
 253 1030 253 1030 286 1030 c 0,7,8
 320 1030 320 1030 344.5 1005 c 128,-1,9
 369 980 369 980 369 947 c 0,10,11
 369 913 369 913 344 887 c 128,-1,12
 319 861 319 861 286 861 c 128,-1,13
 253 861 253 861 228 887 c 128,-1,14
 203 913 203 913 203 947 c 0,4,5
EndSplineSet
EndChar

StartChar: cent
Encoding: 162 162 100
Width: 1105
GlyphClass: 2
Flags: W
LayerCount: 2
Fore
SplineSet
544 1254 m 1,0,-1
 634 1254 l 1,1,-1
 634 1030 l 1,2,3
 743 1018 743 1018 836.5 952.5 c 128,-1,4
 930 887 930 887 985 786 c 1,5,-1
 906 741 l 1,6,7
 862 822 862 822 791.5 874 c 128,-1,8
 721 926 721 926 636 938 c 1,9,-1
 636 79 l 1,10,11
 720 89 720 89 791 141 c 128,-1,12
 862 193 862 193 906 275 c 1,13,-1
 985 231 l 1,14,15
 929 130 929 130 836 64.5 c 128,-1,16
 743 -1 743 -1 634 -11 c 1,17,-1
 634 -239 l 1,18,-1
 544 -239 l 1,19,-1
 544 -11 l 1,20,21
 427 0 427 0 330 72.5 c 128,-1,22
 233 145 233 145 178.5 260 c 128,-1,23
 124 375 124 375 124 508 c 0,24,25
 124 710 124 710 244.5 859.5 c 128,-1,26
 365 1009 365 1009 544 1027 c 1,27,-1
 544 1254 l 1,0,-1
544 81 m 1,28,-1
 544 940 l 1,29,30
 405 922 405 922 309 800 c 128,-1,31
 213 678 213 678 213 510 c 0,32,33
 213 343 213 343 309 221 c 128,-1,34
 405 99 405 99 544 81 c 1,28,-1
EndSplineSet
EndChar

StartChar: sterling
Encoding: 163 163 101
Width: 1033
GlyphClass: 2
Flags: W
LayerCount: 2
Fore
SplineSet
724 701 m 1,0,-1
 438 701 l 1,1,2
 440 671 440 671 440 611 c 0,3,4
 440 452 440 452 393.5 322 c 128,-1,5
 347 192 347 192 233 90 c 1,6,-1
 965 90 l 1,7,-1
 933 0 l 1,8,-1
 96 0 l 1,9,-1
 72 83 l 1,10,11
 156 131 156 131 213 190.5 c 128,-1,12
 270 250 270 250 300.5 318.5 c 128,-1,13
 331 387 331 387 343.5 455.5 c 128,-1,14
 356 524 356 524 356 607 c 0,15,16
 356 665 356 665 352 696 c 1,17,-1
 83 696 l 1,18,-1
 114 786 l 1,19,-1
 342 786 l 1,20,21
 339 814 339 814 320.5 969.5 c 128,-1,22
 302 1125 302 1125 302 1200 c 0,23,24
 302 1271 302 1271 330 1330.5 c 128,-1,25
 358 1390 358 1390 404.5 1429 c 128,-1,26
 451 1468 451 1468 509 1489.5 c 128,-1,27
 567 1511 567 1511 628 1511 c 0,28,29
 748 1511 748 1511 839 1432 c 128,-1,30
 930 1353 930 1353 951 1202 c 1,31,-1
 893 1191 l 1,32,33
 877 1304 877 1304 801.5 1364 c 128,-1,34
 726 1424 726 1424 628 1424 c 0,35,36
 532 1424 532 1424 459.5 1363.5 c 128,-1,37
 387 1303 387 1303 387 1202 c 0,38,39
 387 1150 387 1150 394 1084.5 c 128,-1,40
 401 1019 401 1019 413 929.5 c 128,-1,41
 425 840 425 840 430 790 c 1,42,-1
 752 790 l 1,43,-1
 724 701 l 1,0,-1
EndSplineSet
EndChar

StartChar: currency
Encoding: 164 164 102
Width: 1301
GlyphClass: 2
Flags: W
LayerCount: 2
Fore
SplineSet
1155 1191 m 1,0,-1
 996 1030 l 1,1,2
 1085 917 1085 917 1085 763 c 128,-1,3
 1085 609 1085 609 991 493 c 1,4,-1
 1162 320 l 1,5,-1
 1100 258 l 1,6,-1
 929 427 l 1,7,8
 807 331 807 331 656 331 c 0,9,10
 501 331 501 331 383 427 c 1,11,-1
 205 252 l 1,12,-1
 143 316 l 1,13,-1
 320 491 l 1,14,15
 224 608 224 608 224 761 c 0,16,17
 224 916 224 916 320 1036 c 1,18,-1
 164 1191 l 1,19,-1
 226 1254 l 1,20,-1
 383 1100 l 1,21,22
 505 1194 505 1194 651 1194 c 0,23,24
 804 1194 804 1194 925 1092 c 1,25,-1
 1092 1254 l 1,26,-1
 1155 1191 l 1,0,-1
314 763 m 128,-1,28
 314 622 314 622 413.5 522.5 c 128,-1,29
 513 423 513 423 654 423 c 128,-1,30
 795 423 795 423 894.5 522.5 c 128,-1,31
 994 622 994 622 994 763 c 128,-1,32
 994 904 994 904 894.5 1004 c 128,-1,33
 795 1104 795 1104 654 1104 c 128,-1,34
 513 1104 513 1104 413.5 1004 c 128,-1,27
 314 904 314 904 314 763 c 128,-1,28
EndSplineSet
EndChar

StartChar: yen
Encoding: 165 165 103
Width: 1228
GlyphClass: 2
Flags: W
LayerCount: 2
Fore
SplineSet
1012 495 m 1,0,-1
 1012 401 l 1,1,-1
 660 401 l 1,2,-1
 660 0 l 1,3,-1
 571 0 l 1,4,-1
 571 401 l 1,5,-1
 208 401 l 1,6,-1
 208 495 l 1,7,-1
 571 495 l 1,8,-1
 571 645 l 1,9,-1
 213 645 l 1,10,-1
 213 741 l 1,11,-1
 510 741 l 1,12,-1
 36 1493 l 1,13,-1
 141 1493 l 1,14,-1
 615 741 l 1,15,-1
 1090 1493 l 1,16,-1
 1194 1493 l 1,17,-1
 718 741 l 1,18,-1
 1021 741 l 1,19,-1
 1021 645 l 1,20,-1
 660 645 l 1,21,-1
 660 495 l 1,22,-1
 1012 495 l 1,0,-1
EndSplineSet
EndChar

StartChar: brokenbar
Encoding: 166 166 104
Width: 422
GlyphClass: 2
Flags: W
LayerCount: 2
Fore
SplineSet
258 716 m 1,0,-1
 168 716 l 1,1,-1
 168 1523 l 1,2,-1
 258 1523 l 1,3,-1
 258 716 l 1,0,-1
258 -508 m 1,4,-1
 168 -508 l 1,5,-1
 168 297 l 1,6,-1
 258 297 l 1,7,-1
 258 -508 l 1,4,-1
EndSplineSet
EndChar

StartChar: section
Encoding: 167 167 105
Width: 897
GlyphClass: 2
Flags: W
LayerCount: 2
Fore
SplineSet
124 173 m 1,0,-1
 213 173 l 1,1,2
 227 60 227 60 291.5 7.5 c 128,-1,3
 356 -45 356 -45 446 -45 c 0,4,5
 541 -45 541 -45 612 16 c 128,-1,6
 683 77 683 77 683 177 c 0,7,8
 683 234 683 234 652 277 c 128,-1,9
 621 320 621 320 572 347.5 c 128,-1,10
 523 375 523 375 463 399 c 128,-1,11
 403 423 403 423 343.5 450.5 c 128,-1,12
 284 478 284 478 235 512.5 c 128,-1,13
 186 547 186 547 155 603.5 c 128,-1,14
 124 660 124 660 124 734 c 0,15,16
 124 885 124 885 239 974 c 1,17,18
 124 1053 124 1053 124 1198 c 0,19,20
 124 1334 124 1334 220.5 1420 c 128,-1,21
 317 1506 317 1506 450 1506 c 0,22,23
 571 1506 571 1506 662.5 1430 c 128,-1,24
 754 1354 754 1354 777 1202 c 1,25,-1
 683 1202 l 1,26,27
 668 1310 668 1310 605 1363.5 c 128,-1,28
 542 1417 542 1417 455 1417 c 0,29,30
 357 1417 357 1417 286 1357 c 128,-1,31
 215 1297 215 1297 215 1198 c 0,32,33
 215 1147 215 1147 239 1107.5 c 128,-1,34
 263 1068 263 1068 302.5 1043 c 128,-1,35
 342 1018 342 1018 392.5 993.5 c 128,-1,36
 443 969 443 969 496 950 c 128,-1,37
 549 931 549 931 599.5 903 c 128,-1,38
 650 875 650 875 689.5 843 c 128,-1,39
 729 811 729 811 753 759.5 c 128,-1,40
 777 708 777 708 777 643 c 0,41,42
 777 496 777 496 660 403 c 1,43,44
 777 322 777 322 777 179 c 0,45,46
 777 42 777 42 678.5 -46 c 128,-1,47
 580 -134 580 -134 448 -134 c 0,48,49
 328 -134 328 -134 236 -56.5 c 128,-1,50
 144 21 144 21 124 173 c 1,0,-1
687 643 m 0,51,52
 687 682 687 682 670 715.5 c 128,-1,53
 653 749 653 749 629 771 c 128,-1,54
 605 793 605 793 564 816 c 128,-1,55
 523 839 523 839 489.5 852.5 c 128,-1,56
 456 866 456 866 404 887 c 128,-1,57
 352 908 352 908 322 922 c 1,58,59
 213 859 213 859 213 737 c 0,60,61
 213 688 213 688 233 650.5 c 128,-1,62
 253 613 253 613 295.5 584.5 c 128,-1,63
 338 556 338 556 374.5 538.5 c 128,-1,64
 411 521 411 521 476 495.5 c 128,-1,65
 541 470 541 470 573 455 c 1,66,67
 687 518 687 518 687 643 c 0,51,52
EndSplineSet
EndChar

StartChar: dieresis
Encoding: 168 168 106
Width: 767
GlyphClass: 2
Flags: W
LayerCount: 2
Fore
SplineSet
124 1292 m 128,-1,1
 124 1326 124 1326 148 1351.5 c 128,-1,2
 172 1377 172 1377 205 1377 c 0,3,4
 239 1377 239 1377 264 1351.5 c 128,-1,5
 289 1326 289 1326 289 1292 c 128,-1,6
 289 1258 289 1258 264 1233.5 c 128,-1,7
 239 1209 239 1209 205 1209 c 0,8,9
 172 1209 172 1209 148 1233.5 c 128,-1,0
 124 1258 124 1258 124 1292 c 128,-1,1
481 1292 m 128,-1,11
 481 1326 481 1326 505.5 1351.5 c 128,-1,12
 530 1377 530 1377 564 1377 c 128,-1,13
 598 1377 598 1377 622.5 1351.5 c 128,-1,14
 647 1326 647 1326 647 1292 c 128,-1,15
 647 1258 647 1258 622.5 1233.5 c 128,-1,16
 598 1209 598 1209 564 1209 c 128,-1,17
 530 1209 530 1209 505.5 1233.5 c 128,-1,10
 481 1258 481 1258 481 1292 c 128,-1,11
EndSplineSet
EndChar

StartChar: copyright
Encoding: 169 169 107
Width: 1758
GlyphClass: 2
Flags: W
LayerCount: 2
Fore
SplineSet
880 1506 m 128,-1,1
 1034 1506 1034 1506 1174.5 1446 c 128,-1,2
 1315 1386 1315 1386 1416.5 1284 c 128,-1,3
 1518 1182 1518 1182 1578 1041 c 128,-1,4
 1638 900 1638 900 1638 745 c 128,-1,5
 1638 590 1638 590 1578 449.5 c 128,-1,6
 1518 309 1518 309 1416.5 207 c 128,-1,7
 1315 105 1315 105 1174.5 45 c 128,-1,8
 1034 -15 1034 -15 880 -15 c 128,-1,9
 726 -15 726 -15 586 45 c 128,-1,10
 446 105 446 105 345 207 c 128,-1,11
 244 309 244 309 184 449.5 c 128,-1,12
 124 590 124 590 124 745 c 128,-1,13
 124 900 124 900 184 1041 c 128,-1,14
 244 1182 244 1182 345 1284 c 128,-1,15
 446 1386 446 1386 586 1446 c 128,-1,0
 726 1506 726 1506 880 1506 c 128,-1,1
213 745 m 0,16,17
 213 609 213 609 265.5 485 c 128,-1,18
 318 361 318 361 407 271 c 128,-1,19
 496 181 496 181 620 127.5 c 128,-1,20
 744 74 744 74 880 74 c 0,21,22
 1017 74 1017 74 1141 127.5 c 128,-1,23
 1265 181 1265 181 1354 271 c 128,-1,24
 1443 361 1443 361 1496 485 c 128,-1,25
 1549 609 1549 609 1549 745 c 0,26,27
 1549 928 1549 928 1460 1082.5 c 128,-1,28
 1371 1237 1371 1237 1216.5 1327 c 128,-1,29
 1062 1417 1062 1417 880 1417 c 128,-1,30
 698 1417 698 1417 544.5 1327 c 128,-1,31
 391 1237 391 1237 302 1082.5 c 128,-1,32
 213 928 213 928 213 745 c 0,16,17
1128 562 m 1,33,-1
 1207 517 l 1,34,35
 1155 422 1155 422 1068.5 367 c 128,-1,36
 982 312 982 312 878 312 c 0,37,38
 716 312 716 312 604.5 438.5 c 128,-1,39
 493 565 493 565 493 743 c 128,-1,40
 493 921 493 921 604.5 1048 c 128,-1,41
 716 1175 716 1175 878 1175 c 0,42,43
 982 1175 982 1175 1068.5 1119 c 128,-1,44
 1155 1063 1155 1063 1207 969 c 1,45,-1
 1128 925 l 1,46,47
 1087 1000 1087 1000 1021.5 1042.5 c 128,-1,48
 956 1085 956 1085 878 1085 c 0,49,50
 756 1085 756 1085 668.5 986 c 128,-1,51
 581 887 581 887 581 743 c 128,-1,52
 581 599 581 599 669 500 c 128,-1,53
 757 401 757 401 878 401 c 0,54,55
 956 401 956 401 1021.5 444 c 128,-1,56
 1087 487 1087 487 1128 562 c 1,33,-1
EndSplineSet
EndChar

StartChar: ordfeminine
Encoding: 170 170 108
Width: 872
GlyphClass: 2
Flags: W
LayerCount: 2
Fore
SplineSet
645 938 m 1,0,-1
 645 1000 l 1,1,2
 551 1032 551 1032 436 1032 c 0,3,4
 332 1032 332 1032 265.5 992.5 c 128,-1,5
 199 953 199 953 199 861 c 0,6,7
 199 784 199 784 252 741 c 128,-1,8
 305 698 305 698 385 698 c 0,9,10
 438 698 438 698 487 723.5 c 128,-1,11
 536 749 536 749 568.5 786.5 c 128,-1,12
 601 824 601 824 621 864.5 c 128,-1,13
 641 905 641 905 645 938 c 1,0,-1
213 1164 m 1,14,-1
 150 1200 l 1,15,16
 192 1274 192 1274 261.5 1318.5 c 128,-1,17
 331 1363 331 1363 412 1363 c 0,18,19
 546 1363 546 1363 637 1272.5 c 128,-1,20
 728 1182 728 1182 728 1032 c 2,21,-1
 728 822 l 2,22,23
 728 733 728 733 752 638 c 1,24,-1
 671 620 l 1,25,26
 653 694 653 694 647 797 c 1,27,28
 606 721 606 721 538.5 670.5 c 128,-1,29
 471 620 471 620 385 620 c 0,30,31
 271 620 271 620 197.5 686.5 c 128,-1,32
 124 753 124 753 124 861 c 0,33,34
 124 924 124 924 149 970.5 c 128,-1,35
 174 1017 174 1017 217.5 1043.5 c 128,-1,36
 261 1070 261 1070 313 1082 c 128,-1,37
 365 1094 365 1094 427 1094 c 0,38,39
 546 1094 546 1094 645 1057 c 1,40,41
 638 1164 638 1164 571 1227 c 128,-1,42
 504 1290 504 1290 406 1290 c 0,43,44
 348 1290 348 1290 297.5 1256.5 c 128,-1,45
 247 1223 247 1223 213 1164 c 1,14,-1
EndSplineSet
EndChar

StartChar: guillemotleft
Encoding: 171 171 109
Width: 874
GlyphClass: 2
Flags: W
LayerCount: 2
Fore
SplineSet
707 867 m 1,0,-1
 818 867 l 1,1,-1
 562 508 l 1,2,-1
 818 150 l 1,3,-1
 707 150 l 1,4,-1
 450 508 l 1,5,-1
 707 867 l 1,0,-1
378 867 m 1,6,-1
 491 867 l 1,7,-1
 233 508 l 1,8,-1
 491 150 l 1,9,-1
 378 150 l 1,10,-1
 124 508 l 1,11,-1
 378 867 l 1,6,-1
EndSplineSet
EndChar

StartChar: logicalnot
Encoding: 172 172 110
Width: 1393
GlyphClass: 2
Flags: W
LayerCount: 2
Fore
SplineSet
1273 912 m 1,0,-1
 1273 359 l 1,1,-1
 1184 359 l 1,2,-1
 1184 822 l 1,3,-1
 124 822 l 1,4,-1
 124 912 l 1,5,-1
 1273 912 l 1,0,-1
EndSplineSet
EndChar

StartChar: uni00AD
Encoding: 173 173 111
Width: 1036
GlyphClass: 2
Flags: W
LayerCount: 2
Fore
SplineSet
916 553 m 1,0,-1
 916 463 l 1,1,-1
 124 463 l 1,2,-1
 124 553 l 1,3,-1
 916 553 l 1,0,-1
EndSplineSet
EndChar

StartChar: registered
Encoding: 174 174 112
Width: 1758
GlyphClass: 2
Flags: W
LayerCount: 2
Fore
SplineSet
1224 314 m 1,0,-1
 1119 314 l 1,1,-1
 914 692 l 1,2,-1
 726 692 l 1,3,-1
 726 314 l 1,4,-1
 636 314 l 1,5,-1
 636 1179 l 1,6,-1
 938 1179 l 2,7,8
 1035 1179 1035 1179 1104 1106.5 c 128,-1,9
 1173 1034 1173 1034 1173 933 c 0,10,11
 1173 854 1173 854 1127 790.5 c 128,-1,12
 1081 727 1081 727 1010 705 c 1,13,-1
 1224 314 l 1,0,-1
213 745 m 0,14,15
 213 609 213 609 265.5 485 c 128,-1,16
 318 361 318 361 407 271 c 128,-1,17
 496 181 496 181 620 127.5 c 128,-1,18
 744 74 744 74 880 74 c 0,19,20
 1017 74 1017 74 1141 127.5 c 128,-1,21
 1265 181 1265 181 1354 271 c 128,-1,22
 1443 361 1443 361 1496 485 c 128,-1,23
 1549 609 1549 609 1549 745 c 0,24,25
 1549 928 1549 928 1460 1082.5 c 128,-1,26
 1371 1237 1371 1237 1216.5 1327 c 128,-1,27
 1062 1417 1062 1417 880 1417 c 128,-1,28
 698 1417 698 1417 544.5 1327 c 128,-1,29
 391 1237 391 1237 302 1082.5 c 128,-1,30
 213 928 213 928 213 745 c 0,14,15
880 1506 m 128,-1,32
 1034 1506 1034 1506 1174.5 1446 c 128,-1,33
 1315 1386 1315 1386 1416.5 1284 c 128,-1,34
 1518 1182 1518 1182 1578 1041 c 128,-1,35
 1638 900 1638 900 1638 745 c 128,-1,36
 1638 590 1638 590 1578 449.5 c 128,-1,37
 1518 309 1518 309 1416.5 207 c 128,-1,38
 1315 105 1315 105 1174.5 45 c 128,-1,39
 1034 -15 1034 -15 880 -15 c 128,-1,40
 726 -15 726 -15 586 45 c 128,-1,41
 446 105 446 105 345 207 c 128,-1,42
 244 309 244 309 184 449.5 c 128,-1,43
 124 590 124 590 124 745 c 128,-1,44
 124 900 124 900 184 1041 c 128,-1,45
 244 1182 244 1182 345 1284 c 128,-1,46
 446 1386 446 1386 586 1446 c 128,-1,31
 726 1506 726 1506 880 1506 c 128,-1,32
726 781 m 1,47,-1
 940 781 l 2,48,49
 999 781 999 781 1041 825 c 128,-1,50
 1083 869 1083 869 1083 933 c 0,51,52
 1083 999 1083 999 1041 1044.5 c 128,-1,53
 999 1090 999 1090 938 1090 c 2,54,-1
 726 1090 l 1,55,-1
 726 781 l 1,47,-1
EndSplineSet
EndChar

StartChar: macron
Encoding: 175 175 113
Width: 856
GlyphClass: 2
Flags: W
LayerCount: 2
Fore
SplineSet
737 1298 m 1,0,-1
 737 1209 l 1,1,-1
 124 1209 l 1,2,-1
 124 1298 l 1,3,-1
 737 1298 l 1,0,-1
EndSplineSet
EndChar

StartChar: degree
Encoding: 176 176 114
Width: 749
GlyphClass: 2
Flags: W
LayerCount: 2
Fore
SplineSet
376 1719 m 128,-1,1
 481 1719 481 1719 554.5 1645 c 128,-1,2
 628 1571 628 1571 628 1466 c 0,3,4
 628 1360 628 1360 554.5 1285.5 c 128,-1,5
 481 1211 481 1211 376 1211 c 128,-1,6
 271 1211 271 1211 197.5 1285.5 c 128,-1,7
 124 1360 124 1360 124 1466 c 0,8,9
 124 1571 124 1571 197.5 1645 c 128,-1,0
 271 1719 271 1719 376 1719 c 128,-1,1
215 1466 m 128,-1,11
 215 1399 215 1399 262 1352 c 128,-1,12
 309 1305 309 1305 376 1305 c 128,-1,13
 443 1305 443 1305 490.5 1352 c 128,-1,14
 538 1399 538 1399 538 1466 c 128,-1,15
 538 1533 538 1533 490.5 1580 c 128,-1,16
 443 1627 443 1627 376 1627 c 128,-1,17
 309 1627 309 1627 262 1580 c 128,-1,10
 215 1533 215 1533 215 1466 c 128,-1,11
EndSplineSet
EndChar

StartChar: plusminus
Encoding: 177 177 115
Width: 1036
GlyphClass: 2
Flags: W
LayerCount: 2
Fore
SplineSet
916 90 m 1,0,-1
 916 0 l 1,1,-1
 124 0 l 1,2,-1
 124 90 l 1,3,-1
 916 90 l 1,0,-1
564 349 m 1,4,-1
 474 349 l 1,5,-1
 474 701 l 1,6,-1
 124 701 l 1,7,-1
 124 790 l 1,8,-1
 474 790 l 1,9,-1
 474 1144 l 1,10,-1
 564 1144 l 1,11,-1
 564 790 l 1,12,-1
 916 790 l 1,13,-1
 916 701 l 1,14,-1
 564 701 l 1,15,-1
 564 349 l 1,4,-1
EndSplineSet
EndChar

StartChar: uni00B2
Encoding: 178 178 116
Width: 883
GlyphClass: 2
Flags: W
LayerCount: 2
Fore
SplineSet
741 925 m 1,0,-1
 124 922 l 1,1,-1
 124 967 l 2,2,3
 124 1036 124 1036 154 1096 c 128,-1,4
 184 1156 184 1156 232 1200 c 128,-1,5
 280 1244 280 1244 338 1284 c 128,-1,6
 396 1324 396 1324 454.5 1360 c 128,-1,7
 513 1396 513 1396 561 1432.5 c 128,-1,8
 609 1469 609 1469 639 1514.5 c 128,-1,9
 669 1560 669 1560 669 1610 c 0,10,11
 669 1708 669 1708 608 1776.5 c 128,-1,12
 547 1845 547 1845 463 1845 c 128,-1,13
 379 1845 379 1845 318.5 1777 c 128,-1,14
 258 1709 258 1709 258 1610 c 1,15,-1
 168 1610 l 1,16,17
 168 1742 168 1742 254.5 1838 c 128,-1,18
 341 1934 341 1934 466 1934 c 128,-1,19
 591 1934 591 1934 677 1839.5 c 128,-1,20
 763 1745 763 1745 763 1612 c 0,21,22
 763 1551 763 1551 736 1498 c 128,-1,23
 709 1445 709 1445 665.5 1404.5 c 128,-1,24
 622 1364 622 1364 568.5 1327.5 c 128,-1,25
 515 1291 515 1291 459 1256 c 128,-1,26
 403 1221 403 1221 355 1186 c 128,-1,27
 307 1151 307 1151 271 1106.5 c 128,-1,28
 235 1062 235 1062 224 1014 c 1,29,-1
 741 1014 l 1,30,-1
 741 925 l 1,0,-1
EndSplineSet
EndChar

StartChar: uni00B3
Encoding: 179 179 117
Width: 870
GlyphClass: 2
Flags: W
LayerCount: 2
Fore
SplineSet
278 1683 m 1,0,-1
 188 1683 l 1,1,2
 188 1786 188 1786 260 1858.5 c 128,-1,3
 332 1931 332 1931 436 1931 c 0,4,5
 539 1931 539 1931 611 1858.5 c 128,-1,6
 683 1786 683 1786 683 1683 c 0,7,8
 683 1567 683 1567 589 1495 c 1,9,10
 661 1454 661 1454 705.5 1382 c 128,-1,11
 750 1310 750 1310 750 1224 c 0,12,13
 750 1094 750 1094 658 1003 c 128,-1,14
 566 912 566 912 436 912 c 128,-1,15
 306 912 306 912 215 1003 c 128,-1,16
 124 1094 124 1094 124 1224 c 1,17,-1
 213 1224 l 1,18,19
 213 1131 213 1131 279 1063.5 c 128,-1,20
 345 996 345 996 438 996 c 0,21,22
 532 996 532 996 598.5 1063.5 c 128,-1,23
 665 1131 665 1131 665 1224 c 0,24,25
 665 1318 665 1318 599 1384 c 128,-1,26
 533 1450 533 1450 438 1450 c 1,27,-1
 438 1540 l 1,28,29
 507 1540 507 1540 553.5 1579.5 c 128,-1,30
 600 1619 600 1619 600 1683 c 0,31,32
 600 1749 600 1749 552.5 1796 c 128,-1,33
 505 1843 505 1843 438 1843 c 128,-1,34
 371 1843 371 1843 324.5 1796 c 128,-1,35
 278 1749 278 1749 278 1683 c 1,0,-1
EndSplineSet
EndChar

StartChar: acute
Encoding: 180 180 118
Width: 630
GlyphClass: 2
Flags: W
LayerCount: 2
Fore
SplineSet
430 1551 m 1,0,-1
 598 1551 l 1,1,-1
 312 1194 l 1,2,-1
 203 1194 l 1,3,-1
 430 1551 l 1,0,-1
EndSplineSet
EndChar

StartChar: uni00B5
Encoding: 181 181 119
Width: 1066
GlyphClass: 2
Flags: W
LayerCount: 2
Fore
SplineSet
168 1014 m 1,0,-1
 258 1014 l 1,1,-1
 258 393 l 2,2,3
 258 262 258 262 337 171.5 c 128,-1,4
 416 81 416 81 530 81 c 0,5,6
 646 81 646 81 729 172 c 128,-1,7
 812 263 812 263 812 393 c 2,8,-1
 812 1014 l 1,9,-1
 902 1014 l 1,10,-1
 902 393 l 2,11,12
 902 227 902 227 795 109 c 128,-1,13
 688 -9 688 -9 534 -9 c 0,14,15
 451 -9 451 -9 379 27.5 c 128,-1,16
 307 64 307 64 258 128 c 1,17,-1
 258 -305 l 2,18,19
 258 -396 258 -396 295 -468 c 1,20,-1
 218 -510 l 1,21,22
 168 -416 168 -416 168 -307 c 2,23,-1
 168 1014 l 1,0,-1
EndSplineSet
EndChar

StartChar: paragraph
Encoding: 182 182 120
Width: 1260
GlyphClass: 2
Flags: W
LayerCount: 2
Fore
SplineSet
857 -248 m 1,0,-1
 767 -248 l 1,1,-1
 767 448 l 1,2,-1
 745 448 l 2,3,4
 625 448 625 448 522.5 477 c 128,-1,5
 420 506 420 506 348 556 c 128,-1,6
 276 606 276 606 224.5 672.5 c 128,-1,7
 173 739 173 739 148.5 814 c 128,-1,8
 124 889 124 889 124 969 c 0,9,10
 124 1070 124 1070 164 1162.5 c 128,-1,11
 204 1255 204 1255 279 1329.5 c 128,-1,12
 354 1404 354 1404 475 1448.5 c 128,-1,13
 596 1493 596 1493 745 1493 c 2,14,-1
 1094 1493 l 1,15,-1
 1094 -248 l 1,16,-1
 1006 -248 l 1,17,-1
 1006 1403 l 1,18,-1
 857 1403 l 1,19,-1
 857 -248 l 1,0,-1
EndSplineSet
EndChar

StartChar: periodcentered
Encoding: 183 183 121
Width: 498
GlyphClass: 2
Flags: W
LayerCount: 2
Fore
SplineSet
168 745 m 0,0,1
 168 779 168 779 192.5 805 c 128,-1,2
 217 831 217 831 250 831 c 128,-1,3
 283 831 283 831 308 805 c 128,-1,4
 333 779 333 779 333 745 c 0,5,6
 333 712 333 712 308.5 687 c 128,-1,7
 284 662 284 662 250 662 c 0,8,9
 217 662 217 662 192.5 687 c 128,-1,10
 168 712 168 712 168 745 c 0,0,1
EndSplineSet
EndChar

StartChar: cedilla
Encoding: 184 184 122
Width: 624
GlyphClass: 2
Flags: W
LayerCount: 2
Fore
SplineSet
316 0 m 1,0,-1
 401 0 l 1,1,-1
 346 -96 l 1,2,3
 483 -119 483 -119 483 -244 c 0,4,5
 483 -314 483 -314 430 -357.5 c 128,-1,6
 377 -401 377 -401 297 -401 c 0,7,8
 220 -401 220 -401 143 -352 c 1,9,-1
 190 -278 l 1,10,11
 241 -312 241 -312 297 -312 c 0,12,13
 342 -312 342 -312 367.5 -292 c 128,-1,14
 393 -272 393 -272 393 -244 c 0,15,16
 393 -215 393 -215 362.5 -197.5 c 128,-1,17
 332 -180 332 -180 286 -173 c 2,18,-1
 222 -164 l 1,19,-1
 316 0 l 1,0,-1
EndSplineSet
EndChar

StartChar: uni00B9
Encoding: 185 185 123
Width: 782
GlyphClass: 2
Flags: W
LayerCount: 2
Fore
SplineSet
419 925 m 1,0,-1
 419 1758 l 1,1,-1
 297 1677 l 1,2,-1
 248 1753 l 1,3,-1
 504 1927 l 1,4,-1
 504 925 l 1,5,-1
 419 925 l 1,0,-1
EndSplineSet
EndChar

StartChar: ordmasculine
Encoding: 186 186 124
Width: 923
GlyphClass: 2
Flags: W
LayerCount: 2
Fore
SplineSet
463 1298 m 128,-1,1
 604 1298 604 1298 703.5 1199 c 128,-1,2
 803 1100 803 1100 803 959 c 128,-1,3
 803 818 803 818 703.5 718 c 128,-1,4
 604 618 604 618 463 618 c 128,-1,5
 322 618 322 618 223 718 c 128,-1,6
 124 818 124 818 124 959 c 128,-1,7
 124 1100 124 1100 223 1199 c 128,-1,0
 322 1298 322 1298 463 1298 c 128,-1,1
213 959 m 0,8,9
 213 853 213 853 286 779 c 128,-1,10
 359 705 359 705 463 705 c 0,11,12
 566 705 566 705 640 779.5 c 128,-1,13
 714 854 714 854 714 959 c 128,-1,14
 714 1064 714 1064 640 1137.5 c 128,-1,15
 566 1211 566 1211 463 1211 c 0,16,17
 359 1211 359 1211 286 1137.5 c 128,-1,18
 213 1064 213 1064 213 959 c 0,8,9
EndSplineSet
EndChar

StartChar: guillemotright
Encoding: 187 187 125
Width: 874
GlyphClass: 2
Flags: W
LayerCount: 2
Fore
SplineSet
124 867 m 1,0,-1
 233 867 l 1,1,-1
 491 508 l 1,2,-1
 233 150 l 1,3,-1
 124 150 l 1,4,-1
 378 508 l 1,5,-1
 124 867 l 1,0,-1
450 867 m 1,6,-1
 562 867 l 1,7,-1
 818 508 l 1,8,-1
 562 150 l 1,9,-1
 450 150 l 1,10,-1
 707 508 l 1,11,-1
 450 867 l 1,6,-1
EndSplineSet
EndChar

StartChar: onequarter
Encoding: 188 188 126
Width: 1848
GlyphClass: 3
Flags: W
LayerCount: 2
Fore
SplineSet
1424 1493 m 1,0,-1
 1533 1493 l 1,1,-1
 474 0 l 1,2,-1
 365 0 l 1,3,-1
 1424 1493 l 1,0,-1
1471 252 m 1,4,-1
 1471 761 l 1,5,-1
 1085 252 l 1,6,-1
 1471 252 l 1,4,-1
305 504 m 1,7,-1
 305 1337 l 1,8,-1
 188 1256 l 1,9,-1
 137 1332 l 1,10,-1
 393 1506 l 1,11,-1
 393 504 l 1,12,-1
 305 504 l 1,7,-1
1471 161 m 1,13,-1
 904 161 l 1,14,-1
 1558 1023 l 1,15,-1
 1558 252 l 1,16,-1
 1701 252 l 1,17,-1
 1672 161 l 1,18,-1
 1560 161 l 1,19,-1
 1560 0 l 1,20,-1
 1471 0 l 1,21,-1
 1471 161 l 1,13,-1
EndSplineSet
Ligature2: "'frac' Diagonal Fractions in Latin lookup 1 subtable" one fraction four
Ligature2: "'frac' Diagonal Fractions in Latin lookup 1 subtable" one slash four
EndChar

StartChar: onehalf
Encoding: 189 189 127
Width: 1848
GlyphClass: 3
Flags: W
LayerCount: 2
Fore
SplineSet
1690 90 m 1,0,-1
 1690 0 l 1,1,-1
 1072 0 l 1,2,-1
 1072 43 l 2,3,4
 1072 112 1072 112 1102 172 c 128,-1,5
 1132 232 1132 232 1180.5 276 c 128,-1,6
 1229 320 1229 320 1287.5 359.5 c 128,-1,7
 1346 399 1346 399 1404 435 c 128,-1,8
 1462 471 1462 471 1510.5 507 c 128,-1,9
 1559 543 1559 543 1589 588 c 128,-1,10
 1619 633 1619 633 1619 683 c 0,11,12
 1619 783 1619 783 1557.5 851.5 c 128,-1,13
 1496 920 1496 920 1412 920 c 128,-1,14
 1328 920 1328 920 1267.5 851.5 c 128,-1,15
 1207 783 1207 783 1207 683 c 1,16,-1
 1117 683 l 1,17,18
 1117 816 1117 816 1203.5 913 c 128,-1,19
 1290 1010 1290 1010 1414 1010 c 0,20,21
 1539 1010 1539 1010 1626 914.5 c 128,-1,22
 1713 819 1713 819 1713 687 c 0,23,24
 1713 626 1713 626 1686 572.5 c 128,-1,25
 1659 519 1659 519 1615 479 c 128,-1,26
 1571 439 1571 439 1517.5 402 c 128,-1,27
 1464 365 1464 365 1408 330.5 c 128,-1,28
 1352 296 1352 296 1303.5 261 c 128,-1,29
 1255 226 1255 226 1219.5 182 c 128,-1,30
 1184 138 1184 138 1173 90 c 1,31,-1
 1690 90 l 1,0,-1
1332 1493 m 1,32,-1
 1442 1493 l 1,33,-1
 383 0 l 1,34,-1
 271 0 l 1,35,-1
 1332 1493 l 1,32,-1
305 504 m 1,36,-1
 305 1337 l 1,37,-1
 188 1256 l 1,38,-1
 137 1332 l 1,39,-1
 393 1506 l 1,40,-1
 393 504 l 1,41,-1
 305 504 l 1,36,-1
EndSplineSet
Ligature2: "'frac' Diagonal Fractions in Latin lookup 1 subtable" one fraction two
Ligature2: "'frac' Diagonal Fractions in Latin lookup 1 subtable" one slash two
EndChar

StartChar: threequarters
Encoding: 190 190 128
Width: 1848
GlyphClass: 3
Flags: W
LayerCount: 2
Fore
SplineSet
105 799 m 1,0,-1
 195 799 l 1,1,2
 195 704 195 704 260.5 638.5 c 128,-1,3
 326 573 326 573 421 573 c 0,4,5
 515 573 515 573 581 639 c 128,-1,6
 647 705 647 705 647 799 c 0,7,8
 647 894 647 894 581 960.5 c 128,-1,9
 515 1027 515 1027 421 1027 c 1,10,-1
 421 1117 l 1,11,12
 489 1117 489 1117 535 1156.5 c 128,-1,13
 581 1196 581 1196 581 1260 c 128,-1,14
 581 1324 581 1324 534 1370.5 c 128,-1,15
 487 1417 487 1417 421 1417 c 0,16,17
 354 1417 354 1417 307 1370.5 c 128,-1,18
 260 1324 260 1324 260 1260 c 1,19,-1
 171 1260 l 1,20,21
 171 1363 171 1363 243 1434.5 c 128,-1,22
 315 1506 315 1506 419 1506 c 0,23,24
 521 1506 521 1506 593 1434.5 c 128,-1,25
 665 1363 665 1363 665 1260 c 0,26,27
 665 1142 665 1142 571 1072 c 1,28,29
 643 1031 643 1031 687.5 958 c 128,-1,30
 732 885 732 885 732 799 c 0,31,32
 732 669 732 669 640 577 c 128,-1,33
 548 485 548 485 419 485 c 0,34,35
 288 485 288 485 196.5 577 c 128,-1,36
 105 669 105 669 105 799 c 1,0,-1
1542 1493 m 1,37,-1
 1654 1493 l 1,38,-1
 593 0 l 1,39,-1
 483 0 l 1,40,-1
 1542 1493 l 1,37,-1
1531 252 m 1,41,-1
 1531 761 l 1,42,-1
 1147 252 l 1,43,-1
 1531 252 l 1,41,-1
1531 164 m 1,44,-1
 965 164 l 1,45,-1
 1619 1027 l 1,46,-1
 1619 252 l 1,47,-1
 1762 252 l 1,48,-1
 1730 164 l 1,49,-1
 1621 164 l 1,50,-1
 1621 0 l 1,51,-1
 1531 0 l 1,52,-1
 1531 164 l 1,44,-1
EndSplineSet
Ligature2: "'frac' Diagonal Fractions in Latin lookup 1 subtable" three fraction four
Ligature2: "'frac' Diagonal Fractions in Latin lookup 1 subtable" three slash four
EndChar

StartChar: questiondown
Encoding: 191 191 129
Width: 1036
GlyphClass: 2
Flags: W
LayerCount: 2
Fore
SplineSet
634 947 m 0,0,1
 634 913 634 913 608 887 c 128,-1,2
 582 861 582 861 549 861 c 128,-1,3
 516 861 516 861 491 887 c 128,-1,4
 466 913 466 913 466 947 c 0,5,6
 466 980 466 980 490.5 1005 c 128,-1,7
 515 1030 515 1030 549 1030 c 0,8,9
 582 1030 582 1030 608 1005 c 128,-1,10
 634 980 634 980 634 947 c 0,0,1
502 707 m 1,11,-1
 591 707 l 1,12,-1
 591 557 l 2,13,14
 591 486 591 486 570 421 c 128,-1,15
 549 356 549 356 516 306 c 128,-1,16
 483 256 483 256 442.5 210 c 128,-1,17
 402 164 402 164 361.5 123.5 c 128,-1,18
 321 83 321 83 288 45.5 c 128,-1,19
 255 8 255 8 234 -33.5 c 128,-1,20
 213 -75 213 -75 213 -116 c 0,21,22
 213 -242 213 -242 295 -322.5 c 128,-1,23
 377 -403 377 -403 500 -403 c 0,24,25
 569 -403 569 -403 631 -377.5 c 128,-1,26
 693 -352 693 -352 735 -310.5 c 128,-1,27
 777 -269 777 -269 801.5 -218 c 128,-1,28
 826 -167 826 -167 826 -116 c 1,29,-1
 916 -116 l 1,30,31
 916 -214 916 -214 861 -300.5 c 128,-1,32
 806 -387 806 -387 709.5 -440 c 128,-1,33
 613 -493 613 -493 500 -493 c 0,34,35
 338 -493 338 -493 231 -386 c 128,-1,36
 124 -279 124 -279 124 -116 c 0,37,38
 124 -64 124 -64 145 -14 c 128,-1,39
 166 36 166 36 199 77.5 c 128,-1,40
 232 119 232 119 272.5 160.5 c 128,-1,41
 313 202 313 202 353.5 245.5 c 128,-1,42
 394 289 394 289 427 334.5 c 128,-1,43
 460 380 460 380 481 437.5 c 128,-1,44
 502 495 502 495 502 557 c 2,45,-1
 502 707 l 1,11,-1
EndSplineSet
EndChar

StartChar: Agrave
Encoding: 192 192 130
Width: 1322
GlyphClass: 2
Flags: W
LayerCount: 2
Fore
SplineSet
365 1878 m 1,0,-1
 534 1878 l 1,1,-1
 759 1612 l 1,2,-1
 665 1612 l 1,3,-1
 365 1878 l 1,0,-1
365 553 m 1,4,-1
 967 553 l 1,5,-1
 665 1278 l 1,6,-1
 365 553 l 1,4,-1
1003 463 m 1,7,-1
 322 463 l 1,8,-1
 132 0 l 1,9,-1
 36 0 l 1,10,-1
 662 1511 l 1,11,-1
 1290 0 l 1,12,-1
 1194 0 l 1,13,-1
 1003 463 l 1,7,-1
EndSplineSet
EndChar

StartChar: Aacute
Encoding: 193 193 131
Width: 1322
GlyphClass: 2
Flags: W
LayerCount: 2
Fore
SplineSet
799 1878 m 1,0,-1
 969 1878 l 1,1,-1
 669 1612 l 1,2,-1
 575 1612 l 1,3,-1
 799 1878 l 1,0,-1
365 553 m 1,4,-1
 967 553 l 1,5,-1
 665 1278 l 1,6,-1
 365 553 l 1,4,-1
1003 463 m 1,7,-1
 322 463 l 1,8,-1
 132 0 l 1,9,-1
 36 0 l 1,10,-1
 662 1511 l 1,11,-1
 1290 0 l 1,12,-1
 1194 0 l 1,13,-1
 1003 463 l 1,7,-1
EndSplineSet
EndChar

StartChar: Acircumflex
Encoding: 194 194 132
Width: 1322
GlyphClass: 2
Flags: W
LayerCount: 2
Fore
SplineSet
634 1878 m 1,0,-1
 698 1878 l 1,1,-1
 940 1612 l 1,2,-1
 818 1612 l 1,3,-1
 665 1775 l 1,4,-1
 513 1612 l 1,5,-1
 391 1612 l 1,6,-1
 634 1878 l 1,0,-1
365 553 m 1,7,-1
 967 553 l 1,8,-1
 665 1278 l 1,9,-1
 365 553 l 1,7,-1
1003 463 m 1,10,-1
 322 463 l 1,11,-1
 132 0 l 1,12,-1
 36 0 l 1,13,-1
 662 1511 l 1,14,-1
 1290 0 l 1,15,-1
 1194 0 l 1,16,-1
 1003 463 l 1,10,-1
EndSplineSet
EndChar

StartChar: Atilde
Encoding: 195 195 133
Width: 1322
GlyphClass: 2
Flags: W
LayerCount: 2
Fore
SplineSet
459 1612 m 1,0,-1
 403 1612 l 1,1,2
 404 1646 404 1646 408.5 1672 c 128,-1,3
 413 1698 413 1698 425.5 1728.5 c 128,-1,4
 438 1759 438 1759 464.5 1776 c 128,-1,5
 491 1793 491 1793 530 1793 c 0,6,7
 576 1793 576 1793 627 1766 c 128,-1,8
 678 1739 678 1739 720.5 1712 c 128,-1,9
 763 1685 763 1685 788 1685 c 0,10,11
 794 1685 794 1685 802.5 1689 c 128,-1,12
 811 1693 811 1693 822.5 1702 c 128,-1,13
 834 1711 834 1711 842 1731 c 128,-1,14
 850 1751 850 1751 850 1779 c 1,15,-1
 912 1779 l 1,16,17
 912 1596 912 1596 786 1596 c 0,18,19
 745 1596 745 1596 696 1623 c 128,-1,20
 647 1650 647 1650 602 1677 c 128,-1,21
 557 1704 557 1704 528 1704 c 0,22,23
 503 1704 503 1704 482.5 1684 c 128,-1,24
 462 1664 462 1664 459 1612 c 1,0,-1
365 553 m 1,25,-1
 967 553 l 1,26,-1
 665 1278 l 1,27,-1
 365 553 l 1,25,-1
1003 463 m 1,28,-1
 322 463 l 1,29,-1
 132 0 l 1,30,-1
 36 0 l 1,31,-1
 662 1511 l 1,32,-1
 1290 0 l 1,33,-1
 1194 0 l 1,34,-1
 1003 463 l 1,28,-1
EndSplineSet
EndChar

StartChar: Adieresis
Encoding: 196 196 134
Width: 1322
GlyphClass: 2
Flags: W
LayerCount: 2
Fore
SplineSet
403 1694 m 128,-1,1
 403 1728 403 1728 427.5 1753.5 c 128,-1,2
 452 1779 452 1779 485 1779 c 0,3,4
 519 1779 519 1779 545 1753.5 c 128,-1,5
 571 1728 571 1728 571 1694 c 0,6,7
 571 1661 571 1661 545 1636.5 c 128,-1,8
 519 1612 519 1612 485 1612 c 128,-1,9
 451 1612 451 1612 427 1636 c 128,-1,0
 403 1660 403 1660 403 1694 c 128,-1,1
761 1694 m 128,-1,11
 761 1728 761 1728 785.5 1753.5 c 128,-1,12
 810 1779 810 1779 844 1779 c 128,-1,13
 878 1779 878 1779 903.5 1753.5 c 128,-1,14
 929 1728 929 1728 929 1694 c 0,15,16
 929 1661 929 1661 903.5 1636.5 c 128,-1,17
 878 1612 878 1612 844 1612 c 128,-1,18
 810 1612 810 1612 785.5 1636 c 128,-1,10
 761 1660 761 1660 761 1694 c 128,-1,11
365 553 m 1,19,-1
 967 553 l 1,20,-1
 665 1278 l 1,21,-1
 365 553 l 1,19,-1
1003 463 m 1,22,-1
 322 463 l 1,23,-1
 132 0 l 1,24,-1
 36 0 l 1,25,-1
 662 1511 l 1,26,-1
 1290 0 l 1,27,-1
 1194 0 l 1,28,-1
 1003 463 l 1,22,-1
EndSplineSet
EndChar

StartChar: Aring
Encoding: 197 197 135
Width: 1322
GlyphClass: 2
Flags: W
LayerCount: 2
Fore
SplineSet
660 2025 m 128,-1,1
 750 2025 750 2025 812.5 1963 c 128,-1,2
 875 1901 875 1901 875 1811 c 0,3,4
 875 1722 875 1722 812 1659 c 128,-1,5
 749 1596 749 1596 660 1596 c 0,6,7
 570 1596 570 1596 508 1658.5 c 128,-1,8
 446 1721 446 1721 446 1811 c 128,-1,9
 446 1901 446 1901 508 1963 c 128,-1,0
 570 2025 570 2025 660 2025 c 128,-1,1
534 1811 m 0,10,11
 534 1760 534 1760 571 1722.5 c 128,-1,12
 608 1685 608 1685 660 1685 c 0,13,14
 711 1685 711 1685 748.5 1722.5 c 128,-1,15
 786 1760 786 1760 786 1811 c 0,16,17
 786 1863 786 1863 748.5 1900 c 128,-1,18
 711 1937 711 1937 660 1937 c 0,19,20
 608 1937 608 1937 571 1900 c 128,-1,21
 534 1863 534 1863 534 1811 c 0,10,11
365 553 m 1,22,-1
 967 553 l 1,23,-1
 665 1278 l 1,24,-1
 365 553 l 1,22,-1
1003 463 m 1,25,-1
 322 463 l 1,26,-1
 132 0 l 1,27,-1
 36 0 l 1,28,-1
 662 1511 l 1,29,-1
 1290 0 l 1,30,-1
 1194 0 l 1,31,-1
 1003 463 l 1,25,-1
EndSplineSet
EndChar

StartChar: AE
Encoding: 198 198 136
Width: 1542
GlyphClass: 2
Flags: W
LayerCount: 2
Fore
SplineSet
1424 912 m 1,0,-1
 1424 822 l 1,1,-1
 914 822 l 1,2,-1
 1047 90 l 1,3,-1
 1506 90 l 1,4,-1
 1506 0 l 1,5,-1
 974 0 l 1,6,-1
 886 463 l 1,7,-1
 322 463 l 1,8,-1
 132 0 l 1,9,-1
 36 0 l 1,10,-1
 654 1493 l 1,11,-1
 1484 1493 l 1,12,-1
 1484 1403 l 1,13,-1
 806 1403 l 1,14,-1
 895 912 l 1,15,-1
 1424 912 l 1,0,-1
361 553 m 1,16,-1
 871 553 l 1,17,-1
 716 1403 l 1,18,-1
 714 1403 l 1,19,-1
 361 553 l 1,16,-1
EndSplineSet
EndChar

StartChar: Ccedilla
Encoding: 199 199 137
Width: 1613
GlyphClass: 2
Flags: W
LayerCount: 2
Fore
SplineSet
1417 346 m 1,0,-1
 1493 295 l 1,1,2
 1392 160 1392 160 1243 78.5 c 128,-1,3
 1094 -3 1094 -3 922 -11 c 1,4,-1
 875 -92 l 1,5,6
 1012 -116 1012 -116 1012 -242 c 0,7,8
 1012 -310 1012 -310 959 -353 c 128,-1,9
 906 -396 906 -396 826 -396 c 0,10,11
 744 -396 744 -396 671 -349 c 1,12,-1
 718 -275 l 1,13,14
 770 -307 770 -307 826 -307 c 0,15,16
 870 -307 870 -307 896 -288.5 c 128,-1,17
 922 -270 922 -270 922 -242 c 0,18,19
 922 -187 922 -187 814 -171 c 2,20,-1
 750 -161 l 1,21,-1
 839 -9 l 1,22,23
 691 -2 691 -2 558.5 61 c 128,-1,24
 426 124 426 124 330.5 224.5 c 128,-1,25
 235 325 235 325 179.5 462.5 c 128,-1,26
 124 600 124 600 124 750 c 0,27,28
 124 905 124 905 184 1046 c 128,-1,29
 244 1187 244 1187 345 1289 c 128,-1,30
 446 1391 446 1391 586 1451 c 128,-1,31
 726 1511 726 1511 880 1511 c 0,32,33
 1064 1511 1064 1511 1224 1427.5 c 128,-1,34
 1384 1344 1384 1344 1489 1200 c 1,35,-1
 1417 1147 l 1,36,37
 1324 1272 1324 1272 1183.5 1344.5 c 128,-1,38
 1043 1417 1043 1417 880 1417 c 0,39,40
 698 1417 698 1417 544.5 1327 c 128,-1,41
 391 1237 391 1237 302 1082.5 c 128,-1,42
 213 928 213 928 213 745 c 0,43,44
 213 609 213 609 265.5 485 c 128,-1,45
 318 361 318 361 407 271 c 128,-1,46
 496 181 496 181 620 127.5 c 128,-1,47
 744 74 744 74 880 74 c 0,48,49
 1043 74 1043 74 1183.5 147 c 128,-1,50
 1324 220 1324 220 1417 346 c 1,0,-1
EndSplineSet
EndChar

StartChar: Egrave
Encoding: 200 200 138
Width: 1094
GlyphClass: 2
Flags: W
LayerCount: 2
Fore
SplineSet
302 1878 m 1,0,-1
 472 1878 l 1,1,-1
 696 1612 l 1,2,-1
 602 1612 l 1,3,-1
 302 1878 l 1,0,-1
974 912 m 1,4,-1
 974 822 l 1,5,-1
 258 822 l 1,6,-1
 258 90 l 1,7,-1
 1032 90 l 1,8,-1
 1032 0 l 1,9,-1
 168 0 l 1,10,-1
 168 1493 l 1,11,-1
 1036 1493 l 1,12,-1
 1036 1403 l 1,13,-1
 258 1403 l 1,14,-1
 258 912 l 1,15,-1
 974 912 l 1,4,-1
EndSplineSet
EndChar

StartChar: Eacute
Encoding: 201 201 139
Width: 1094
GlyphClass: 2
Flags: W
LayerCount: 2
Fore
SplineSet
822 1878 m 1,0,-1
 519 1612 l 1,1,-1
 427 1612 l 1,2,-1
 651 1878 l 1,3,-1
 822 1878 l 1,0,-1
974 912 m 1,4,-1
 974 822 l 1,5,-1
 258 822 l 1,6,-1
 258 90 l 1,7,-1
 1032 90 l 1,8,-1
 1032 0 l 1,9,-1
 168 0 l 1,10,-1
 168 1493 l 1,11,-1
 1036 1493 l 1,12,-1
 1036 1403 l 1,13,-1
 258 1403 l 1,14,-1
 258 912 l 1,15,-1
 974 912 l 1,4,-1
EndSplineSet
EndChar

StartChar: Ecircumflex
Encoding: 202 202 140
Width: 1094
GlyphClass: 2
Flags: W
LayerCount: 2
Fore
SplineSet
716 1612 m 1,0,-1
 562 1775 l 1,1,-1
 410 1612 l 1,2,-1
 286 1612 l 1,3,-1
 528 1878 l 1,4,-1
 598 1878 l 1,5,-1
 839 1612 l 1,6,-1
 716 1612 l 1,0,-1
974 912 m 1,7,-1
 974 822 l 1,8,-1
 258 822 l 1,9,-1
 258 90 l 1,10,-1
 1032 90 l 1,11,-1
 1032 0 l 1,12,-1
 168 0 l 1,13,-1
 168 1493 l 1,14,-1
 1036 1493 l 1,15,-1
 1036 1403 l 1,16,-1
 258 1403 l 1,17,-1
 258 912 l 1,18,-1
 974 912 l 1,7,-1
EndSplineSet
EndChar

StartChar: Edieresis
Encoding: 203 203 141
Width: 1094
GlyphClass: 2
Flags: W
LayerCount: 2
Fore
SplineSet
297 1694 m 0,0,1
 297 1728 297 1728 323 1753.5 c 128,-1,2
 349 1779 349 1779 383 1779 c 0,3,4
 416 1779 416 1779 441 1753.5 c 128,-1,5
 466 1728 466 1728 466 1694 c 0,6,7
 466 1661 466 1661 441 1636.5 c 128,-1,8
 416 1612 416 1612 383 1612 c 0,9,10
 349 1612 349 1612 323 1636.5 c 128,-1,11
 297 1661 297 1661 297 1694 c 0,0,1
656 1694 m 0,12,13
 656 1728 656 1728 681.5 1753.5 c 128,-1,14
 707 1779 707 1779 741 1779 c 128,-1,15
 775 1779 775 1779 799.5 1753.5 c 128,-1,16
 824 1728 824 1728 824 1694 c 128,-1,17
 824 1660 824 1660 799.5 1636 c 128,-1,18
 775 1612 775 1612 741 1612 c 128,-1,19
 707 1612 707 1612 681.5 1636.5 c 128,-1,20
 656 1661 656 1661 656 1694 c 0,12,13
974 912 m 1,21,-1
 974 822 l 1,22,-1
 258 822 l 1,23,-1
 258 90 l 1,24,-1
 1032 90 l 1,25,-1
 1032 0 l 1,26,-1
 168 0 l 1,27,-1
 168 1493 l 1,28,-1
 1036 1493 l 1,29,-1
 1036 1403 l 1,30,-1
 258 1403 l 1,31,-1
 258 912 l 1,32,-1
 974 912 l 1,21,-1
EndSplineSet
EndChar

StartChar: Igrave
Encoding: 204 204 142
Width: 422
GlyphClass: 2
Flags: W
LayerCount: 2
Fore
SplineSet
-90 1878 m 1,0,-1
 81 1878 l 1,1,-1
 305 1612 l 1,2,-1
 213 1612 l 1,3,-1
 -90 1878 l 1,0,-1
258 0 m 1,4,-1
 168 0 l 1,5,-1
 168 1493 l 1,6,-1
 258 1493 l 1,7,-1
 258 0 l 1,4,-1
EndSplineSet
EndChar

StartChar: Iacute
Encoding: 205 205 143
Width: 422
GlyphClass: 2
Flags: W
LayerCount: 2
Fore
SplineSet
513 1878 m 1,0,-1
 213 1612 l 1,1,-1
 119 1612 l 1,2,-1
 342 1878 l 1,3,-1
 513 1878 l 1,0,-1
258 0 m 1,4,-1
 168 0 l 1,5,-1
 168 1493 l 1,6,-1
 258 1493 l 1,7,-1
 258 0 l 1,4,-1
EndSplineSet
EndChar

StartChar: Icircumflex
Encoding: 206 206 144
Width: 422
GlyphClass: 2
Flags: W
LayerCount: 2
Fore
SplineSet
365 1612 m 1,0,-1
 208 1775 l 1,1,-1
 56 1612 l 1,2,-1
 -64 1612 l 1,3,-1
 177 1878 l 1,4,-1
 244 1878 l 1,5,-1
 485 1612 l 1,6,-1
 365 1612 l 1,0,-1
258 0 m 1,7,-1
 168 0 l 1,8,-1
 168 1493 l 1,9,-1
 258 1493 l 1,10,-1
 258 0 l 1,7,-1
EndSplineSet
EndChar

StartChar: Idieresis
Encoding: 207 207 145
Width: 422
GlyphClass: 2
Flags: W
LayerCount: 2
Fore
SplineSet
-54 1694 m 128,-1,1
 -54 1728 -54 1728 -29 1753.5 c 128,-1,2
 -4 1779 -4 1779 30 1779 c 0,3,4
 63 1779 63 1779 88.5 1753.5 c 128,-1,5
 114 1728 114 1728 114 1694 c 0,6,7
 114 1661 114 1661 88.5 1636.5 c 128,-1,8
 63 1612 63 1612 30 1612 c 0,9,10
 -4 1612 -4 1612 -29 1636 c 128,-1,0
 -54 1660 -54 1660 -54 1694 c 128,-1,1
305 1694 m 128,-1,12
 305 1728 305 1728 329.5 1753.5 c 128,-1,13
 354 1779 354 1779 387 1779 c 0,14,15
 421 1779 421 1779 446.5 1753.5 c 128,-1,16
 472 1728 472 1728 472 1694 c 0,17,18
 472 1661 472 1661 446.5 1636.5 c 128,-1,19
 421 1612 421 1612 387 1612 c 128,-1,20
 353 1612 353 1612 329 1636 c 128,-1,11
 305 1660 305 1660 305 1694 c 128,-1,12
258 0 m 1,21,-1
 168 0 l 1,22,-1
 168 1493 l 1,23,-1
 258 1493 l 1,24,-1
 258 0 l 1,21,-1
EndSplineSet
EndChar

StartChar: Eth
Encoding: 208 208 146
Width: 1346
GlyphClass: 2
Flags: W
LayerCount: 2
Fore
SplineSet
258 90 m 1,0,-1
 468 90 l 2,1,2
 651 90 651 90 804.5 176 c 128,-1,3
 958 262 958 262 1047.5 413 c 128,-1,4
 1137 564 1137 564 1137 745 c 0,5,6
 1137 928 1137 928 1047.5 1079.5 c 128,-1,7
 958 1231 958 1231 804.5 1317 c 128,-1,8
 651 1403 651 1403 468 1403 c 2,9,-1
 258 1403 l 1,10,-1
 258 790 l 1,11,-1
 698 790 l 1,12,-1
 698 701 l 1,13,-1
 258 701 l 1,14,-1
 258 90 l 1,0,-1
168 790 m 1,15,-1
 168 1493 l 1,16,-1
 468 1493 l 2,17,18
 622 1493 622 1493 762 1435 c 128,-1,19
 902 1377 902 1377 1004 1277.5 c 128,-1,20
 1106 1178 1106 1178 1166 1039 c 128,-1,21
 1226 900 1226 900 1226 745 c 0,22,23
 1226 539 1226 539 1124 367.5 c 128,-1,24
 1022 196 1022 196 848 98 c 128,-1,25
 674 0 674 0 468 0 c 2,26,-1
 168 0 l 1,27,-1
 168 701 l 1,28,-1
 9 701 l 1,29,-1
 9 790 l 1,30,-1
 168 790 l 1,15,-1
EndSplineSet
EndChar

StartChar: Ntilde
Encoding: 209 209 147
Width: 1678
GlyphClass: 2
Flags: W
LayerCount: 2
Fore
SplineSet
168 0 m 1,0,-1
 168 1511 l 1,1,-1
 1424 202 l 1,2,-1
 1424 1493 l 1,3,-1
 1513 1493 l 1,4,-1
 1513 -17 l 1,5,-1
 258 1290 l 1,6,-1
 258 0 l 1,7,-1
 168 0 l 1,0,-1
638 1612 m 1,8,-1
 581 1612 l 1,9,10
 583 1647 583 1647 587.5 1672.5 c 128,-1,11
 592 1698 592 1698 604.5 1728.5 c 128,-1,12
 617 1759 617 1759 643.5 1776 c 128,-1,13
 670 1793 670 1793 709 1793 c 0,14,15
 756 1793 756 1793 806.5 1766 c 128,-1,16
 857 1739 857 1739 899 1712 c 128,-1,17
 941 1685 941 1685 967 1685 c 0,18,19
 973 1685 973 1685 982 1689 c 128,-1,20
 991 1693 991 1693 1002.5 1702 c 128,-1,21
 1014 1711 1014 1711 1022 1731 c 128,-1,22
 1030 1751 1030 1751 1030 1779 c 1,23,-1
 1090 1779 l 1,24,25
 1090 1596 1090 1596 965 1596 c 0,26,27
 924 1596 924 1596 875 1623 c 128,-1,28
 826 1650 826 1650 781 1677 c 128,-1,29
 736 1704 736 1704 707 1704 c 0,30,31
 683 1704 683 1704 662 1684 c 128,-1,32
 641 1664 641 1664 638 1612 c 1,8,-1
EndSplineSet
EndChar

StartChar: Ograve
Encoding: 210 210 148
Width: 1758
GlyphClass: 2
Flags: W
LayerCount: 2
Fore
SplineSet
880 1506 m 128,-1,1
 1034 1506 1034 1506 1174.5 1446 c 128,-1,2
 1315 1386 1315 1386 1416.5 1284 c 128,-1,3
 1518 1182 1518 1182 1578 1041 c 128,-1,4
 1638 900 1638 900 1638 745 c 128,-1,5
 1638 590 1638 590 1578 449.5 c 128,-1,6
 1518 309 1518 309 1416.5 207 c 128,-1,7
 1315 105 1315 105 1174.5 45 c 128,-1,8
 1034 -15 1034 -15 880 -15 c 128,-1,9
 726 -15 726 -15 586 45 c 128,-1,10
 446 105 446 105 345 207 c 128,-1,11
 244 309 244 309 184 449.5 c 128,-1,12
 124 590 124 590 124 745 c 128,-1,13
 124 900 124 900 184 1041 c 128,-1,14
 244 1182 244 1182 345 1284 c 128,-1,15
 446 1386 446 1386 586 1446 c 128,-1,0
 726 1506 726 1506 880 1506 c 128,-1,1
213 745 m 0,16,17
 213 609 213 609 265.5 485 c 128,-1,18
 318 361 318 361 407 271 c 128,-1,19
 496 181 496 181 620 127.5 c 128,-1,20
 744 74 744 74 880 74 c 0,21,22
 1017 74 1017 74 1141 127.5 c 128,-1,23
 1265 181 1265 181 1354 271 c 128,-1,24
 1443 361 1443 361 1496 485 c 128,-1,25
 1549 609 1549 609 1549 745 c 0,26,27
 1549 928 1549 928 1460 1082.5 c 128,-1,28
 1371 1237 1371 1237 1216.5 1327 c 128,-1,29
 1062 1417 1062 1417 880 1417 c 128,-1,30
 698 1417 698 1417 544.5 1327 c 128,-1,31
 391 1237 391 1237 302 1082.5 c 128,-1,32
 213 928 213 928 213 745 c 0,16,17
495 1878 m 1,33,-1
 665 1878 l 1,34,-1
 889 1612 l 1,35,-1
 797 1612 l 1,36,-1
 495 1878 l 1,33,-1
EndSplineSet
EndChar

StartChar: Oacute
Encoding: 211 211 149
Width: 1758
GlyphClass: 2
Flags: W
LayerCount: 2
Fore
SplineSet
1243 1878 m 1,0,-1
 940 1612 l 1,1,-1
 848 1612 l 1,2,-1
 1072 1878 l 1,3,-1
 1243 1878 l 1,0,-1
880 1506 m 128,-1,5
 1034 1506 1034 1506 1174.5 1446 c 128,-1,6
 1315 1386 1315 1386 1416.5 1284 c 128,-1,7
 1518 1182 1518 1182 1578 1041 c 128,-1,8
 1638 900 1638 900 1638 745 c 128,-1,9
 1638 590 1638 590 1578 449.5 c 128,-1,10
 1518 309 1518 309 1416.5 207 c 128,-1,11
 1315 105 1315 105 1174.5 45 c 128,-1,12
 1034 -15 1034 -15 880 -15 c 128,-1,13
 726 -15 726 -15 586 45 c 128,-1,14
 446 105 446 105 345 207 c 128,-1,15
 244 309 244 309 184 449.5 c 128,-1,16
 124 590 124 590 124 745 c 128,-1,17
 124 900 124 900 184 1041 c 128,-1,18
 244 1182 244 1182 345 1284 c 128,-1,19
 446 1386 446 1386 586 1446 c 128,-1,4
 726 1506 726 1506 880 1506 c 128,-1,5
213 745 m 0,20,21
 213 609 213 609 265.5 485 c 128,-1,22
 318 361 318 361 407 271 c 128,-1,23
 496 181 496 181 620 127.5 c 128,-1,24
 744 74 744 74 880 74 c 0,25,26
 1017 74 1017 74 1141 127.5 c 128,-1,27
 1265 181 1265 181 1354 271 c 128,-1,28
 1443 361 1443 361 1496 485 c 128,-1,29
 1549 609 1549 609 1549 745 c 0,30,31
 1549 928 1549 928 1460 1082.5 c 128,-1,32
 1371 1237 1371 1237 1216.5 1327 c 128,-1,33
 1062 1417 1062 1417 880 1417 c 128,-1,34
 698 1417 698 1417 544.5 1327 c 128,-1,35
 391 1237 391 1237 302 1082.5 c 128,-1,36
 213 928 213 928 213 745 c 0,20,21
EndSplineSet
EndChar

StartChar: Ocircumflex
Encoding: 212 212 150
Width: 1758
GlyphClass: 2
Flags: W
LayerCount: 2
Fore
SplineSet
1036 1612 m 1,0,-1
 880 1775 l 1,1,-1
 728 1612 l 1,2,-1
 607 1612 l 1,3,-1
 848 1878 l 1,4,-1
 916 1878 l 1,5,-1
 1157 1612 l 1,6,-1
 1036 1612 l 1,0,-1
880 1506 m 128,-1,8
 1034 1506 1034 1506 1174.5 1446 c 128,-1,9
 1315 1386 1315 1386 1416.5 1284 c 128,-1,10
 1518 1182 1518 1182 1578 1041 c 128,-1,11
 1638 900 1638 900 1638 745 c 128,-1,12
 1638 590 1638 590 1578 449.5 c 128,-1,13
 1518 309 1518 309 1416.5 207 c 128,-1,14
 1315 105 1315 105 1174.5 45 c 128,-1,15
 1034 -15 1034 -15 880 -15 c 128,-1,16
 726 -15 726 -15 586 45 c 128,-1,17
 446 105 446 105 345 207 c 128,-1,18
 244 309 244 309 184 449.5 c 128,-1,19
 124 590 124 590 124 745 c 128,-1,20
 124 900 124 900 184 1041 c 128,-1,21
 244 1182 244 1182 345 1284 c 128,-1,22
 446 1386 446 1386 586 1446 c 128,-1,7
 726 1506 726 1506 880 1506 c 128,-1,8
213 745 m 0,23,24
 213 609 213 609 265.5 485 c 128,-1,25
 318 361 318 361 407 271 c 128,-1,26
 496 181 496 181 620 127.5 c 128,-1,27
 744 74 744 74 880 74 c 0,28,29
 1017 74 1017 74 1141 127.5 c 128,-1,30
 1265 181 1265 181 1354 271 c 128,-1,31
 1443 361 1443 361 1496 485 c 128,-1,32
 1549 609 1549 609 1549 745 c 0,33,34
 1549 928 1549 928 1460 1082.5 c 128,-1,35
 1371 1237 1371 1237 1216.5 1327 c 128,-1,36
 1062 1417 1062 1417 880 1417 c 128,-1,37
 698 1417 698 1417 544.5 1327 c 128,-1,38
 391 1237 391 1237 302 1082.5 c 128,-1,39
 213 928 213 928 213 745 c 0,23,24
EndSplineSet
EndChar

StartChar: Otilde
Encoding: 213 213 151
Width: 1758
GlyphClass: 2
Flags: W
LayerCount: 2
Fore
SplineSet
683 1612 m 1,0,-1
 626 1612 l 1,1,2
 631 1793 631 1793 754 1793 c 0,3,4
 800 1793 800 1793 850.5 1766 c 128,-1,5
 901 1739 901 1739 943.5 1712 c 128,-1,6
 986 1685 986 1685 1012 1685 c 0,7,8
 1018 1685 1018 1685 1026.5 1689 c 128,-1,9
 1035 1693 1035 1693 1046.5 1702 c 128,-1,10
 1058 1711 1058 1711 1066 1731 c 128,-1,11
 1074 1751 1074 1751 1074 1779 c 1,12,-1
 1135 1779 l 1,13,14
 1135 1596 1135 1596 1010 1596 c 0,15,16
 969 1596 969 1596 920 1623 c 128,-1,17
 871 1650 871 1650 826 1677 c 128,-1,18
 781 1704 781 1704 752 1704 c 0,19,20
 727 1704 727 1704 706.5 1684 c 128,-1,21
 686 1664 686 1664 683 1612 c 1,0,-1
880 1506 m 128,-1,23
 1034 1506 1034 1506 1174.5 1446 c 128,-1,24
 1315 1386 1315 1386 1416.5 1284 c 128,-1,25
 1518 1182 1518 1182 1578 1041 c 128,-1,26
 1638 900 1638 900 1638 745 c 128,-1,27
 1638 590 1638 590 1578 449.5 c 128,-1,28
 1518 309 1518 309 1416.5 207 c 128,-1,29
 1315 105 1315 105 1174.5 45 c 128,-1,30
 1034 -15 1034 -15 880 -15 c 128,-1,31
 726 -15 726 -15 586 45 c 128,-1,32
 446 105 446 105 345 207 c 128,-1,33
 244 309 244 309 184 449.5 c 128,-1,34
 124 590 124 590 124 745 c 128,-1,35
 124 900 124 900 184 1041 c 128,-1,36
 244 1182 244 1182 345 1284 c 128,-1,37
 446 1386 446 1386 586 1446 c 128,-1,22
 726 1506 726 1506 880 1506 c 128,-1,23
213 745 m 0,38,39
 213 609 213 609 265.5 485 c 128,-1,40
 318 361 318 361 407 271 c 128,-1,41
 496 181 496 181 620 127.5 c 128,-1,42
 744 74 744 74 880 74 c 0,43,44
 1017 74 1017 74 1141 127.5 c 128,-1,45
 1265 181 1265 181 1354 271 c 128,-1,46
 1443 361 1443 361 1496 485 c 128,-1,47
 1549 609 1549 609 1549 745 c 0,48,49
 1549 928 1549 928 1460 1082.5 c 128,-1,50
 1371 1237 1371 1237 1216.5 1327 c 128,-1,51
 1062 1417 1062 1417 880 1417 c 128,-1,52
 698 1417 698 1417 544.5 1327 c 128,-1,53
 391 1237 391 1237 302 1082.5 c 128,-1,54
 213 928 213 928 213 745 c 0,38,39
EndSplineSet
EndChar

StartChar: Odieresis
Encoding: 214 214 152
Width: 1758
GlyphClass: 2
Flags: W
LayerCount: 2
Fore
SplineSet
618 1694 m 128,-1,1
 618 1728 618 1728 642.5 1753.5 c 128,-1,2
 667 1779 667 1779 701 1779 c 0,3,4
 734 1779 734 1779 760 1753.5 c 128,-1,5
 786 1728 786 1728 786 1694 c 0,6,7
 786 1661 786 1661 760 1636.5 c 128,-1,8
 734 1612 734 1612 701 1612 c 0,9,10
 667 1612 667 1612 642.5 1636 c 128,-1,0
 618 1660 618 1660 618 1694 c 128,-1,1
976 1694 m 128,-1,12
 976 1728 976 1728 1000.5 1753.5 c 128,-1,13
 1025 1779 1025 1779 1059 1779 c 128,-1,14
 1093 1779 1093 1779 1118.5 1753.5 c 128,-1,15
 1144 1728 1144 1728 1144 1694 c 0,16,17
 1144 1661 1144 1661 1118.5 1636.5 c 128,-1,18
 1093 1612 1093 1612 1059 1612 c 128,-1,19
 1025 1612 1025 1612 1000.5 1636 c 128,-1,11
 976 1660 976 1660 976 1694 c 128,-1,12
880 1506 m 128,-1,21
 1034 1506 1034 1506 1174.5 1446 c 128,-1,22
 1315 1386 1315 1386 1416.5 1284 c 128,-1,23
 1518 1182 1518 1182 1578 1041 c 128,-1,24
 1638 900 1638 900 1638 745 c 128,-1,25
 1638 590 1638 590 1578 449.5 c 128,-1,26
 1518 309 1518 309 1416.5 207 c 128,-1,27
 1315 105 1315 105 1174.5 45 c 128,-1,28
 1034 -15 1034 -15 880 -15 c 128,-1,29
 726 -15 726 -15 586 45 c 128,-1,30
 446 105 446 105 345 207 c 128,-1,31
 244 309 244 309 184 449.5 c 128,-1,32
 124 590 124 590 124 745 c 128,-1,33
 124 900 124 900 184 1041 c 128,-1,34
 244 1182 244 1182 345 1284 c 128,-1,35
 446 1386 446 1386 586 1446 c 128,-1,20
 726 1506 726 1506 880 1506 c 128,-1,21
213 745 m 0,36,37
 213 609 213 609 265.5 485 c 128,-1,38
 318 361 318 361 407 271 c 128,-1,39
 496 181 496 181 620 127.5 c 128,-1,40
 744 74 744 74 880 74 c 0,41,42
 1017 74 1017 74 1141 127.5 c 128,-1,43
 1265 181 1265 181 1354 271 c 128,-1,44
 1443 361 1443 361 1496 485 c 128,-1,45
 1549 609 1549 609 1549 745 c 0,46,47
 1549 928 1549 928 1460 1082.5 c 128,-1,48
 1371 1237 1371 1237 1216.5 1327 c 128,-1,49
 1062 1417 1062 1417 880 1417 c 128,-1,50
 698 1417 698 1417 544.5 1327 c 128,-1,51
 391 1237 391 1237 302 1082.5 c 128,-1,52
 213 928 213 928 213 745 c 0,36,37
EndSplineSet
EndChar

StartChar: multiply
Encoding: 215 215 153
Width: 1066
GlyphClass: 2
Flags: W
LayerCount: 2
Fore
SplineSet
996 349 m 1,0,-1
 869 349 l 1,1,-1
 538 681 l 1,2,-1
 213 349 l 1,3,-1
 87 349 l 1,4,-1
 474 743 l 1,5,-1
 72 1144 l 1,6,-1
 199 1144 l 1,7,-1
 538 806 l 1,8,-1
 869 1144 l 1,9,-1
 994 1144 l 1,10,-1
 600 743 l 1,11,-1
 996 349 l 1,0,-1
EndSplineSet
EndChar

StartChar: Oslash
Encoding: 216 216 154
Width: 1756
GlyphClass: 2
Flags: W
LayerCount: 2
Fore
SplineSet
378 -114 m 1,0,-1
 305 -64 l 1,1,-1
 432 132 l 1,2,3
 289 236 289 236 206.5 397.5 c 128,-1,4
 124 559 124 559 124 745 c 0,5,6
 124 900 124 900 184 1041 c 128,-1,7
 244 1182 244 1182 345 1284 c 128,-1,8
 446 1386 446 1386 586 1446 c 128,-1,9
 726 1506 726 1506 880 1506 c 0,10,11
 1092 1506 1092 1506 1269 1399 c 1,12,-1
 1403 1605 l 1,13,-1
 1478 1558 l 1,14,-1
 1341 1350 l 1,15,16
 1478 1242 1478 1242 1557 1084 c 128,-1,17
 1636 926 1636 926 1636 745 c 0,18,19
 1636 590 1636 590 1576 449.5 c 128,-1,20
 1516 309 1516 309 1414.5 207 c 128,-1,21
 1313 105 1313 105 1172.5 45 c 128,-1,22
 1032 -15 1032 -15 878 -15 c 0,23,24
 679 -15 679 -15 508 83 c 1,25,-1
 378 -114 l 1,0,-1
1292 1273 m 1,26,-1
 557 158 l 1,27,28
 711 74 711 74 880 74 c 0,29,30
 1017 74 1017 74 1141 127.5 c 128,-1,31
 1265 181 1265 181 1354 271 c 128,-1,32
 1443 361 1443 361 1496 485 c 128,-1,33
 1549 609 1549 609 1549 745 c 0,34,35
 1549 904 1549 904 1480 1042.5 c 128,-1,36
 1411 1181 1411 1181 1292 1273 c 1,26,-1
483 205 m 1,37,-1
 1218 1325 l 1,38,39
 1069 1417 1069 1417 880 1417 c 0,40,41
 698 1417 698 1417 544.5 1327 c 128,-1,42
 391 1237 391 1237 302 1082.5 c 128,-1,43
 213 928 213 928 213 745 c 0,44,45
 213 584 213 584 285.5 442 c 128,-1,46
 358 300 358 300 483 205 c 1,37,-1
EndSplineSet
EndChar

StartChar: Ugrave
Encoding: 217 217 155
Width: 1393
GlyphClass: 2
Flags: W
LayerCount: 2
Fore
SplineSet
352 1878 m 1,0,-1
 521 1878 l 1,1,-1
 745 1612 l 1,2,-1
 654 1612 l 1,3,-1
 352 1878 l 1,0,-1
168 1493 m 1,4,-1
 258 1493 l 1,5,-1
 258 566 l 2,6,7
 258 431 258 431 319 317 c 128,-1,8
 380 203 380 203 481.5 138.5 c 128,-1,9
 583 74 583 74 701 74 c 128,-1,10
 819 74 819 74 919.5 138.5 c 128,-1,11
 1020 203 1020 203 1079.5 316.5 c 128,-1,12
 1139 430 1139 430 1139 566 c 2,13,-1
 1139 1493 l 1,14,-1
 1229 1493 l 1,15,-1
 1229 566 l 2,16,17
 1229 409 1229 409 1158.5 275.5 c 128,-1,18
 1088 142 1088 142 965.5 63.5 c 128,-1,19
 843 -15 843 -15 698 -15 c 128,-1,20
 553 -15 553 -15 431 63.5 c 128,-1,21
 309 142 309 142 238.5 275.5 c 128,-1,22
 168 409 168 409 168 566 c 2,23,-1
 168 1493 l 1,4,-1
EndSplineSet
EndChar

StartChar: Uacute
Encoding: 218 218 156
Width: 1393
GlyphClass: 2
Flags: W
LayerCount: 2
Fore
SplineSet
875 1878 m 1,0,-1
 1045 1878 l 1,1,-1
 743 1612 l 1,2,-1
 651 1612 l 1,3,-1
 875 1878 l 1,0,-1
168 1493 m 1,4,-1
 258 1493 l 1,5,-1
 258 566 l 2,6,7
 258 431 258 431 319 317 c 128,-1,8
 380 203 380 203 481.5 138.5 c 128,-1,9
 583 74 583 74 701 74 c 128,-1,10
 819 74 819 74 919.5 138.5 c 128,-1,11
 1020 203 1020 203 1079.5 316.5 c 128,-1,12
 1139 430 1139 430 1139 566 c 2,13,-1
 1139 1493 l 1,14,-1
 1229 1493 l 1,15,-1
 1229 566 l 2,16,17
 1229 409 1229 409 1158.5 275.5 c 128,-1,18
 1088 142 1088 142 965.5 63.5 c 128,-1,19
 843 -15 843 -15 698 -15 c 128,-1,20
 553 -15 553 -15 431 63.5 c 128,-1,21
 309 142 309 142 238.5 275.5 c 128,-1,22
 168 409 168 409 168 566 c 2,23,-1
 168 1493 l 1,4,-1
EndSplineSet
EndChar

StartChar: Ucircumflex
Encoding: 219 219 157
Width: 1393
GlyphClass: 2
Flags: W
LayerCount: 2
Fore
SplineSet
974 1612 m 1,0,-1
 848 1612 l 1,1,-1
 696 1775 l 1,2,-1
 544 1612 l 1,3,-1
 421 1612 l 1,4,-1
 662 1878 l 1,5,-1
 732 1878 l 1,6,-1
 974 1612 l 1,0,-1
168 1493 m 1,7,-1
 258 1493 l 1,8,-1
 258 566 l 2,9,10
 258 431 258 431 319 317 c 128,-1,11
 380 203 380 203 481.5 138.5 c 128,-1,12
 583 74 583 74 701 74 c 128,-1,13
 819 74 819 74 919.5 138.5 c 128,-1,14
 1020 203 1020 203 1079.5 316.5 c 128,-1,15
 1139 430 1139 430 1139 566 c 2,16,-1
 1139 1493 l 1,17,-1
 1229 1493 l 1,18,-1
 1229 566 l 2,19,20
 1229 409 1229 409 1158.5 275.5 c 128,-1,21
 1088 142 1088 142 965.5 63.5 c 128,-1,22
 843 -15 843 -15 698 -15 c 128,-1,23
 553 -15 553 -15 431 63.5 c 128,-1,24
 309 142 309 142 238.5 275.5 c 128,-1,25
 168 409 168 409 168 566 c 2,26,-1
 168 1493 l 1,7,-1
EndSplineSet
EndChar

StartChar: Udieresis
Encoding: 220 220 158
Width: 1393
GlyphClass: 2
Flags: W
LayerCount: 2
Fore
SplineSet
436 1694 m 128,-1,1
 436 1728 436 1728 460.5 1753.5 c 128,-1,2
 485 1779 485 1779 519 1779 c 128,-1,3
 553 1779 553 1779 577.5 1753.5 c 128,-1,4
 602 1728 602 1728 602 1694 c 128,-1,5
 602 1660 602 1660 577.5 1636 c 128,-1,6
 553 1612 553 1612 519 1612 c 128,-1,7
 485 1612 485 1612 460.5 1636 c 128,-1,0
 436 1660 436 1660 436 1694 c 128,-1,1
795 1694 m 128,-1,9
 795 1728 795 1728 819.5 1753.5 c 128,-1,10
 844 1779 844 1779 878 1779 c 0,11,12
 911 1779 911 1779 936 1753.5 c 128,-1,13
 961 1728 961 1728 961 1694 c 0,14,15
 961 1661 961 1661 936 1636.5 c 128,-1,16
 911 1612 911 1612 878 1612 c 0,17,18
 844 1612 844 1612 819.5 1636 c 128,-1,8
 795 1660 795 1660 795 1694 c 128,-1,9
168 1493 m 1,19,-1
 258 1493 l 1,20,-1
 258 566 l 2,21,22
 258 431 258 431 319 317 c 128,-1,23
 380 203 380 203 481.5 138.5 c 128,-1,24
 583 74 583 74 701 74 c 128,-1,25
 819 74 819 74 919.5 138.5 c 128,-1,26
 1020 203 1020 203 1079.5 316.5 c 128,-1,27
 1139 430 1139 430 1139 566 c 2,28,-1
 1139 1493 l 1,29,-1
 1229 1493 l 1,30,-1
 1229 566 l 2,31,32
 1229 409 1229 409 1158.5 275.5 c 128,-1,33
 1088 142 1088 142 965.5 63.5 c 128,-1,34
 843 -15 843 -15 698 -15 c 128,-1,35
 553 -15 553 -15 431 63.5 c 128,-1,36
 309 142 309 142 238.5 275.5 c 128,-1,37
 168 409 168 409 168 566 c 2,38,-1
 168 1493 l 1,19,-1
EndSplineSet
EndChar

StartChar: Yacute
Encoding: 221 221 159
Width: 1228
GlyphClass: 2
Flags: W
LayerCount: 2
Fore
SplineSet
795 1878 m 1,0,-1
 965 1878 l 1,1,-1
 662 1612 l 1,2,-1
 571 1612 l 1,3,-1
 795 1878 l 1,0,-1
36 1493 m 1,4,-1
 141 1493 l 1,5,-1
 615 741 l 1,6,-1
 1090 1493 l 1,7,-1
 1194 1493 l 1,8,-1
 660 645 l 1,9,-1
 660 0 l 1,10,-1
 571 0 l 1,11,-1
 571 645 l 1,12,-1
 36 1493 l 1,4,-1
EndSplineSet
EndChar

StartChar: Thorn
Encoding: 222 222 160
Width: 1134
GlyphClass: 2
Flags: W
LayerCount: 2
Fore
SplineSet
258 1066 m 1,0,-1
 258 427 l 1,1,2
 346 410 346 410 450 410 c 0,3,4
 665 410 665 410 793.5 498 c 128,-1,5
 922 586 922 586 922 745 c 128,-1,6
 922 904 922 904 793.5 993.5 c 128,-1,7
 665 1083 665 1083 450 1083 c 0,8,9
 362 1083 362 1083 258 1066 c 1,0,-1
168 0 m 1,10,-1
 168 1493 l 1,11,-1
 258 1493 l 1,12,-1
 258 1153 l 1,13,14
 363 1171 363 1171 450 1171 c 0,15,16
 709 1171 709 1171 861.5 1054 c 128,-1,17
 1014 937 1014 937 1014 743 c 128,-1,18
 1014 549 1014 549 861.5 432.5 c 128,-1,19
 709 316 709 316 450 316 c 0,20,21
 357 316 357 316 258 333 c 1,22,-1
 258 0 l 1,23,-1
 168 0 l 1,10,-1
EndSplineSet
EndChar

StartChar: germandbls
Encoding: 223 223 161
Width: 1132
GlyphClass: 2
Flags: W
LayerCount: 2
Fore
SplineSet
258 1166 m 2,0,-1
 258 0 l 1,1,-1
 168 0 l 1,2,-1
 168 1164 l 2,3,4
 168 1288 168 1288 200.5 1386 c 128,-1,5
 233 1484 233 1484 288 1544 c 128,-1,6
 343 1604 343 1604 410.5 1635 c 128,-1,7
 478 1666 478 1666 553 1666 c 0,8,9
 699 1666 699 1666 807.5 1560 c 128,-1,10
 916 1454 916 1454 916 1280 c 0,11,12
 916 1227 916 1227 898 1179 c 128,-1,13
 880 1131 880 1131 852.5 1097 c 128,-1,14
 825 1063 825 1063 793.5 1029.5 c 128,-1,15
 762 996 762 996 734.5 970.5 c 128,-1,16
 707 945 707 945 689 916.5 c 128,-1,17
 671 888 671 888 671 861 c 0,18,19
 671 826 671 826 696.5 789.5 c 128,-1,20
 722 753 722 753 759.5 723 c 128,-1,21
 797 693 797 693 841.5 654 c 128,-1,22
 886 615 886 615 923.5 576 c 128,-1,23
 961 537 961 537 986.5 481.5 c 128,-1,24
 1012 426 1012 426 1012 365 c 0,25,26
 1012 276 1012 276 981 202 c 128,-1,27
 950 128 950 128 897 81 c 128,-1,28
 844 34 844 34 776.5 8.5 c 128,-1,29
 709 -17 709 -17 634 -17 c 0,30,31
 466 -17 466 -17 340 92 c 1,32,-1
 401 132 l 1,33,34
 492 54 492 54 611 54 c 0,35,36
 737 54 737 54 828.5 140 c 128,-1,37
 920 226 920 226 920 369 c 0,38,39
 920 420 920 420 894.5 467 c 128,-1,40
 869 514 869 514 831.5 547 c 128,-1,41
 794 580 794 580 749.5 618 c 128,-1,42
 705 656 705 656 667.5 689 c 128,-1,43
 630 722 630 722 604.5 769 c 128,-1,44
 579 816 579 816 579 867 c 0,45,46
 579 905 579 905 597 942 c 128,-1,47
 615 979 615 979 642.5 1007.5 c 128,-1,48
 670 1036 670 1036 701.5 1068.5 c 128,-1,49
 733 1101 733 1101 760.5 1130.5 c 128,-1,50
 788 1160 788 1160 806 1200 c 128,-1,51
 824 1240 824 1240 824 1283 c 0,52,53
 824 1418 824 1418 741 1498 c 128,-1,54
 658 1578 658 1578 546 1578 c 0,55,56
 490 1578 490 1578 440 1554.5 c 128,-1,57
 390 1531 390 1531 348.5 1483.5 c 128,-1,58
 307 1436 307 1436 282.5 1354 c 128,-1,59
 258 1272 258 1272 258 1166 c 2,0,-1
EndSplineSet
EndChar

StartChar: agrave
Encoding: 224 224 162
Width: 1060
GlyphClass: 2
Flags: W
LayerCount: 2
Fore
SplineSet
920 0 m 1,0,-1
 824 0 l 1,1,2
 806 57 806 57 806 134 c 2,3,-1
 806 213 l 1,4,5
 734 113 734 113 633.5 48 c 128,-1,6
 533 -17 533 -17 421 -17 c 0,7,8
 340 -17 340 -17 276.5 8.5 c 128,-1,9
 213 34 213 34 176 76 c 128,-1,10
 139 118 139 118 120 165.5 c 128,-1,11
 101 213 101 213 101 262 c 0,12,13
 101 313 101 313 116.5 356 c 128,-1,14
 132 399 132 399 156.5 429.5 c 128,-1,15
 181 460 181 460 221.5 484.5 c 128,-1,16
 262 509 262 509 299.5 524.5 c 128,-1,17
 337 540 337 540 393 551.5 c 128,-1,18
 449 563 449 563 490 568.5 c 128,-1,19
 531 574 531 574 592 577 c 128,-1,20
 653 580 653 580 688.5 580.5 c 128,-1,21
 724 581 724 581 779 581 c 2,22,-1
 806 581 l 1,23,24
 801 746 801 746 708.5 844 c 128,-1,25
 616 942 616 942 495 942 c 0,26,27
 424 942 424 942 356.5 905 c 128,-1,28
 289 868 289 868 239 797 c 1,29,-1
 168 844 l 1,30,31
 229 938 229 938 315 985 c 128,-1,32
 401 1032 401 1032 495 1032 c 0,33,34
 571 1032 571 1032 641.5 1001.5 c 128,-1,35
 712 971 712 971 768 915.5 c 128,-1,36
 824 860 824 860 858.5 773 c 128,-1,37
 893 686 893 686 895 581 c 2,38,-1
 895 134 l 2,39,40
 895 47 895 47 920 0 c 1,0,-1
421 72 m 0,41,42
 536 72 536 72 644 149 c 128,-1,43
 752 226 752 226 806 325 c 1,44,-1
 806 517 l 1,45,46
 759 516 759 516 727.5 515 c 128,-1,47
 696 514 696 514 641.5 510.5 c 128,-1,48
 587 507 587 507 549 502.5 c 128,-1,49
 511 498 511 498 460.5 488 c 128,-1,50
 410 478 410 478 375 465.5 c 128,-1,51
 340 453 340 453 302.5 433.5 c 128,-1,52
 265 414 265 414 242 390.5 c 128,-1,53
 219 367 219 367 204.5 334 c 128,-1,54
 190 301 190 301 190 262 c 0,55,56
 190 190 190 190 250 131 c 128,-1,57
 310 72 310 72 421 72 c 0,41,42
199 1457 m 1,58,-1
 369 1457 l 1,59,-1
 593 1191 l 1,60,-1
 502 1191 l 1,61,-1
 199 1457 l 1,58,-1
EndSplineSet
EndChar

StartChar: aacute
Encoding: 225 225 163
Width: 1060
GlyphClass: 2
Flags: W
LayerCount: 2
Fore
SplineSet
628 1457 m 1,0,-1
 799 1457 l 1,1,-1
 500 1191 l 1,2,-1
 406 1191 l 1,3,-1
 628 1457 l 1,0,-1
920 0 m 1,4,-1
 824 0 l 1,5,6
 806 57 806 57 806 134 c 2,7,-1
 806 213 l 1,8,9
 734 113 734 113 633.5 48 c 128,-1,10
 533 -17 533 -17 421 -17 c 0,11,12
 340 -17 340 -17 276.5 8.5 c 128,-1,13
 213 34 213 34 176 76 c 128,-1,14
 139 118 139 118 120 165.5 c 128,-1,15
 101 213 101 213 101 262 c 0,16,17
 101 313 101 313 116.5 356 c 128,-1,18
 132 399 132 399 156.5 429.5 c 128,-1,19
 181 460 181 460 221.5 484.5 c 128,-1,20
 262 509 262 509 299.5 524.5 c 128,-1,21
 337 540 337 540 393 551.5 c 128,-1,22
 449 563 449 563 490 568.5 c 128,-1,23
 531 574 531 574 592 577 c 128,-1,24
 653 580 653 580 688.5 580.5 c 128,-1,25
 724 581 724 581 779 581 c 2,26,-1
 806 581 l 1,27,28
 801 746 801 746 708.5 844 c 128,-1,29
 616 942 616 942 495 942 c 0,30,31
 424 942 424 942 356.5 905 c 128,-1,32
 289 868 289 868 239 797 c 1,33,-1
 168 844 l 1,34,35
 229 938 229 938 315 985 c 128,-1,36
 401 1032 401 1032 495 1032 c 0,37,38
 571 1032 571 1032 641.5 1001.5 c 128,-1,39
 712 971 712 971 768 915.5 c 128,-1,40
 824 860 824 860 858.5 773 c 128,-1,41
 893 686 893 686 895 581 c 2,42,-1
 895 134 l 2,43,44
 895 47 895 47 920 0 c 1,4,-1
421 72 m 0,45,46
 536 72 536 72 644 149 c 128,-1,47
 752 226 752 226 806 325 c 1,48,-1
 806 517 l 1,49,50
 759 516 759 516 727.5 515 c 128,-1,51
 696 514 696 514 641.5 510.5 c 128,-1,52
 587 507 587 507 549 502.5 c 128,-1,53
 511 498 511 498 460.5 488 c 128,-1,54
 410 478 410 478 375 465.5 c 128,-1,55
 340 453 340 453 302.5 433.5 c 128,-1,56
 265 414 265 414 242 390.5 c 128,-1,57
 219 367 219 367 204.5 334 c 128,-1,58
 190 301 190 301 190 262 c 0,59,60
 190 190 190 190 250 131 c 128,-1,61
 310 72 310 72 421 72 c 0,45,46
EndSplineSet
EndChar

StartChar: acircumflex
Encoding: 226 226 164
Width: 1060
GlyphClass: 2
Flags: W
LayerCount: 2
Fore
SplineSet
493 1457 m 1,0,-1
 557 1457 l 1,1,-1
 799 1191 l 1,2,-1
 679 1191 l 1,3,-1
 526 1354 l 1,4,-1
 374 1191 l 1,5,-1
 250 1191 l 1,6,-1
 493 1457 l 1,0,-1
920 0 m 1,7,-1
 824 0 l 1,8,9
 806 57 806 57 806 134 c 2,10,-1
 806 213 l 1,11,12
 734 113 734 113 633.5 48 c 128,-1,13
 533 -17 533 -17 421 -17 c 0,14,15
 340 -17 340 -17 276.5 8.5 c 128,-1,16
 213 34 213 34 176 76 c 128,-1,17
 139 118 139 118 120 165.5 c 128,-1,18
 101 213 101 213 101 262 c 0,19,20
 101 313 101 313 116.5 356 c 128,-1,21
 132 399 132 399 156.5 429.5 c 128,-1,22
 181 460 181 460 221.5 484.5 c 128,-1,23
 262 509 262 509 299.5 524.5 c 128,-1,24
 337 540 337 540 393 551.5 c 128,-1,25
 449 563 449 563 490 568.5 c 128,-1,26
 531 574 531 574 592 577 c 128,-1,27
 653 580 653 580 688.5 580.5 c 128,-1,28
 724 581 724 581 779 581 c 2,29,-1
 806 581 l 1,30,31
 801 746 801 746 708.5 844 c 128,-1,32
 616 942 616 942 495 942 c 0,33,34
 424 942 424 942 356.5 905 c 128,-1,35
 289 868 289 868 239 797 c 1,36,-1
 168 844 l 1,37,38
 229 938 229 938 315 985 c 128,-1,39
 401 1032 401 1032 495 1032 c 0,40,41
 571 1032 571 1032 641.5 1001.5 c 128,-1,42
 712 971 712 971 768 915.5 c 128,-1,43
 824 860 824 860 858.5 773 c 128,-1,44
 893 686 893 686 895 581 c 2,45,-1
 895 134 l 2,46,47
 895 47 895 47 920 0 c 1,7,-1
421 72 m 0,48,49
 536 72 536 72 644 149 c 128,-1,50
 752 226 752 226 806 325 c 1,51,-1
 806 517 l 1,52,53
 759 516 759 516 727.5 515 c 128,-1,54
 696 514 696 514 641.5 510.5 c 128,-1,55
 587 507 587 507 549 502.5 c 128,-1,56
 511 498 511 498 460.5 488 c 128,-1,57
 410 478 410 478 375 465.5 c 128,-1,58
 340 453 340 453 302.5 433.5 c 128,-1,59
 265 414 265 414 242 390.5 c 128,-1,60
 219 367 219 367 204.5 334 c 128,-1,61
 190 301 190 301 190 262 c 0,62,63
 190 190 190 190 250 131 c 128,-1,64
 310 72 310 72 421 72 c 0,48,49
EndSplineSet
EndChar

StartChar: atilde
Encoding: 227 227 165
Width: 1060
GlyphClass: 2
Flags: W
LayerCount: 2
Fore
SplineSet
393 1372 m 0,0,1
 440 1372 440 1372 489.5 1346 c 128,-1,2
 539 1320 539 1320 581.5 1294.5 c 128,-1,3
 624 1269 624 1269 654 1269 c 0,4,5
 663 1269 663 1269 672 1272 c 128,-1,6
 681 1275 681 1275 692 1283 c 128,-1,7
 703 1291 703 1291 709.5 1309 c 128,-1,8
 716 1327 716 1327 716 1352 c 1,9,-1
 773 1352 l 1,10,11
 773 1298 773 1298 763 1269 c 0,12,13
 741 1175 741 1175 654 1175 c 0,14,15
 611 1175 611 1175 562 1203.5 c 128,-1,16
 513 1232 513 1232 468.5 1260 c 128,-1,17
 424 1288 424 1288 393 1288 c 0,18,19
 369 1288 369 1288 348.5 1266.5 c 128,-1,20
 328 1245 328 1245 325 1194 c 1,21,-1
 267 1194 l 1,22,23
 267 1245 267 1245 275 1278 c 0,24,25
 301 1372 301 1372 393 1372 c 0,0,1
920 0 m 1,26,-1
 824 0 l 1,27,28
 806 57 806 57 806 134 c 2,29,-1
 806 213 l 1,30,31
 734 113 734 113 633.5 48 c 128,-1,32
 533 -17 533 -17 421 -17 c 0,33,34
 340 -17 340 -17 276.5 8.5 c 128,-1,35
 213 34 213 34 176 76 c 128,-1,36
 139 118 139 118 120 165.5 c 128,-1,37
 101 213 101 213 101 262 c 0,38,39
 101 313 101 313 116.5 356 c 128,-1,40
 132 399 132 399 156.5 429.5 c 128,-1,41
 181 460 181 460 221.5 484.5 c 128,-1,42
 262 509 262 509 299.5 524.5 c 128,-1,43
 337 540 337 540 393 551.5 c 128,-1,44
 449 563 449 563 490 568.5 c 128,-1,45
 531 574 531 574 592 577 c 128,-1,46
 653 580 653 580 688.5 580.5 c 128,-1,47
 724 581 724 581 779 581 c 2,48,-1
 806 581 l 1,49,50
 801 746 801 746 708.5 844 c 128,-1,51
 616 942 616 942 495 942 c 0,52,53
 424 942 424 942 356.5 905 c 128,-1,54
 289 868 289 868 239 797 c 1,55,-1
 168 844 l 1,56,57
 229 938 229 938 315 985 c 128,-1,58
 401 1032 401 1032 495 1032 c 0,59,60
 571 1032 571 1032 641.5 1001.5 c 128,-1,61
 712 971 712 971 768 915.5 c 128,-1,62
 824 860 824 860 858.5 773 c 128,-1,63
 893 686 893 686 895 581 c 2,64,-1
 895 134 l 2,65,66
 895 47 895 47 920 0 c 1,26,-1
421 72 m 0,67,68
 536 72 536 72 644 149 c 128,-1,69
 752 226 752 226 806 325 c 1,70,-1
 806 517 l 1,71,72
 759 516 759 516 727.5 515 c 128,-1,73
 696 514 696 514 641.5 510.5 c 128,-1,74
 587 507 587 507 549 502.5 c 128,-1,75
 511 498 511 498 460.5 488 c 128,-1,76
 410 478 410 478 375 465.5 c 128,-1,77
 340 453 340 453 302.5 433.5 c 128,-1,78
 265 414 265 414 242 390.5 c 128,-1,79
 219 367 219 367 204.5 334 c 128,-1,80
 190 301 190 301 190 262 c 0,81,82
 190 190 190 190 250 131 c 128,-1,83
 310 72 310 72 421 72 c 0,67,68
EndSplineSet
EndChar

StartChar: adieresis
Encoding: 228 228 166
Width: 1060
GlyphClass: 2
Flags: W
LayerCount: 2
Fore
SplineSet
267 1278 m 128,-1,1
 267 1312 267 1312 291.5 1336.5 c 128,-1,2
 316 1361 316 1361 349 1361 c 128,-1,3
 382 1361 382 1361 407 1336.5 c 128,-1,4
 432 1312 432 1312 432 1278 c 128,-1,5
 432 1244 432 1244 407 1219 c 128,-1,6
 382 1194 382 1194 349 1194 c 128,-1,7
 316 1194 316 1194 291.5 1219 c 128,-1,0
 267 1244 267 1244 267 1278 c 128,-1,1
624 1278 m 128,-1,9
 624 1312 624 1312 648.5 1336.5 c 128,-1,10
 673 1361 673 1361 707 1361 c 128,-1,11
 741 1361 741 1361 765.5 1336.5 c 128,-1,12
 790 1312 790 1312 790 1278 c 128,-1,13
 790 1244 790 1244 765.5 1219 c 128,-1,14
 741 1194 741 1194 707 1194 c 128,-1,15
 673 1194 673 1194 648.5 1219 c 128,-1,8
 624 1244 624 1244 624 1278 c 128,-1,9
920 0 m 1,16,-1
 824 0 l 1,17,18
 806 57 806 57 806 134 c 2,19,-1
 806 213 l 1,20,21
 734 113 734 113 633.5 48 c 128,-1,22
 533 -17 533 -17 421 -17 c 0,23,24
 340 -17 340 -17 276.5 8.5 c 128,-1,25
 213 34 213 34 176 76 c 128,-1,26
 139 118 139 118 120 165.5 c 128,-1,27
 101 213 101 213 101 262 c 0,28,29
 101 313 101 313 116.5 356 c 128,-1,30
 132 399 132 399 156.5 429.5 c 128,-1,31
 181 460 181 460 221.5 484.5 c 128,-1,32
 262 509 262 509 299.5 524.5 c 128,-1,33
 337 540 337 540 393 551.5 c 128,-1,34
 449 563 449 563 490 568.5 c 128,-1,35
 531 574 531 574 592 577 c 128,-1,36
 653 580 653 580 688.5 580.5 c 128,-1,37
 724 581 724 581 779 581 c 2,38,-1
 806 581 l 1,39,40
 801 746 801 746 708.5 844 c 128,-1,41
 616 942 616 942 495 942 c 0,42,43
 424 942 424 942 356.5 905 c 128,-1,44
 289 868 289 868 239 797 c 1,45,-1
 168 844 l 1,46,47
 229 938 229 938 315 985 c 128,-1,48
 401 1032 401 1032 495 1032 c 0,49,50
 571 1032 571 1032 641.5 1001.5 c 128,-1,51
 712 971 712 971 768 915.5 c 128,-1,52
 824 860 824 860 858.5 773 c 128,-1,53
 893 686 893 686 895 581 c 2,54,-1
 895 134 l 2,55,56
 895 47 895 47 920 0 c 1,16,-1
421 72 m 0,57,58
 536 72 536 72 644 149 c 128,-1,59
 752 226 752 226 806 325 c 1,60,-1
 806 517 l 1,61,62
 759 516 759 516 727.5 515 c 128,-1,63
 696 514 696 514 641.5 510.5 c 128,-1,64
 587 507 587 507 549 502.5 c 128,-1,65
 511 498 511 498 460.5 488 c 128,-1,66
 410 478 410 478 375 465.5 c 128,-1,67
 340 453 340 453 302.5 433.5 c 128,-1,68
 265 414 265 414 242 390.5 c 128,-1,69
 219 367 219 367 204.5 334 c 128,-1,70
 190 301 190 301 190 262 c 0,71,72
 190 190 190 190 250 131 c 128,-1,73
 310 72 310 72 421 72 c 0,57,58
EndSplineSet
EndChar

StartChar: aring
Encoding: 229 229 167
Width: 1060
GlyphClass: 2
Flags: W
LayerCount: 2
Fore
SplineSet
526 1610 m 0,0,1
 615 1610 615 1610 678 1547 c 128,-1,2
 741 1484 741 1484 741 1395 c 0,3,4
 741 1304 741 1304 678.5 1241.5 c 128,-1,5
 616 1179 616 1179 526 1179 c 128,-1,6
 436 1179 436 1179 374 1241.5 c 128,-1,7
 312 1304 312 1304 312 1395 c 0,8,9
 312 1484 312 1484 374 1547 c 128,-1,10
 436 1610 436 1610 526 1610 c 0,0,1
401 1395 m 0,11,12
 401 1343 401 1343 437.5 1306 c 128,-1,13
 474 1269 474 1269 526 1269 c 0,14,15
 577 1269 577 1269 614 1306 c 128,-1,16
 651 1343 651 1343 651 1395 c 0,17,18
 651 1445 651 1445 613.5 1482.5 c 128,-1,19
 576 1520 576 1520 526 1520 c 0,20,21
 475 1520 475 1520 438 1482.5 c 128,-1,22
 401 1445 401 1445 401 1395 c 0,11,12
920 0 m 1,23,-1
 824 0 l 1,24,25
 806 57 806 57 806 134 c 2,26,-1
 806 213 l 1,27,28
 734 113 734 113 633.5 48 c 128,-1,29
 533 -17 533 -17 421 -17 c 0,30,31
 340 -17 340 -17 276.5 8.5 c 128,-1,32
 213 34 213 34 176 76 c 128,-1,33
 139 118 139 118 120 165.5 c 128,-1,34
 101 213 101 213 101 262 c 0,35,36
 101 313 101 313 116.5 356 c 128,-1,37
 132 399 132 399 156.5 429.5 c 128,-1,38
 181 460 181 460 221.5 484.5 c 128,-1,39
 262 509 262 509 299.5 524.5 c 128,-1,40
 337 540 337 540 393 551.5 c 128,-1,41
 449 563 449 563 490 568.5 c 128,-1,42
 531 574 531 574 592 577 c 128,-1,43
 653 580 653 580 688.5 580.5 c 128,-1,44
 724 581 724 581 779 581 c 2,45,-1
 806 581 l 1,46,47
 801 746 801 746 708.5 844 c 128,-1,48
 616 942 616 942 495 942 c 0,49,50
 424 942 424 942 356.5 905 c 128,-1,51
 289 868 289 868 239 797 c 1,52,-1
 168 844 l 1,53,54
 229 938 229 938 315 985 c 128,-1,55
 401 1032 401 1032 495 1032 c 0,56,57
 571 1032 571 1032 641.5 1001.5 c 128,-1,58
 712 971 712 971 768 915.5 c 128,-1,59
 824 860 824 860 858.5 773 c 128,-1,60
 893 686 893 686 895 581 c 2,61,-1
 895 134 l 2,62,63
 895 47 895 47 920 0 c 1,23,-1
421 72 m 0,64,65
 536 72 536 72 644 149 c 128,-1,66
 752 226 752 226 806 325 c 1,67,-1
 806 517 l 1,68,69
 759 516 759 516 727.5 515 c 128,-1,70
 696 514 696 514 641.5 510.5 c 128,-1,71
 587 507 587 507 549 502.5 c 128,-1,72
 511 498 511 498 460.5 488 c 128,-1,73
 410 478 410 478 375 465.5 c 128,-1,74
 340 453 340 453 302.5 433.5 c 128,-1,75
 265 414 265 414 242 390.5 c 128,-1,76
 219 367 219 367 204.5 334 c 128,-1,77
 190 301 190 301 190 262 c 0,78,79
 190 190 190 190 250 131 c 128,-1,80
 310 72 310 72 421 72 c 0,64,65
EndSplineSet
EndChar

StartChar: ae
Encoding: 230 230 168
Width: 1859
GlyphClass: 2
Flags: W
LayerCount: 2
Fore
SplineSet
1739 508 m 1,0,-1
 893 508 l 1,1,2
 893 329 893 329 1004 204 c 128,-1,3
 1115 79 1115 79 1269 79 c 0,4,5
 1366 79 1366 79 1449 131.5 c 128,-1,6
 1532 184 1532 184 1585 278 c 1,7,-1
 1664 233 l 1,8,9
 1602 121 1602 121 1496.5 53 c 128,-1,10
 1391 -15 1391 -15 1269 -15 c 0,11,12
 1138 -15 1138 -15 1029.5 59 c 128,-1,13
 921 133 921 133 859 258 c 1,14,15
 781 137 781 137 667 60 c 128,-1,16
 553 -17 553 -17 421 -17 c 0,17,18
 340 -17 340 -17 276.5 8.5 c 128,-1,19
 213 34 213 34 176 76 c 128,-1,20
 139 118 139 118 120 165.5 c 128,-1,21
 101 213 101 213 101 262 c 0,22,23
 101 330 101 330 128.5 383.5 c 128,-1,24
 156 437 156 437 195.5 471 c 128,-1,25
 235 505 235 505 301.5 529.5 c 128,-1,26
 368 554 368 554 422.5 566 c 128,-1,27
 477 578 477 578 558.5 584.5 c 128,-1,28
 640 591 640 591 687 592 c 128,-1,29
 734 593 734 593 806 593 c 1,30,31
 801 757 801 757 709.5 849.5 c 128,-1,32
 618 942 618 942 495 942 c 0,33,34
 424 942 424 942 356.5 905 c 128,-1,35
 289 868 289 868 239 797 c 1,36,-1
 168 844 l 1,37,38
 229 938 229 938 315 985 c 128,-1,39
 401 1032 401 1032 495 1032 c 0,40,41
 614 1032 614 1032 715 960.5 c 128,-1,42
 816 889 816 889 861 759 c 1,43,44
 923 882 923 882 1032 956 c 128,-1,45
 1141 1030 1141 1030 1271 1030 c 0,46,47
 1455 1030 1455 1030 1588.5 890.5 c 128,-1,48
 1722 751 1722 751 1737 553 c 1,49,-1
 1739 508 l 1,0,-1
421 72 m 0,50,51
 534 72 534 72 648 150.5 c 128,-1,52
 762 229 762 229 826 342 c 1,53,54
 806 427 806 427 806 508 c 1,55,56
 568 504 568 504 456 482 c 0,57,58
 190 431 190 431 190 262 c 0,59,60
 190 190 190 190 250 131 c 128,-1,61
 310 72 310 72 421 72 c 0,50,51
904 593 m 1,62,-1
 1641 593 l 1,63,64
 1614 744 1614 744 1509.5 842 c 128,-1,65
 1405 940 1405 940 1271 940 c 0,66,67
 1138 940 1138 940 1034.5 842 c 128,-1,68
 931 744 931 744 904 593 c 1,62,-1
EndSplineSet
EndChar

StartChar: ccedilla
Encoding: 231 231 169
Width: 1004
GlyphClass: 2
Flags: W
LayerCount: 2
Fore
SplineSet
850 275 m 1,0,-1
 933 235 l 1,1,2
 876 133 876 133 784 68 c 128,-1,3
 692 3 692 3 579 -9 c 1,4,-1
 530 -92 l 1,5,6
 669 -116 669 -116 669 -242 c 0,7,8
 669 -310 669 -310 616 -353 c 128,-1,9
 563 -396 563 -396 483 -396 c 0,10,11
 397 -396 397 -396 329 -349 c 1,12,-1
 376 -275 l 1,13,14
 428 -307 428 -307 483 -307 c 0,15,16
 527 -307 527 -307 553 -288.5 c 128,-1,17
 579 -270 579 -270 579 -242 c 0,18,19
 579 -187 579 -187 472 -171 c 2,20,-1
 406 -161 l 1,21,-1
 495 -9 l 1,22,23
 314 9 314 9 193 158.5 c 128,-1,24
 72 308 72 308 72 510 c 0,25,26
 72 651 72 651 133 771 c 128,-1,27
 194 891 194 891 300.5 961.5 c 128,-1,28
 407 1032 407 1032 534 1032 c 0,29,30
 657 1032 657 1032 762 964.5 c 128,-1,31
 867 897 867 897 929 786 c 1,32,-1
 850 741 l 1,33,34
 797 833 797 833 714 886.5 c 128,-1,35
 631 940 631 940 534 940 c 0,36,37
 380 940 380 940 269 814 c 128,-1,38
 158 688 158 688 158 508 c 128,-1,39
 158 328 158 328 269.5 201 c 128,-1,40
 381 74 381 74 534 74 c 0,41,42
 631 74 631 74 714.5 128 c 128,-1,43
 798 182 798 182 850 275 c 1,0,-1
EndSplineSet
EndChar

StartChar: egrave
Encoding: 232 232 170
Width: 1177
GlyphClass: 2
Flags: W
LayerCount: 2
Fore
SplineSet
224 1459 m 1,0,-1
 393 1459 l 1,1,-1
 618 1194 l 1,2,-1
 526 1194 l 1,3,-1
 224 1459 l 1,0,-1
222 593 m 1,4,-1
 959 593 l 1,5,6
 931 744 931 744 827 842 c 128,-1,7
 723 940 723 940 589 940 c 0,8,9
 456 940 456 940 352.5 842 c 128,-1,10
 249 744 249 744 222 593 c 1,4,-1
1057 504 m 1,11,-1
 208 504 l 1,12,13
 208 325 208 325 319.5 202 c 128,-1,14
 431 79 431 79 585 79 c 0,15,16
 683 79 683 79 766.5 132 c 128,-1,17
 850 185 850 185 902 278 c 1,18,-1
 978 233 l 1,19,20
 916 120 916 120 811.5 52.5 c 128,-1,21
 707 -15 707 -15 585 -15 c 0,22,23
 458 -15 458 -15 351.5 56 c 128,-1,24
 245 127 245 127 184.5 247.5 c 128,-1,25
 124 368 124 368 124 508 c 0,26,27
 124 647 124 647 185.5 767 c 128,-1,28
 247 887 247 887 354.5 958.5 c 128,-1,29
 462 1030 462 1030 589 1030 c 0,30,31
 709 1030 709 1030 812.5 965.5 c 128,-1,32
 916 901 916 901 980 792 c 128,-1,33
 1044 683 1044 683 1055 553 c 1,34,-1
 1057 504 l 1,11,-1
EndSplineSet
EndChar

StartChar: eacute
Encoding: 233 233 171
Width: 1177
GlyphClass: 2
Flags: W
LayerCount: 2
Fore
SplineSet
752 1459 m 1,0,-1
 922 1459 l 1,1,-1
 620 1194 l 1,2,-1
 528 1194 l 1,3,-1
 752 1459 l 1,0,-1
222 593 m 1,4,-1
 959 593 l 1,5,6
 931 744 931 744 827 842 c 128,-1,7
 723 940 723 940 589 940 c 0,8,9
 456 940 456 940 352.5 842 c 128,-1,10
 249 744 249 744 222 593 c 1,4,-1
1057 504 m 1,11,-1
 208 504 l 1,12,13
 208 325 208 325 319.5 202 c 128,-1,14
 431 79 431 79 585 79 c 0,15,16
 683 79 683 79 766.5 132 c 128,-1,17
 850 185 850 185 902 278 c 1,18,-1
 978 233 l 1,19,20
 916 120 916 120 811.5 52.5 c 128,-1,21
 707 -15 707 -15 585 -15 c 0,22,23
 458 -15 458 -15 351.5 56 c 128,-1,24
 245 127 245 127 184.5 247.5 c 128,-1,25
 124 368 124 368 124 508 c 0,26,27
 124 647 124 647 185.5 767 c 128,-1,28
 247 887 247 887 354.5 958.5 c 128,-1,29
 462 1030 462 1030 589 1030 c 0,30,31
 709 1030 709 1030 812.5 965.5 c 128,-1,32
 916 901 916 901 980 792 c 128,-1,33
 1044 683 1044 683 1055 553 c 1,34,-1
 1057 504 l 1,11,-1
EndSplineSet
EndChar

StartChar: ecircumflex
Encoding: 234 234 172
Width: 1177
GlyphClass: 2
Flags: W
LayerCount: 2
Fore
SplineSet
553 1459 m 1,0,-1
 618 1459 l 1,1,-1
 859 1194 l 1,2,-1
 737 1194 l 1,3,-1
 585 1359 l 1,4,-1
 432 1194 l 1,5,-1
 312 1194 l 1,6,-1
 553 1459 l 1,0,-1
222 593 m 1,7,-1
 959 593 l 1,8,9
 931 744 931 744 827 842 c 128,-1,10
 723 940 723 940 589 940 c 0,11,12
 456 940 456 940 352.5 842 c 128,-1,13
 249 744 249 744 222 593 c 1,7,-1
1057 504 m 1,14,-1
 208 504 l 1,15,16
 208 325 208 325 319.5 202 c 128,-1,17
 431 79 431 79 585 79 c 0,18,19
 683 79 683 79 766.5 132 c 128,-1,20
 850 185 850 185 902 278 c 1,21,-1
 978 233 l 1,22,23
 916 120 916 120 811.5 52.5 c 128,-1,24
 707 -15 707 -15 585 -15 c 0,25,26
 458 -15 458 -15 351.5 56 c 128,-1,27
 245 127 245 127 184.5 247.5 c 128,-1,28
 124 368 124 368 124 508 c 0,29,30
 124 647 124 647 185.5 767 c 128,-1,31
 247 887 247 887 354.5 958.5 c 128,-1,32
 462 1030 462 1030 589 1030 c 0,33,34
 709 1030 709 1030 812.5 965.5 c 128,-1,35
 916 901 916 901 980 792 c 128,-1,36
 1044 683 1044 683 1055 553 c 1,37,-1
 1057 504 l 1,14,-1
EndSplineSet
EndChar

StartChar: edieresis
Encoding: 235 235 173
Width: 1177
GlyphClass: 2
Flags: W
LayerCount: 2
Fore
SplineSet
312 1278 m 128,-1,1
 312 1312 312 1312 336 1336.5 c 128,-1,2
 360 1361 360 1361 393 1361 c 0,3,4
 427 1361 427 1361 452 1336.5 c 128,-1,5
 477 1312 477 1312 477 1278 c 128,-1,6
 477 1244 477 1244 452 1219 c 128,-1,7
 427 1194 427 1194 393 1194 c 0,8,9
 360 1194 360 1194 336 1219 c 128,-1,0
 312 1244 312 1244 312 1278 c 128,-1,1
669 1278 m 128,-1,11
 669 1312 669 1312 693.5 1336.5 c 128,-1,12
 718 1361 718 1361 752 1361 c 128,-1,13
 786 1361 786 1361 810.5 1336.5 c 128,-1,14
 835 1312 835 1312 835 1278 c 128,-1,15
 835 1244 835 1244 810.5 1219 c 128,-1,16
 786 1194 786 1194 752 1194 c 128,-1,17
 718 1194 718 1194 693.5 1219 c 128,-1,10
 669 1244 669 1244 669 1278 c 128,-1,11
222 593 m 1,18,-1
 959 593 l 1,19,20
 931 744 931 744 827 842 c 128,-1,21
 723 940 723 940 589 940 c 0,22,23
 456 940 456 940 352.5 842 c 128,-1,24
 249 744 249 744 222 593 c 1,18,-1
1057 504 m 1,25,-1
 208 504 l 1,26,27
 208 325 208 325 319.5 202 c 128,-1,28
 431 79 431 79 585 79 c 0,29,30
 683 79 683 79 766.5 132 c 128,-1,31
 850 185 850 185 902 278 c 1,32,-1
 978 233 l 1,33,34
 916 120 916 120 811.5 52.5 c 128,-1,35
 707 -15 707 -15 585 -15 c 0,36,37
 458 -15 458 -15 351.5 56 c 128,-1,38
 245 127 245 127 184.5 247.5 c 128,-1,39
 124 368 124 368 124 508 c 0,40,41
 124 647 124 647 185.5 767 c 128,-1,42
 247 887 247 887 354.5 958.5 c 128,-1,43
 462 1030 462 1030 589 1030 c 0,44,45
 709 1030 709 1030 812.5 965.5 c 128,-1,46
 916 901 916 901 980 792 c 128,-1,47
 1044 683 1044 683 1055 553 c 1,48,-1
 1057 504 l 1,25,-1
EndSplineSet
EndChar

StartChar: igrave
Encoding: 236 236 174
Width: 422
GlyphClass: 2
Flags: W
LayerCount: 2
Fore
SplineSet
-98 1459 m 1,0,-1
 72 1459 l 1,1,-1
 295 1194 l 1,2,-1
 203 1194 l 1,3,-1
 -98 1459 l 1,0,-1
258 0 m 1,4,-1
 168 0 l 1,5,-1
 168 1014 l 1,6,-1
 258 1014 l 1,7,-1
 258 0 l 1,4,-1
EndSplineSet
EndChar

StartChar: iacute
Encoding: 237 237 175
Width: 422
GlyphClass: 2
Flags: W
LayerCount: 2
Fore
SplineSet
329 1459 m 1,0,-1
 495 1459 l 1,1,-1
 195 1194 l 1,2,-1
 101 1194 l 1,3,-1
 329 1459 l 1,0,-1
258 0 m 1,4,-1
 168 0 l 1,5,-1
 168 1014 l 1,6,-1
 258 1014 l 1,7,-1
 258 0 l 1,4,-1
EndSplineSet
EndChar

StartChar: icircumflex
Encoding: 238 238 176
Width: 422
GlyphClass: 2
Flags: W
LayerCount: 2
Fore
SplineSet
258 0 m 1,0,-1
 168 0 l 1,1,-1
 168 1014 l 1,2,-1
 258 1014 l 1,3,-1
 258 0 l 1,0,-1
179 1459 m 1,4,-1
 244 1459 l 1,5,-1
 485 1194 l 1,6,-1
 365 1194 l 1,7,-1
 213 1359 l 1,8,-1
 60 1194 l 1,9,-1
 -62 1194 l 1,10,-1
 179 1459 l 1,4,-1
EndSplineSet
EndChar

StartChar: idieresis
Encoding: 239 239 177
Width: 422
GlyphClass: 2
Flags: W
LayerCount: 2
Fore
SplineSet
-54 1278 m 128,-1,1
 -54 1312 -54 1312 -29 1336.5 c 128,-1,2
 -4 1361 -4 1361 30 1361 c 0,3,4
 63 1361 63 1361 88.5 1336 c 128,-1,5
 114 1311 114 1311 114 1278 c 0,6,7
 114 1244 114 1244 88.5 1219 c 128,-1,8
 63 1194 63 1194 30 1194 c 0,9,10
 -4 1194 -4 1194 -29 1219 c 128,-1,0
 -54 1244 -54 1244 -54 1278 c 128,-1,1
305 1278 m 128,-1,12
 305 1312 305 1312 329 1336.5 c 128,-1,13
 353 1361 353 1361 387 1361 c 128,-1,14
 421 1361 421 1361 446.5 1336.5 c 128,-1,15
 472 1312 472 1312 472 1278 c 128,-1,16
 472 1244 472 1244 446.5 1219 c 128,-1,17
 421 1194 421 1194 387 1194 c 128,-1,18
 353 1194 353 1194 329 1219 c 128,-1,11
 305 1244 305 1244 305 1278 c 128,-1,12
258 0 m 1,19,-1
 168 0 l 1,20,-1
 168 1014 l 1,21,-1
 258 1014 l 1,22,-1
 258 0 l 1,19,-1
EndSplineSet
EndChar

StartChar: eth
Encoding: 240 240 178
Width: 1282
GlyphClass: 2
Flags: W
LayerCount: 2
Fore
SplineSet
714 1354 m 1,0,-1
 716 1352 l 1,1,2
 831 1255 831 1255 917.5 1144.5 c 128,-1,3
 1004 1034 1004 1034 1049 944.5 c 128,-1,4
 1094 855 1094 855 1121 761.5 c 128,-1,5
 1148 668 1148 668 1155 612.5 c 128,-1,6
 1162 557 1162 557 1162 508 c 0,7,8
 1162 401 1162 401 1121 304 c 128,-1,9
 1080 207 1080 207 1010 137.5 c 128,-1,10
 940 68 940 68 844 26.5 c 128,-1,11
 748 -15 748 -15 643 -15 c 0,12,13
 428 -15 428 -15 276 138 c 128,-1,14
 124 291 124 291 124 508 c 0,15,16
 124 650 124 650 193.5 770.5 c 128,-1,17
 263 891 263 891 382.5 960.5 c 128,-1,18
 502 1030 502 1030 643 1030 c 0,19,20
 821 1030 821 1030 959 922 c 1,21,22
 840 1141 840 1141 636 1305 c 1,23,-1
 320 1117 l 1,24,-1
 275 1194 l 1,25,-1
 557 1363 l 1,26,27
 412 1466 412 1466 248 1520 c 1,28,-1
 275 1605 l 1,29,30
 462 1546 462 1546 638 1414 c 1,31,-1
 955 1602 l 1,32,-1
 1000 1525 l 1,33,-1
 714 1354 l 1,0,-1
638 938 m 0,34,35
 460 938 460 938 332.5 810.5 c 128,-1,36
 205 683 205 683 205 504 c 0,37,38
 205 388 205 388 263.5 288 c 128,-1,39
 322 188 322 188 421.5 130 c 128,-1,40
 521 72 521 72 638 72 c 0,41,42
 818 72 818 72 945 199 c 128,-1,43
 1072 326 1072 326 1072 504 c 0,44,45
 1072 599 1072 599 1035.5 681.5 c 128,-1,46
 999 764 999 764 938.5 819.5 c 128,-1,47
 878 875 878 875 800 906.5 c 128,-1,48
 722 938 722 938 638 938 c 0,34,35
EndSplineSet
EndChar

StartChar: ntilde
Encoding: 241 241 179
Width: 1071
GlyphClass: 2
Flags: W
LayerCount: 2
Fore
SplineSet
410 1372 m 0,0,1
 457 1372 457 1372 505.5 1346 c 128,-1,2
 554 1320 554 1320 596 1294.5 c 128,-1,3
 638 1269 638 1269 669 1269 c 0,4,5
 690 1269 690 1269 711 1291.5 c 128,-1,6
 732 1314 732 1314 732 1361 c 1,7,-1
 788 1352 l 1,8,9
 788 1299 788 1299 779 1269 c 0,10,11
 754 1175 754 1175 669 1175 c 0,12,13
 626 1175 626 1175 576.5 1203.5 c 128,-1,14
 527 1232 527 1232 483 1260 c 128,-1,15
 439 1288 439 1288 410 1288 c 0,16,17
 385 1288 385 1288 363 1266.5 c 128,-1,18
 341 1245 341 1245 340 1194 c 1,19,-1
 280 1194 l 1,20,21
 280 1245 280 1245 289 1278 c 0,22,23
 319 1372 319 1372 410 1372 c 0,0,1
143 1014 m 1,24,-1
 239 1014 l 1,25,26
 258 948 258 948 258 880 c 2,27,-1
 258 728 l 1,28,29
 313 853 313 853 410.5 941.5 c 128,-1,30
 508 1030 508 1030 600 1030 c 0,31,32
 702 1030 702 1030 772.5 973 c 128,-1,33
 843 916 843 916 874.5 827 c 128,-1,34
 906 738 906 738 906 626 c 2,35,-1
 906 0 l 1,36,-1
 818 0 l 1,37,-1
 818 626 l 2,38,39
 818 681 818 681 807.5 732 c 128,-1,40
 797 783 797 783 774 832 c 128,-1,41
 751 881 751 881 705.5 910.5 c 128,-1,42
 660 940 660 940 598 940 c 0,43,44
 539 940 539 940 475.5 894 c 128,-1,45
 412 848 412 848 365.5 781.5 c 128,-1,46
 319 715 319 715 288.5 640 c 128,-1,47
 258 565 258 565 258 508 c 2,48,-1
 258 0 l 1,49,-1
 168 0 l 1,50,-1
 168 880 l 2,51,52
 168 966 168 966 143 1014 c 1,24,-1
EndSplineSet
EndChar

StartChar: ograve
Encoding: 242 242 180
Width: 1282
GlyphClass: 2
Flags: W
LayerCount: 2
Fore
SplineSet
356 1459 m 1,0,-1
 526 1459 l 1,1,-1
 750 1194 l 1,2,-1
 656 1194 l 1,3,-1
 356 1459 l 1,0,-1
643 1030 m 0,4,5
 748 1030 748 1030 844 989 c 128,-1,6
 940 948 940 948 1010 878 c 128,-1,7
 1080 808 1080 808 1121 711 c 128,-1,8
 1162 614 1162 614 1162 508 c 0,9,10
 1162 401 1162 401 1121 304 c 128,-1,11
 1080 207 1080 207 1010 137.5 c 128,-1,12
 940 68 940 68 844 26.5 c 128,-1,13
 748 -15 748 -15 643 -15 c 0,14,15
 428 -15 428 -15 276 138 c 128,-1,16
 124 291 124 291 124 508 c 0,17,18
 124 650 124 650 193.5 770.5 c 128,-1,19
 263 891 263 891 382.5 960.5 c 128,-1,20
 502 1030 502 1030 643 1030 c 0,4,5
213 508 m 0,21,22
 213 329 213 329 339.5 201.5 c 128,-1,23
 466 74 466 74 645 74 c 128,-1,24
 824 74 824 74 950.5 201.5 c 128,-1,25
 1077 329 1077 329 1077 508 c 0,26,27
 1077 686 1077 686 950.5 813 c 128,-1,28
 824 940 824 940 645 940 c 128,-1,29
 466 940 466 940 339.5 813 c 128,-1,30
 213 686 213 686 213 508 c 0,21,22
EndSplineSet
EndChar

StartChar: oacute
Encoding: 243 243 181
Width: 1282
GlyphClass: 2
Flags: W
LayerCount: 2
Fore
SplineSet
752 1459 m 1,0,-1
 922 1459 l 1,1,-1
 620 1194 l 1,2,-1
 528 1194 l 1,3,-1
 752 1459 l 1,0,-1
643 1030 m 0,4,5
 748 1030 748 1030 844 989 c 128,-1,6
 940 948 940 948 1010 878 c 128,-1,7
 1080 808 1080 808 1121 711 c 128,-1,8
 1162 614 1162 614 1162 508 c 0,9,10
 1162 401 1162 401 1121 304 c 128,-1,11
 1080 207 1080 207 1010 137.5 c 128,-1,12
 940 68 940 68 844 26.5 c 128,-1,13
 748 -15 748 -15 643 -15 c 0,14,15
 428 -15 428 -15 276 138 c 128,-1,16
 124 291 124 291 124 508 c 0,17,18
 124 650 124 650 193.5 770.5 c 128,-1,19
 263 891 263 891 382.5 960.5 c 128,-1,20
 502 1030 502 1030 643 1030 c 0,4,5
213 508 m 0,21,22
 213 329 213 329 339.5 201.5 c 128,-1,23
 466 74 466 74 645 74 c 128,-1,24
 824 74 824 74 950.5 201.5 c 128,-1,25
 1077 329 1077 329 1077 508 c 0,26,27
 1077 686 1077 686 950.5 813 c 128,-1,28
 824 940 824 940 645 940 c 128,-1,29
 466 940 466 940 339.5 813 c 128,-1,30
 213 686 213 686 213 508 c 0,21,22
EndSplineSet
EndChar

StartChar: ocircumflex
Encoding: 244 244 182
Width: 1282
GlyphClass: 2
Flags: W
LayerCount: 2
Fore
SplineSet
607 1459 m 1,0,-1
 671 1459 l 1,1,-1
 914 1194 l 1,2,-1
 790 1194 l 1,3,-1
 638 1359 l 1,4,-1
 485 1194 l 1,5,-1
 365 1194 l 1,6,-1
 607 1459 l 1,0,-1
643 1030 m 0,7,8
 748 1030 748 1030 844 989 c 128,-1,9
 940 948 940 948 1010 878 c 128,-1,10
 1080 808 1080 808 1121 711 c 128,-1,11
 1162 614 1162 614 1162 508 c 0,12,13
 1162 401 1162 401 1121 304 c 128,-1,14
 1080 207 1080 207 1010 137.5 c 128,-1,15
 940 68 940 68 844 26.5 c 128,-1,16
 748 -15 748 -15 643 -15 c 0,17,18
 428 -15 428 -15 276 138 c 128,-1,19
 124 291 124 291 124 508 c 0,20,21
 124 650 124 650 193.5 770.5 c 128,-1,22
 263 891 263 891 382.5 960.5 c 128,-1,23
 502 1030 502 1030 643 1030 c 0,7,8
213 508 m 0,24,25
 213 329 213 329 339.5 201.5 c 128,-1,26
 466 74 466 74 645 74 c 128,-1,27
 824 74 824 74 950.5 201.5 c 128,-1,28
 1077 329 1077 329 1077 508 c 0,29,30
 1077 686 1077 686 950.5 813 c 128,-1,31
 824 940 824 940 645 940 c 128,-1,32
 466 940 466 940 339.5 813 c 128,-1,33
 213 686 213 686 213 508 c 0,24,25
EndSplineSet
EndChar

StartChar: otilde
Encoding: 245 245 183
Width: 1282
GlyphClass: 2
Flags: W
LayerCount: 2
Fore
SplineSet
508 1372 m 0,0,1
 556 1372 556 1372 604 1346 c 128,-1,2
 652 1320 652 1320 693.5 1294.5 c 128,-1,3
 735 1269 735 1269 767 1269 c 0,4,5
 789 1269 789 1269 810 1291.5 c 128,-1,6
 831 1314 831 1314 831 1361 c 1,7,-1
 886 1352 l 1,8,9
 886 1300 886 1300 878 1269 c 0,10,11
 853 1175 853 1175 767 1175 c 0,12,13
 724 1175 724 1175 674.5 1203.5 c 128,-1,14
 625 1232 625 1232 581 1260 c 128,-1,15
 537 1288 537 1288 508 1288 c 0,16,17
 483 1288 483 1288 461 1266.5 c 128,-1,18
 439 1245 439 1245 438 1194 c 1,19,-1
 378 1194 l 1,20,21
 378 1245 378 1245 387 1278 c 0,22,23
 417 1372 417 1372 508 1372 c 0,0,1
643 1030 m 0,24,25
 748 1030 748 1030 844 989 c 128,-1,26
 940 948 940 948 1010 878 c 128,-1,27
 1080 808 1080 808 1121 711 c 128,-1,28
 1162 614 1162 614 1162 508 c 0,29,30
 1162 401 1162 401 1121 304 c 128,-1,31
 1080 207 1080 207 1010 137.5 c 128,-1,32
 940 68 940 68 844 26.5 c 128,-1,33
 748 -15 748 -15 643 -15 c 0,34,35
 428 -15 428 -15 276 138 c 128,-1,36
 124 291 124 291 124 508 c 0,37,38
 124 650 124 650 193.5 770.5 c 128,-1,39
 263 891 263 891 382.5 960.5 c 128,-1,40
 502 1030 502 1030 643 1030 c 0,24,25
213 508 m 0,41,42
 213 329 213 329 339.5 201.5 c 128,-1,43
 466 74 466 74 645 74 c 128,-1,44
 824 74 824 74 950.5 201.5 c 128,-1,45
 1077 329 1077 329 1077 508 c 0,46,47
 1077 686 1077 686 950.5 813 c 128,-1,48
 824 940 824 940 645 940 c 128,-1,49
 466 940 466 940 339.5 813 c 128,-1,50
 213 686 213 686 213 508 c 0,41,42
EndSplineSet
EndChar

StartChar: odieresis
Encoding: 246 246 184
Width: 1282
GlyphClass: 2
Flags: W
LayerCount: 2
Fore
SplineSet
376 1278 m 128,-1,1
 376 1312 376 1312 400.5 1336.5 c 128,-1,2
 425 1361 425 1361 459 1361 c 128,-1,3
 493 1361 493 1361 518.5 1336.5 c 128,-1,4
 544 1312 544 1312 544 1278 c 128,-1,5
 544 1244 544 1244 518.5 1219 c 128,-1,6
 493 1194 493 1194 459 1194 c 128,-1,7
 425 1194 425 1194 400.5 1219 c 128,-1,0
 376 1244 376 1244 376 1278 c 128,-1,1
734 1278 m 128,-1,9
 734 1312 734 1312 759 1336.5 c 128,-1,10
 784 1361 784 1361 818 1361 c 0,11,12
 851 1361 851 1361 876.5 1336 c 128,-1,13
 902 1311 902 1311 902 1278 c 128,-1,14
 902 1245 902 1245 876.5 1219.5 c 128,-1,15
 851 1194 851 1194 818 1194 c 0,16,17
 784 1194 784 1194 759 1219 c 128,-1,8
 734 1244 734 1244 734 1278 c 128,-1,9
643 1030 m 0,18,19
 748 1030 748 1030 844 989 c 128,-1,20
 940 948 940 948 1010 878 c 128,-1,21
 1080 808 1080 808 1121 711 c 128,-1,22
 1162 614 1162 614 1162 508 c 0,23,24
 1162 401 1162 401 1121 304 c 128,-1,25
 1080 207 1080 207 1010 137.5 c 128,-1,26
 940 68 940 68 844 26.5 c 128,-1,27
 748 -15 748 -15 643 -15 c 0,28,29
 428 -15 428 -15 276 138 c 128,-1,30
 124 291 124 291 124 508 c 0,31,32
 124 650 124 650 193.5 770.5 c 128,-1,33
 263 891 263 891 382.5 960.5 c 128,-1,34
 502 1030 502 1030 643 1030 c 0,18,19
213 508 m 0,35,36
 213 329 213 329 339.5 201.5 c 128,-1,37
 466 74 466 74 645 74 c 128,-1,38
 824 74 824 74 950.5 201.5 c 128,-1,39
 1077 329 1077 329 1077 508 c 0,40,41
 1077 686 1077 686 950.5 813 c 128,-1,42
 824 940 824 940 645 940 c 128,-1,43
 466 940 466 940 339.5 813 c 128,-1,44
 213 686 213 686 213 508 c 0,35,36
EndSplineSet
EndChar

StartChar: divide
Encoding: 247 247 185
Width: 1078
GlyphClass: 2
Flags: W
LayerCount: 2
Fore
SplineSet
457 468 m 128,-1,1
 457 502 457 502 481.5 527.5 c 128,-1,2
 506 553 506 553 540 553 c 128,-1,3
 574 553 574 553 599 527.5 c 128,-1,4
 624 502 624 502 624 468 c 128,-1,5
 624 434 624 434 599 409.5 c 128,-1,6
 574 385 574 385 540 385 c 128,-1,7
 506 385 506 385 481.5 409.5 c 128,-1,0
 457 434 457 434 457 468 c 128,-1,1
457 1023 m 128,-1,9
 457 1057 457 1057 481.5 1082.5 c 128,-1,10
 506 1108 506 1108 540 1108 c 128,-1,11
 574 1108 574 1108 599 1082.5 c 128,-1,12
 624 1057 624 1057 624 1023 c 128,-1,13
 624 989 624 989 599 964.5 c 128,-1,14
 574 940 574 940 540 940 c 128,-1,15
 506 940 506 940 481.5 964.5 c 128,-1,8
 457 989 457 989 457 1023 c 128,-1,9
938 790 m 1,16,-1
 938 701 l 1,17,-1
 143 701 l 1,18,-1
 143 790 l 1,19,-1
 938 790 l 1,16,-1
EndSplineSet
EndChar

StartChar: oslash
Encoding: 248 248 186
Width: 1284
GlyphClass: 2
Flags: W
LayerCount: 2
Fore
SplineSet
929 1126 m 1,0,-1
 1012 1081 l 1,1,-1
 938 938 l 1,2,3
 1042 866 1042 866 1103 753 c 128,-1,4
 1164 640 1164 640 1164 508 c 0,5,6
 1164 401 1164 401 1123 304 c 128,-1,7
 1082 207 1082 207 1012 137.5 c 128,-1,8
 942 68 942 68 846 26.5 c 128,-1,9
 750 -15 750 -15 645 -15 c 0,10,11
 545 -15 545 -15 450 20 c 1,12,-1
 383 -109 l 1,13,-1
 302 -69 l 1,14,-1
 369 62 l 1,15,16
 257 132 257 132 190.5 250.5 c 128,-1,17
 124 369 124 369 124 508 c 0,18,19
 124 650 124 650 193.5 770.5 c 128,-1,20
 263 891 263 891 382.5 960.5 c 128,-1,21
 502 1030 502 1030 643 1030 c 0,22,23
 752 1030 752 1030 853 985 c 1,24,-1
 929 1126 l 1,0,-1
895 857 m 1,25,-1
 493 98 l 1,26,27
 565 72 565 72 645 72 c 0,28,29
 824 72 824 72 950.5 199 c 128,-1,30
 1077 326 1077 326 1077 504 c 0,31,32
 1077 613 1077 613 1028.5 705 c 128,-1,33
 980 797 980 797 895 857 c 1,25,-1
412 137 m 1,34,-1
 812 902 l 1,35,36
 729 938 729 938 643 938 c 0,37,38
 463 938 463 938 335.5 810.5 c 128,-1,39
 208 683 208 683 208 504 c 0,40,41
 208 390 208 390 263 293.5 c 128,-1,42
 318 197 318 197 412 137 c 1,34,-1
EndSplineSet
EndChar

StartChar: ugrave
Encoding: 249 249 187
Width: 1066
GlyphClass: 2
Flags: W
LayerCount: 2
Fore
SplineSet
235 1459 m 1,0,-1
 406 1459 l 1,1,-1
 628 1194 l 1,2,-1
 538 1194 l 1,3,-1
 235 1459 l 1,0,-1
168 1014 m 1,4,-1
 258 1014 l 1,5,-1
 258 387 l 2,6,7
 258 256 258 256 337 165 c 128,-1,8
 416 74 416 74 530 74 c 0,9,10
 645 74 645 74 728.5 165.5 c 128,-1,11
 812 257 812 257 812 387 c 2,12,-1
 812 1014 l 1,13,-1
 902 1014 l 1,14,-1
 902 387 l 2,15,16
 902 222 902 222 795 103.5 c 128,-1,17
 688 -15 688 -15 534 -15 c 0,18,19
 381 -15 381 -15 274.5 103.5 c 128,-1,20
 168 222 168 222 168 387 c 2,21,-1
 168 1014 l 1,4,-1
EndSplineSet
EndChar

StartChar: uacute
Encoding: 250 250 188
Width: 1066
GlyphClass: 2
Flags: W
LayerCount: 2
Fore
SplineSet
671 1459 m 1,0,-1
 842 1459 l 1,1,-1
 540 1194 l 1,2,-1
 448 1194 l 1,3,-1
 671 1459 l 1,0,-1
168 1014 m 1,4,-1
 258 1014 l 1,5,-1
 258 387 l 2,6,7
 258 256 258 256 337 165 c 128,-1,8
 416 74 416 74 530 74 c 0,9,10
 645 74 645 74 728.5 165.5 c 128,-1,11
 812 257 812 257 812 387 c 2,12,-1
 812 1014 l 1,13,-1
 902 1014 l 1,14,-1
 902 387 l 2,15,16
 902 222 902 222 795 103.5 c 128,-1,17
 688 -15 688 -15 534 -15 c 0,18,19
 381 -15 381 -15 274.5 103.5 c 128,-1,20
 168 222 168 222 168 387 c 2,21,-1
 168 1014 l 1,4,-1
EndSplineSet
EndChar

StartChar: ucircumflex
Encoding: 251 251 189
Width: 1066
GlyphClass: 2
Flags: W
LayerCount: 2
Fore
SplineSet
502 1459 m 1,0,-1
 566 1459 l 1,1,-1
 808 1194 l 1,2,-1
 687 1194 l 1,3,-1
 534 1359 l 1,4,-1
 383 1194 l 1,5,-1
 260 1194 l 1,6,-1
 502 1459 l 1,0,-1
168 1014 m 1,7,-1
 258 1014 l 1,8,-1
 258 387 l 2,9,10
 258 256 258 256 337 165 c 128,-1,11
 416 74 416 74 530 74 c 0,12,13
 645 74 645 74 728.5 165.5 c 128,-1,14
 812 257 812 257 812 387 c 2,15,-1
 812 1014 l 1,16,-1
 902 1014 l 1,17,-1
 902 387 l 2,18,19
 902 222 902 222 795 103.5 c 128,-1,20
 688 -15 688 -15 534 -15 c 0,21,22
 381 -15 381 -15 274.5 103.5 c 128,-1,23
 168 222 168 222 168 387 c 2,24,-1
 168 1014 l 1,7,-1
EndSplineSet
EndChar

StartChar: udieresis
Encoding: 252 252 190
Width: 1066
GlyphClass: 2
Flags: W
LayerCount: 2
Fore
SplineSet
278 1278 m 128,-1,1
 278 1312 278 1312 302.5 1336.5 c 128,-1,2
 327 1361 327 1361 361 1361 c 128,-1,3
 395 1361 395 1361 420.5 1336.5 c 128,-1,4
 446 1312 446 1312 446 1278 c 128,-1,5
 446 1244 446 1244 420.5 1219 c 128,-1,6
 395 1194 395 1194 361 1194 c 128,-1,7
 327 1194 327 1194 302.5 1219 c 128,-1,0
 278 1244 278 1244 278 1278 c 128,-1,1
636 1278 m 128,-1,9
 636 1312 636 1312 660 1336.5 c 128,-1,10
 684 1361 684 1361 718 1361 c 128,-1,11
 752 1361 752 1361 777.5 1336.5 c 128,-1,12
 803 1312 803 1312 803 1278 c 128,-1,13
 803 1244 803 1244 777.5 1219 c 128,-1,14
 752 1194 752 1194 718 1194 c 128,-1,15
 684 1194 684 1194 660 1219 c 128,-1,8
 636 1244 636 1244 636 1278 c 128,-1,9
168 1014 m 1,16,-1
 258 1014 l 1,17,-1
 258 387 l 2,18,19
 258 256 258 256 337 165 c 128,-1,20
 416 74 416 74 530 74 c 0,21,22
 645 74 645 74 728.5 165.5 c 128,-1,23
 812 257 812 257 812 387 c 2,24,-1
 812 1014 l 1,25,-1
 902 1014 l 1,26,-1
 902 387 l 2,27,28
 902 222 902 222 795 103.5 c 128,-1,29
 688 -15 688 -15 534 -15 c 0,30,31
 381 -15 381 -15 274.5 103.5 c 128,-1,32
 168 222 168 222 168 387 c 2,33,-1
 168 1014 l 1,16,-1
EndSplineSet
EndChar

StartChar: yacute
Encoding: 253 253 191
Width: 950
GlyphClass: 2
Flags: W
LayerCount: 2
Fore
SplineSet
611 1459 m 1,0,-1
 781 1459 l 1,1,-1
 481 1194 l 1,2,-1
 387 1194 l 1,3,-1
 611 1459 l 1,0,-1
333 -521 m 1,4,-1
 235 -521 l 1,5,-1
 432 -2 l 1,6,-1
 36 1014 l 1,7,-1
 132 1014 l 1,8,-1
 481 119 l 1,9,-1
 822 1014 l 1,10,-1
 916 1014 l 1,11,-1
 333 -521 l 1,4,-1
EndSplineSet
EndChar

StartChar: thorn
Encoding: 254 254 192
Width: 1232
GlyphClass: 2
Flags: W
LayerCount: 2
Fore
SplineSet
258 -508 m 1,0,-1
 168 -508 l 1,1,-1
 168 1493 l 1,2,-1
 258 1493 l 1,3,-1
 258 814 l 1,4,5
 323 913 323 913 423 971.5 c 128,-1,6
 523 1030 523 1030 638 1030 c 0,7,8
 768 1030 768 1030 878 958.5 c 128,-1,9
 988 887 988 887 1050.5 767 c 128,-1,10
 1113 647 1113 647 1113 508 c 0,11,12
 1113 368 1113 368 1050.5 247.5 c 128,-1,13
 988 127 988 127 878 56 c 128,-1,14
 768 -15 768 -15 638 -15 c 0,15,16
 523 -15 523 -15 423 43 c 128,-1,17
 323 101 323 101 258 199 c 1,18,-1
 258 -508 l 1,0,-1
258 544 m 1,19,-1
 258 477 l 1,20,21
 268 308 268 308 377.5 193.5 c 128,-1,22
 487 79 487 79 636 79 c 0,23,24
 793 79 793 79 907 205 c 128,-1,25
 1021 331 1021 331 1021 510 c 0,26,27
 1021 690 1021 690 907 816 c 128,-1,28
 793 942 793 942 636 942 c 0,29,30
 487 942 487 942 377.5 827.5 c 128,-1,31
 268 713 268 713 258 544 c 1,19,-1
EndSplineSet
EndChar

StartChar: ydieresis
Encoding: 255 255 193
Width: 946
GlyphClass: 2
Flags: W
LayerCount: 2
Fore
SplineSet
218 1292 m 0,0,1
 218 1326 218 1326 243.5 1351.5 c 128,-1,2
 269 1377 269 1377 302 1377 c 128,-1,3
 335 1377 335 1377 360 1351.5 c 128,-1,4
 385 1326 385 1326 385 1292 c 128,-1,5
 385 1258 385 1258 360 1233.5 c 128,-1,6
 335 1209 335 1209 302 1209 c 128,-1,7
 269 1209 269 1209 243.5 1234 c 128,-1,8
 218 1259 218 1259 218 1292 c 0,0,1
575 1292 m 128,-1,10
 575 1326 575 1326 600.5 1351.5 c 128,-1,11
 626 1377 626 1377 660 1377 c 128,-1,12
 694 1377 694 1377 718.5 1351.5 c 128,-1,13
 743 1326 743 1326 743 1292 c 128,-1,14
 743 1258 743 1258 718.5 1233.5 c 128,-1,15
 694 1209 694 1209 660 1209 c 128,-1,16
 626 1209 626 1209 600.5 1233.5 c 128,-1,9
 575 1258 575 1258 575 1292 c 128,-1,10
36 1014 m 1,17,-1
 128 1014 l 1,18,-1
 477 119 l 1,19,-1
 818 1014 l 1,20,-1
 914 1014 l 1,21,-1
 331 -521 l 1,22,-1
 235 -521 l 1,23,-1
 432 -2 l 1,24,-1
 36 1014 l 1,17,-1
EndSplineSet
EndChar

StartChar: dotlessi
Encoding: 305 305 194
Width: 422
GlyphClass: 2
Flags: W
LayerCount: 2
Fore
SplineSet
258 0 m 1,0,-1
 168 0 l 1,1,-1
 168 1014 l 1,2,-1
 258 1014 l 1,3,-1
 258 0 l 1,0,-1
EndSplineSet
EndChar

StartChar: Lslash
Encoding: 321 321 195
Width: 1080
GlyphClass: 2
Flags: W
LayerCount: 2
Fore
SplineSet
1012 0 m 1,0,-1
 143 0 l 1,1,-1
 143 508 l 1,2,-1
 -15 367 l 1,3,-1
 -15 485 l 1,4,-1
 143 626 l 1,5,-1
 143 1493 l 1,6,-1
 233 1493 l 1,7,-1
 233 707 l 1,8,-1
 579 1014 l 1,9,-1
 579 895 l 1,10,-1
 233 589 l 1,11,-1
 233 90 l 1,12,-1
 1012 90 l 1,13,-1
 1012 0 l 1,0,-1
EndSplineSet
EndChar

StartChar: lslash
Encoding: 322 322 196
Width: 373
GlyphClass: 2
Flags: W
LayerCount: 2
Fore
SplineSet
233 0 m 1,0,-1
 143 0 l 1,1,-1
 143 508 l 1,2,-1
 30 406 l 1,3,-1
 30 526 l 1,4,-1
 143 626 l 1,5,-1
 143 1493 l 1,6,-1
 233 1493 l 1,7,-1
 233 707 l 1,8,-1
 346 808 l 1,9,-1
 346 690 l 1,10,-1
 233 589 l 1,11,-1
 233 0 l 1,0,-1
EndSplineSet
EndChar

StartChar: OE
Encoding: 338 338 197
Width: 1920
GlyphClass: 2
Flags: W
LayerCount: 2
Fore
SplineSet
1081 912 m 1,0,-1
 1802 912 l 1,1,-1
 1802 822 l 1,2,-1
 1083 822 l 1,3,-1
 1083 90 l 1,4,-1
 1862 90 l 1,5,-1
 1862 0 l 1,6,-1
 1030 0 l 1,7,8
 952 -15 952 -15 880 -15 c 0,9,10
 726 -15 726 -15 586 45 c 128,-1,11
 446 105 446 105 345 207 c 128,-1,12
 244 309 244 309 184 449.5 c 128,-1,13
 124 590 124 590 124 745 c 128,-1,14
 124 900 124 900 184 1041 c 128,-1,15
 244 1182 244 1182 345 1284 c 128,-1,16
 446 1386 446 1386 586 1446 c 128,-1,17
 726 1506 726 1506 880 1506 c 0,18,19
 962 1506 962 1506 1030 1493 c 1,20,-1
 1860 1493 l 1,21,-1
 1860 1403 l 1,22,-1
 1081 1403 l 1,23,-1
 1081 912 l 1,0,-1
994 83 m 1,24,-1
 994 1408 l 1,25,26
 942 1417 942 1417 880 1417 c 0,27,28
 698 1417 698 1417 544.5 1327 c 128,-1,29
 391 1237 391 1237 302 1082.5 c 128,-1,30
 213 928 213 928 213 745 c 0,31,32
 213 609 213 609 265.5 485 c 128,-1,33
 318 361 318 361 407 271 c 128,-1,34
 496 181 496 181 620 127.5 c 128,-1,35
 744 74 744 74 880 74 c 0,36,37
 915 74 915 74 994 83 c 1,24,-1
EndSplineSet
EndChar

StartChar: oe
Encoding: 339 339 198
Width: 2125
GlyphClass: 2
Flags: W
LayerCount: 2
Fore
SplineSet
213 508 m 0,0,1
 213 329 213 329 339.5 201.5 c 128,-1,2
 466 74 466 74 645 74 c 128,-1,3
 824 74 824 74 950.5 201.5 c 128,-1,4
 1077 329 1077 329 1077 508 c 0,5,6
 1077 686 1077 686 950.5 813 c 128,-1,7
 824 940 824 940 645 940 c 128,-1,8
 466 940 466 940 339.5 813 c 128,-1,9
 213 686 213 686 213 508 c 0,0,1
2006 504 m 1,10,-1
 1164 504 l 1,11,12
 1164 325 1164 325 1275 202 c 128,-1,13
 1386 79 1386 79 1540 79 c 0,14,15
 1638 79 1638 79 1721.5 131.5 c 128,-1,16
 1805 184 1805 184 1856 278 c 1,17,-1
 1934 233 l 1,18,19
 1872 121 1872 121 1767.5 53 c 128,-1,20
 1663 -15 1663 -15 1540 -15 c 0,21,22
 1399 -15 1399 -15 1285 68.5 c 128,-1,23
 1171 152 1171 152 1117 289 c 1,24,25
 1052 152 1052 152 924 68.5 c 128,-1,26
 796 -15 796 -15 643 -15 c 0,27,28
 428 -15 428 -15 276 138 c 128,-1,29
 124 291 124 291 124 508 c 0,30,31
 124 650 124 650 193.5 770.5 c 128,-1,32
 263 891 263 891 382.5 960.5 c 128,-1,33
 502 1030 502 1030 643 1030 c 0,34,35
 796 1030 796 1030 924 946 c 128,-1,36
 1052 862 1052 862 1117 726 c 1,37,38
 1171 862 1171 862 1285 946 c 128,-1,39
 1399 1030 1399 1030 1538 1030 c 0,40,41
 1720 1030 1720 1030 1853 890.5 c 128,-1,42
 1986 751 1986 751 2003 553 c 1,43,-1
 2006 504 l 1,10,-1
1173 593 m 1,44,-1
 1909 593 l 1,45,46
 1882 745 1882 745 1778 843.5 c 128,-1,47
 1674 942 1674 942 1540 942 c 0,48,49
 1407 942 1407 942 1303.5 843.5 c 128,-1,50
 1200 745 1200 745 1173 593 c 1,44,-1
EndSplineSet
EndChar

StartChar: Scaron
Encoding: 352 352 199
Width: 1076
GlyphClass: 2
Flags: W
LayerCount: 2
Fore
SplineSet
566 1583 m 1,0,-1
 502 1583 l 1,1,-1
 260 1847 l 1,2,-1
 383 1847 l 1,3,-1
 534 1683 l 1,4,-1
 687 1847 l 1,5,-1
 808 1847 l 1,6,-1
 566 1583 l 1,0,-1
914 1229 m 1,7,-1
 831 1200 l 1,8,9
 794 1307 794 1307 713.5 1362 c 128,-1,10
 633 1417 633 1417 538 1417 c 0,11,12
 424 1417 424 1417 351 1343 c 128,-1,13
 278 1269 278 1269 278 1162 c 0,14,15
 278 1107 278 1107 303 1062 c 128,-1,16
 328 1017 328 1017 370 985 c 128,-1,17
 412 953 412 953 466.5 925.5 c 128,-1,18
 521 898 521 898 581.5 873 c 128,-1,19
 642 848 642 848 702.5 820.5 c 128,-1,20
 763 793 763 793 817.5 757 c 128,-1,21
 872 721 872 721 914 677 c 128,-1,22
 956 633 956 633 981 569 c 128,-1,23
 1006 505 1006 505 1006 427 c 0,24,25
 1006 297 1006 297 939 194 c 128,-1,26
 872 91 872 91 764.5 37 c 128,-1,27
 657 -17 657 -17 534 -17 c 0,28,29
 453 -17 453 -17 379 9 c 128,-1,30
 305 35 305 35 241 86.5 c 128,-1,31
 177 138 177 138 132 224 c 128,-1,32
 87 310 87 310 72 421 c 1,33,-1
 161 432 l 1,34,35
 174 340 174 340 210 269.5 c 128,-1,36
 246 199 246 199 298 157.5 c 128,-1,37
 350 116 350 116 409 95.5 c 128,-1,38
 468 75 468 75 534 75 c 0,39,40
 633 75 633 75 719 116.5 c 128,-1,41
 805 158 805 158 860.5 240.5 c 128,-1,42
 916 323 916 323 916 430 c 0,43,44
 916 497 916 497 891 551 c 128,-1,45
 866 605 866 605 824 642 c 128,-1,46
 782 679 782 679 727.5 710 c 128,-1,47
 673 741 673 741 612.5 766.5 c 128,-1,48
 552 792 552 792 491.5 818 c 128,-1,49
 431 844 431 844 376.5 876 c 128,-1,50
 322 908 322 908 280 946 c 128,-1,51
 238 984 238 984 213 1039.5 c 128,-1,52
 188 1095 188 1095 188 1164 c 0,53,54
 188 1307 188 1307 286.5 1409 c 128,-1,55
 385 1511 385 1511 538 1511 c 0,56,57
 658 1511 658 1511 763 1436.5 c 128,-1,58
 868 1362 868 1362 914 1229 c 1,7,-1
EndSplineSet
EndChar

StartChar: scaron
Encoding: 353 353 200
Width: 791
GlyphClass: 2
Flags: W
LayerCount: 2
Fore
SplineSet
432 1104 m 1,0,-1
 367 1104 l 1,1,-1
 126 1370 l 1,2,-1
 248 1370 l 1,3,-1
 401 1207 l 1,4,-1
 553 1370 l 1,5,-1
 673 1370 l 1,6,-1
 432 1104 l 1,0,-1
662 835 m 1,7,-1
 579 808 l 1,8,9
 556 875 556 875 507 908.5 c 128,-1,10
 458 942 458 942 401 942 c 0,11,12
 334 942 334 942 286.5 900 c 128,-1,13
 239 858 239 858 239 786 c 0,14,15
 239 743 239 743 265.5 709 c 128,-1,16
 292 675 292 675 335 652 c 128,-1,17
 378 629 378 629 429.5 607.5 c 128,-1,18
 481 586 481 586 533 559.5 c 128,-1,19
 585 533 585 533 628 500 c 128,-1,20
 671 467 671 467 697.5 414 c 128,-1,21
 724 361 724 361 724 293 c 0,22,23
 724 154 724 154 624 68.5 c 128,-1,24
 524 -17 524 -17 393 -17 c 0,25,26
 317 -17 317 -17 251.5 13.5 c 128,-1,27
 186 44 186 44 136 115 c 128,-1,28
 86 186 86 186 72 289 c 1,29,-1
 161 302 l 1,30,31
 175 188 175 188 242 130 c 128,-1,32
 309 72 309 72 396 72 c 0,33,34
 492 72 492 72 564 134 c 128,-1,35
 636 196 636 196 636 295 c 0,36,37
 636 349 636 349 609 390.5 c 128,-1,38
 582 432 582 432 539.5 458 c 128,-1,39
 497 484 497 484 445 507 c 128,-1,40
 393 530 393 530 341 554 c 128,-1,41
 289 578 289 578 246.5 606.5 c 128,-1,42
 204 635 204 635 177 681.5 c 128,-1,43
 150 728 150 728 150 788 c 0,44,45
 150 902 150 902 223.5 967 c 128,-1,46
 297 1032 297 1032 401 1032 c 0,47,48
 486 1032 486 1032 558.5 981.5 c 128,-1,49
 631 931 631 931 662 835 c 1,7,-1
EndSplineSet
EndChar

StartChar: Ydieresis
Encoding: 376 376 201
Width: 1228
GlyphClass: 2
Flags: W
LayerCount: 2
Fore
SplineSet
356 1694 m 128,-1,1
 356 1728 356 1728 380.5 1753.5 c 128,-1,2
 405 1779 405 1779 438 1779 c 0,3,4
 472 1779 472 1779 496.5 1753.5 c 128,-1,5
 521 1728 521 1728 521 1694 c 128,-1,6
 521 1660 521 1660 496.5 1636 c 128,-1,7
 472 1612 472 1612 438 1612 c 128,-1,8
 404 1612 404 1612 380 1636 c 128,-1,0
 356 1660 356 1660 356 1694 c 128,-1,1
714 1694 m 128,-1,10
 714 1728 714 1728 738.5 1753.5 c 128,-1,11
 763 1779 763 1779 797 1779 c 128,-1,12
 831 1779 831 1779 855.5 1753.5 c 128,-1,13
 880 1728 880 1728 880 1694 c 128,-1,14
 880 1660 880 1660 855.5 1636 c 128,-1,15
 831 1612 831 1612 797 1612 c 128,-1,16
 763 1612 763 1612 738.5 1636 c 128,-1,9
 714 1660 714 1660 714 1694 c 128,-1,10
36 1493 m 1,17,-1
 141 1493 l 1,18,-1
 615 741 l 1,19,-1
 1090 1493 l 1,20,-1
 1194 1493 l 1,21,-1
 660 645 l 1,22,-1
 660 0 l 1,23,-1
 571 0 l 1,24,-1
 571 645 l 1,25,-1
 36 1493 l 1,17,-1
EndSplineSet
EndChar

StartChar: Zcaron
Encoding: 381 381 202
Width: 1185
GlyphClass: 2
Flags: W
LayerCount: 2
Fore
SplineSet
626 1583 m 1,0,-1
 562 1583 l 1,1,-1
 320 1847 l 1,2,-1
 440 1847 l 1,3,-1
 593 1683 l 1,4,-1
 745 1847 l 1,5,-1
 869 1847 l 1,6,-1
 626 1583 l 1,0,-1
134 1493 m 1,7,-1
 1130 1493 l 1,8,-1
 203 90 l 1,9,-1
 1153 90 l 1,10,-1
 1121 0 l 1,11,-1
 36 0 l 1,12,-1
 965 1403 l 1,13,-1
 105 1403 l 1,14,-1
 134 1493 l 1,7,-1
EndSplineSet
EndChar

StartChar: zcaron
Encoding: 382 382 203
Width: 888
GlyphClass: 2
Flags: W
LayerCount: 2
Fore
SplineSet
508 1104 m 1,0,-1
 440 1104 l 1,1,-1
 199 1370 l 1,2,-1
 322 1370 l 1,3,-1
 474 1207 l 1,4,-1
 626 1370 l 1,5,-1
 750 1370 l 1,6,-1
 508 1104 l 1,0,-1
158 1014 m 1,7,-1
 853 1014 l 1,8,-1
 205 90 l 1,9,-1
 850 90 l 1,10,-1
 822 0 l 1,11,-1
 36 0 l 1,12,-1
 687 925 l 1,13,-1
 128 925 l 1,14,-1
 158 1014 l 1,7,-1
EndSplineSet
EndChar

StartChar: florin
Encoding: 402 402 204
Width: 809
GlyphClass: 2
Flags: W
LayerCount: 2
Fore
SplineSet
886 875 m 1,0,-1
 853 786 l 1,1,-1
 472 786 l 1,2,-1
 342 141 l 2,3,4
 329 61 329 61 290 1 c 128,-1,5
 251 -59 251 -59 194.5 -94.5 c 128,-1,6
 138 -130 138 -130 71 -147 c 128,-1,7
 4 -164 4 -164 -74 -164 c 1,8,-1
 -74 -105 l 1,9,10
 51 -105 51 -105 141.5 -35 c 128,-1,11
 232 35 232 35 252 158 c 1,12,-1
 378 786 l 1,13,-1
 190 786 l 1,14,-1
 222 875 l 1,15,-1
 396 875 l 1,16,-1
 463 1202 l 2,17,18
 492 1357 492 1357 605.5 1431.5 c 128,-1,19
 719 1506 719 1506 880 1506 c 1,20,-1
 880 1448 l 1,21,22
 755 1448 755 1448 664 1378 c 128,-1,23
 573 1308 573 1308 553 1184 c 1,24,-1
 491 875 l 1,25,-1
 886 875 l 1,0,-1
EndSplineSet
EndChar

StartChar: dotlessj
Encoding: 567 567 205
Width: 415
GlyphClass: 2
Flags: W
LayerCount: 2
Fore
SplineSet
168 1014 m 1,0,-1
 258 1014 l 1,1,-1
 258 2 l 2,2,3
 258 -127 258 -127 174 -219.5 c 128,-1,4
 90 -312 90 -312 -30 -312 c 1,5,-1
 -30 -235 l 1,6,7
 51 -235 51 -235 109.5 -164.5 c 128,-1,8
 168 -94 168 -94 168 2 c 2,9,-1
 168 1014 l 1,0,-1
EndSplineSet
EndChar

StartChar: circumflex
Encoding: 710 710 206
Width: 690
GlyphClass: 2
Flags: W
LayerCount: 2
Fore
SplineSet
314 1728 m 1,0,-1
 378 1728 l 1,1,-1
 620 1461 l 1,2,-1
 500 1461 l 1,3,-1
 346 1627 l 1,4,-1
 195 1461 l 1,5,-1
 72 1461 l 1,6,-1
 314 1728 l 1,0,-1
EndSplineSet
EndChar

StartChar: caron
Encoding: 711 711 207
Width: 690
GlyphClass: 2
Flags: W
LayerCount: 2
Fore
SplineSet
378 1461 m 1,0,-1
 314 1461 l 1,1,-1
 72 1728 l 1,2,-1
 195 1728 l 1,3,-1
 346 1565 l 1,4,-1
 500 1728 l 1,5,-1
 620 1728 l 1,6,-1
 378 1461 l 1,0,-1
EndSplineSet
EndChar

StartChar: dotaccent
Encoding: 729 729 208
Width: 570
GlyphClass: 2
Flags: W
LayerCount: 2
Fore
SplineSet
203 1323 m 0,0,1
 203 1356 203 1356 228 1381 c 128,-1,2
 253 1406 253 1406 286 1406 c 0,3,4
 320 1406 320 1406 344.5 1381 c 128,-1,5
 369 1356 369 1356 369 1323 c 0,6,7
 369 1289 369 1289 344.5 1263.5 c 128,-1,8
 320 1238 320 1238 286 1238 c 0,9,10
 253 1238 253 1238 228 1263.5 c 128,-1,11
 203 1289 203 1289 203 1323 c 0,0,1
EndSplineSet
EndChar

StartChar: ring
Encoding: 730 730 209
Width: 570
GlyphClass: 2
Flags: W
LayerCount: 2
Fore
SplineSet
286 1551 m 0,0,1
 376 1551 376 1551 439 1489 c 128,-1,2
 502 1427 502 1427 502 1337 c 0,3,4
 502 1248 502 1248 439 1184.5 c 128,-1,5
 376 1121 376 1121 286 1121 c 0,6,7
 198 1121 198 1121 135 1184.5 c 128,-1,8
 72 1248 72 1248 72 1337 c 0,9,10
 72 1427 72 1427 134.5 1489 c 128,-1,11
 197 1551 197 1551 286 1551 c 0,0,1
161 1337 m 128,-1,13
 161 1286 161 1286 198 1248.5 c 128,-1,14
 235 1211 235 1211 286 1211 c 0,15,16
 338 1211 338 1211 375 1248.5 c 128,-1,17
 412 1286 412 1286 412 1337 c 0,18,19
 412 1389 412 1389 375.5 1425 c 128,-1,20
 339 1461 339 1461 286 1461 c 0,21,22
 235 1461 235 1461 198 1424.5 c 128,-1,12
 161 1388 161 1388 161 1337 c 128,-1,13
EndSplineSet
EndChar

StartChar: ogonek
Encoding: 731 731 210
Width: 603
GlyphClass: 2
Flags: W
LayerCount: 2
Fore
SplineSet
419 -289 m 1,0,-1
 463 -342 l 1,1,2
 392 -391 392 -391 316 -391 c 0,3,4
 244 -391 244 -391 193.5 -345 c 128,-1,5
 143 -299 143 -299 143 -226 c 0,6,7
 143 -125 143 -125 262 0 c 1,8,-1
 359 0 l 1,9,10
 235 -125 235 -125 235 -224 c 0,11,12
 235 -265 235 -265 266.5 -290.5 c 128,-1,13
 298 -316 298 -316 342 -316 c 0,14,15
 380 -316 380 -316 419 -289 c 1,0,-1
EndSplineSet
EndChar

StartChar: tilde
Encoding: 732 732 211
Width: 648
GlyphClass: 2
Flags: W
LayerCount: 2
Fore
SplineSet
521 1489 m 1,0,-1
 579 1489 l 1,1,2
 579 1445 579 1445 571 1397 c 1,3,4
 546 1305 546 1305 459 1305 c 0,5,6
 392 1305 392 1305 307 1367 c 0,7,8
 238 1414 238 1414 199 1414 c 0,9,10
 176 1414 176 1414 154.5 1393.5 c 128,-1,11
 133 1373 133 1373 132 1323 c 1,12,-1
 72 1323 l 1,13,14
 72 1372 72 1372 81 1406 c 0,15,16
 108 1502 108 1502 199 1502 c 0,17,18
 261 1502 261 1502 356 1442 c 0,19,20
 426 1397 426 1397 459 1397 c 0,21,22
 481 1397 481 1397 501 1419 c 128,-1,23
 521 1441 521 1441 521 1489 c 1,0,-1
EndSplineSet
EndChar

StartChar: hungarumlaut
Encoding: 733 733 212
Width: 1017
GlyphClass: 2
Flags: W
LayerCount: 2
Fore
SplineSet
430 1551 m 1,0,-1
 598 1551 l 1,1,-1
 312 1194 l 1,2,-1
 203 1194 l 1,3,-1
 430 1551 l 1,0,-1
818 1551 m 1,4,-1
 985 1551 l 1,5,-1
 698 1194 l 1,6,-1
 591 1194 l 1,7,-1
 818 1551 l 1,4,-1
EndSplineSet
EndChar

StartChar: uni0E01
Encoding: 3585 3585 214
Width: 1179
GlyphClass: 2
Flags: W
LayerCount: 2
Fore
SplineSet
218 859 m 1,0,-1
 385 763 l 1,1,2
 319 732 319 732 288.5 685 c 128,-1,3
 258 638 258 638 258 553 c 2,4,-1
 258 0 l 1,5,-1
 168 0 l 1,6,-1
 168 553 l 2,7,8
 168 613 168 613 202 668 c 128,-1,9
 236 723 236 723 284 759 c 1,10,-1
 128 842 l 1,11,12
 147 922 147 922 185.5 986.5 c 128,-1,13
 224 1051 224 1051 269.5 1091.5 c 128,-1,14
 315 1132 315 1132 369.5 1159.5 c 128,-1,15
 424 1187 424 1187 473.5 1198 c 128,-1,16
 523 1209 523 1209 571 1209 c 0,17,18
 691 1209 691 1209 793 1149.5 c 128,-1,19
 895 1090 895 1090 954.5 987 c 128,-1,20
 1014 884 1014 884 1014 763 c 2,21,-1
 1014 0 l 1,22,-1
 925 0 l 1,23,-1
 925 763 l 2,24,25
 925 844 925 844 895 912.5 c 128,-1,26
 865 981 865 981 815 1025.5 c 128,-1,27
 765 1070 765 1070 702 1094.5 c 128,-1,28
 639 1119 639 1119 571 1119 c 0,29,30
 454 1119 454 1119 355 1052.5 c 128,-1,31
 256 986 256 986 218 859 c 1,0,-1
EndSplineSet
EndChar

StartChar: uni0E02
Encoding: 3586 3586 215
Width: 1221
GlyphClass: 2
Flags: W
LayerCount: 2
Fore
SplineSet
361 1104 m 1,0,-1
 391 1194 l 1,1,-1
 611 1194 l 1,2,-1
 611 835 l 2,3,4
 611 767 611 767 563 719 c 128,-1,5
 515 671 515 671 448 671 c 2,6,-1
 258 671 l 1,7,-1
 258 430 l 2,8,9
 258 282 258 282 361 178 c 128,-1,10
 464 74 464 74 611 74 c 0,11,12
 759 74 759 74 863 178 c 128,-1,13
 967 282 967 282 967 430 c 2,14,-1
 967 1194 l 1,15,-1
 1057 1194 l 1,16,-1
 1057 430 l 2,17,18
 1057 247 1057 247 926 116 c 128,-1,19
 795 -15 795 -15 611 -15 c 0,20,21
 428 -15 428 -15 298 116 c 128,-1,22
 168 247 168 247 168 430 c 2,23,-1
 168 761 l 1,24,-1
 448 761 l 2,25,26
 480 761 480 761 500.5 782.5 c 128,-1,27
 521 804 521 804 521 835 c 2,28,-1
 521 1104 l 1,29,-1
 361 1104 l 1,0,-1
EndSplineSet
EndChar

StartChar: uni0E03
Encoding: 3587 3587 216
Width: 1221
GlyphClass: 2
Flags: W
LayerCount: 2
Fore
SplineSet
197 1130 m 1,0,-1
 239 1209 l 1,1,2
 334 1157 334 1157 406 1053 c 1,3,-1
 526 1194 l 1,4,-1
 611 1194 l 1,5,-1
 611 835 l 2,6,7
 611 767 611 767 563 719 c 128,-1,8
 515 671 515 671 448 671 c 2,9,-1
 258 671 l 1,10,-1
 258 430 l 2,11,12
 258 282 258 282 361.5 178 c 128,-1,13
 465 74 465 74 611 74 c 0,14,15
 759 74 759 74 863 178 c 128,-1,16
 967 282 967 282 967 430 c 2,17,-1
 967 1194 l 1,18,-1
 1057 1194 l 1,19,-1
 1057 430 l 2,20,21
 1057 246 1057 246 926.5 115.5 c 128,-1,22
 796 -15 796 -15 611 -15 c 0,23,24
 428 -15 428 -15 298 115.5 c 128,-1,25
 168 246 168 246 168 430 c 2,26,-1
 168 761 l 1,27,-1
 448 761 l 2,28,29
 477 761 477 761 499 783 c 128,-1,30
 521 805 521 805 521 835 c 2,31,-1
 521 1053 l 1,32,-1
 385 889 l 1,33,34
 339 996 339 996 289 1053 c 0,35,36
 248 1102 248 1102 197 1130 c 1,0,-1
EndSplineSet
EndChar

StartChar: uni0E04
Encoding: 3588 3588 217
Width: 1221
GlyphClass: 2
Flags: W
LayerCount: 2
Fore
SplineSet
611 643 m 1,0,-1
 581 553 l 1,1,-1
 258 553 l 1,2,-1
 258 0 l 1,3,-1
 168 0 l 1,4,-1
 168 763 l 2,5,6
 168 948 168 948 298 1078.5 c 128,-1,7
 428 1209 428 1209 611 1209 c 0,8,9
 796 1209 796 1209 926.5 1078.5 c 128,-1,10
 1057 948 1057 948 1057 763 c 2,11,-1
 1057 0 l 1,12,-1
 967 0 l 1,13,-1
 967 763 l 2,14,15
 967 911 967 911 863 1015 c 128,-1,16
 759 1119 759 1119 611 1119 c 128,-1,17
 463 1119 463 1119 360.5 1015.5 c 128,-1,18
 258 912 258 912 258 763 c 2,19,-1
 258 643 l 1,20,-1
 611 643 l 1,0,-1
EndSplineSet
EndChar

StartChar: uni0E05
Encoding: 3589 3589 218
Width: 1221
GlyphClass: 2
Flags: W
LayerCount: 2
Fore
SplineSet
611 643 m 1,0,-1
 581 553 l 1,1,-1
 258 553 l 1,2,-1
 258 0 l 1,3,-1
 168 0 l 1,4,-1
 168 812 l 2,5,6
 168 932 168 932 217.5 1031 c 128,-1,7
 267 1130 267 1130 361 1191 c 2,8,-1
 396 1215 l 1,9,-1
 421 1179 l 2,10,11
 528 1021 528 1021 609 1021 c 1,12,13
 704 1027 704 1027 803 1175 c 2,14,-1
 826 1211 l 1,15,-1
 861 1191 l 2,16,17
 957 1135 957 1135 1006 1034 c 128,-1,18
 1055 933 1055 933 1057 812 c 2,19,-1
 1057 0 l 1,20,-1
 967 0 l 1,21,-1
 967 812 l 2,22,23
 967 993 967 993 848 1090 c 1,24,25
 726 931 726 931 611 931 c 0,26,27
 493 931 493 931 376 1090 c 1,28,29
 258 996 258 996 258 812 c 2,30,-1
 258 643 l 1,31,-1
 611 643 l 1,0,-1
EndSplineSet
EndChar

StartChar: uni0E06
Encoding: 3590 3590 219
Width: 1221
GlyphClass: 2
Flags: W
LayerCount: 2
Fore
SplineSet
258 671 m 1,0,-1
 258 555 l 2,1,2
 258 481 258 481 301 394.5 c 128,-1,3
 344 308 344 308 408.5 238 c 128,-1,4
 473 168 473 168 553 121 c 128,-1,5
 633 74 633 74 701 74 c 0,6,7
 762 74 762 74 810 95.5 c 128,-1,8
 858 117 858 117 887 152 c 128,-1,9
 916 187 916 187 934.5 235 c 128,-1,10
 953 283 953 283 960 330 c 128,-1,11
 967 377 967 377 967 430 c 2,12,-1
 967 1194 l 1,13,-1
 1057 1194 l 1,14,-1
 1057 430 l 2,15,16
 1057 337 1057 337 1036 258 c 128,-1,17
 1015 179 1015 179 973 117 c 128,-1,18
 931 55 931 55 861.5 20 c 128,-1,19
 792 -15 792 -15 701 -15 c 0,20,21
 585 -15 585 -15 463 86.5 c 128,-1,22
 341 188 341 188 258 333 c 1,23,-1
 258 0 l 1,24,-1
 168 0 l 1,25,-1
 168 761 l 1,26,-1
 448 761 l 2,27,28
 477 761 477 761 499 783 c 128,-1,29
 521 805 521 805 521 835 c 2,30,-1
 521 1053 l 1,31,-1
 385 889 l 1,32,33
 339 996 339 996 289 1053 c 0,34,35
 248 1102 248 1102 197 1130 c 1,36,-1
 239 1209 l 1,37,38
 334 1157 334 1157 406 1053 c 1,39,-1
 526 1194 l 1,40,-1
 611 1194 l 1,41,-1
 611 835 l 2,42,43
 611 767 611 767 563 719 c 128,-1,44
 515 671 515 671 448 671 c 2,45,-1
 258 671 l 1,0,-1
EndSplineSet
EndChar

StartChar: uni0E07
Encoding: 3591 3591 220
Width: 1221
GlyphClass: 2
Flags: W
LayerCount: 2
Fore
SplineSet
258 867 m 1,0,-1
 258 430 l 2,1,2
 258 282 258 282 361 178 c 128,-1,3
 464 74 464 74 611 74 c 0,4,5
 759 74 759 74 863 178 c 128,-1,6
 967 282 967 282 967 430 c 2,7,-1
 967 750 l 2,8,9
 967 898 967 898 863 1001 c 128,-1,10
 759 1104 759 1104 611 1104 c 1,11,-1
 611 1194 l 1,12,13
 795 1194 795 1194 926 1063.5 c 128,-1,14
 1057 933 1057 933 1057 750 c 2,15,-1
 1057 430 l 2,16,17
 1057 247 1057 247 926 116 c 128,-1,18
 795 -15 795 -15 611 -15 c 0,19,20
 428 -15 428 -15 298 116 c 128,-1,21
 168 247 168 247 168 430 c 2,22,-1
 168 835 l 1,23,-1
 258 867 l 1,0,-1
EndSplineSet
EndChar

StartChar: uni0E08
Encoding: 3592 3592 221
Width: 1132
GlyphClass: 2
Flags: W
LayerCount: 2
Fore
SplineSet
521 553 m 1,0,-1
 553 643 l 1,1,-1
 878 643 l 1,2,-1
 878 763 l 2,3,4
 878 911 878 911 773.5 1015 c 128,-1,5
 669 1119 669 1119 521 1119 c 0,6,7
 374 1119 374 1119 271 1015 c 128,-1,8
 168 911 168 911 168 763 c 1,9,-1
 79 763 l 1,10,11
 79 884 79 884 138.5 987 c 128,-1,12
 198 1090 198 1090 299.5 1149.5 c 128,-1,13
 401 1209 401 1209 521 1209 c 0,14,15
 706 1209 706 1209 836.5 1078.5 c 128,-1,16
 967 948 967 948 967 763 c 2,17,-1
 967 0 l 1,18,-1
 878 0 l 1,19,-1
 878 553 l 1,20,-1
 521 553 l 1,0,-1
EndSplineSet
EndChar

StartChar: uni0E09
Encoding: 3593 3593 222
Width: 1132
GlyphClass: 2
Flags: W
LayerCount: 2
Fore
SplineSet
878 0 m 1,0,-1
 878 320 l 1,1,2
 800 178 800 178 689.5 84.5 c 128,-1,3
 579 -9 579 -9 466 -9 c 0,4,5
 145 -9 145 -9 141 436 c 1,6,-1
 141 530 l 1,7,-1
 34 530 l 1,8,-1
 62 620 l 1,9,-1
 231 620 l 1,10,-1
 231 436 l 2,11,12
 232 303 232 303 261.5 222.5 c 128,-1,13
 291 142 291 142 340 111.5 c 128,-1,14
 389 81 389 81 463 81 c 0,15,16
 556 81 556 81 654.5 158.5 c 128,-1,17
 753 236 753 236 815.5 347 c 128,-1,18
 878 458 878 458 878 555 c 2,19,-1
 878 763 l 2,20,21
 878 911 878 911 773.5 1015 c 128,-1,22
 669 1119 669 1119 521 1119 c 0,23,24
 374 1119 374 1119 271 1015 c 128,-1,25
 168 911 168 911 168 763 c 1,26,-1
 79 763 l 1,27,28
 79 884 79 884 138.5 987 c 128,-1,29
 198 1090 198 1090 299.5 1149.5 c 128,-1,30
 401 1209 401 1209 521 1209 c 0,31,32
 706 1209 706 1209 836.5 1078.5 c 128,-1,33
 967 948 967 948 967 763 c 2,34,-1
 967 0 l 1,35,-1
 878 0 l 1,0,-1
EndSplineSet
EndChar

StartChar: uni0E0A
Encoding: 3594 3594 223
Width: 1221
GlyphClass: 2
Flags: W
LayerCount: 2
Fore
SplineSet
168 430 m 2,0,-1
 168 761 l 1,1,-1
 448 761 l 2,2,3
 480 761 480 761 500.5 782.5 c 128,-1,4
 521 804 521 804 521 835 c 2,5,-1
 521 1104 l 1,6,-1
 361 1104 l 1,7,-1
 391 1194 l 1,8,-1
 611 1194 l 1,9,-1
 611 961 l 1,10,-1
 803 961 l 2,11,12
 882 961 882 961 924.5 1015.5 c 128,-1,13
 967 1070 967 1070 967 1155 c 2,14,-1
 967 1194 l 1,15,-1
 1057 1194 l 1,16,-1
 1057 1155 l 2,17,18
 1057 1081 1057 1081 1022.5 1017 c 128,-1,19
 988 953 988 953 929 914 c 1,20,21
 988 873 988 873 1022.5 809.5 c 128,-1,22
 1057 746 1057 746 1057 671 c 2,23,-1
 1057 430 l 2,24,25
 1057 247 1057 247 926 116 c 128,-1,26
 795 -15 795 -15 611 -15 c 0,27,28
 428 -15 428 -15 298 116 c 128,-1,29
 168 247 168 247 168 430 c 2,0,-1
803 871 m 2,30,-1
 611 871 l 1,31,-1
 611 835 l 2,32,33
 611 767 611 767 563 719 c 128,-1,34
 515 671 515 671 448 671 c 2,35,-1
 258 671 l 1,36,-1
 258 430 l 2,37,38
 258 282 258 282 361 178 c 128,-1,39
 464 74 464 74 611 74 c 0,40,41
 759 74 759 74 863 178 c 128,-1,42
 967 282 967 282 967 430 c 2,43,-1
 967 671 l 2,44,45
 967 757 967 757 924 814 c 128,-1,46
 881 871 881 871 803 871 c 2,30,-1
EndSplineSet
EndChar

StartChar: uni0E0B
Encoding: 3595 3595 224
Width: 1221
GlyphClass: 2
Flags: W
LayerCount: 2
Fore
SplineSet
611 961 m 1,0,-1
 803 961 l 2,1,2
 882 961 882 961 924.5 1015.5 c 128,-1,3
 967 1070 967 1070 967 1155 c 2,4,-1
 967 1194 l 1,5,-1
 1057 1194 l 1,6,-1
 1057 1155 l 2,7,8
 1057 1081 1057 1081 1022.5 1017 c 128,-1,9
 988 953 988 953 929 914 c 1,10,11
 988 873 988 873 1022.5 809.5 c 128,-1,12
 1057 746 1057 746 1057 671 c 2,13,-1
 1057 430 l 2,14,15
 1057 247 1057 247 926 116 c 128,-1,16
 795 -15 795 -15 611 -15 c 0,17,18
 428 -15 428 -15 298 116 c 128,-1,19
 168 247 168 247 168 430 c 2,20,-1
 168 761 l 1,21,-1
 448 761 l 2,22,23
 477 761 477 761 499 783 c 128,-1,24
 521 805 521 805 521 835 c 2,25,-1
 521 1053 l 1,26,-1
 385 889 l 1,27,28
 339 996 339 996 289 1053 c 0,29,30
 248 1102 248 1102 197 1130 c 1,31,-1
 239 1209 l 1,32,33
 334 1157 334 1157 406 1053 c 1,34,-1
 526 1194 l 1,35,-1
 611 1194 l 1,36,-1
 611 961 l 1,0,-1
258 671 m 1,37,-1
 258 430 l 2,38,39
 258 282 258 282 361 178 c 128,-1,40
 464 74 464 74 611 74 c 0,41,42
 759 74 759 74 863 178 c 128,-1,43
 967 282 967 282 967 430 c 2,44,-1
 967 671 l 2,45,46
 967 757 967 757 924 814 c 128,-1,47
 881 871 881 871 803 871 c 2,48,-1
 611 871 l 1,49,-1
 611 835 l 2,50,51
 611 767 611 767 563 719 c 128,-1,52
 515 671 515 671 448 671 c 2,53,-1
 258 671 l 1,37,-1
EndSplineSet
EndChar

StartChar: uni0E0C
Encoding: 3596 3596 225
Width: 1886
GlyphClass: 2
Flags: W
LayerCount: 2
Fore
SplineSet
376 90 m 1,0,-1
 346 0 l 1,1,-1
 168 0 l 1,2,-1
 168 553 l 2,3,4
 168 613 168 613 202 668 c 128,-1,5
 236 723 236 723 284 759 c 1,6,-1
 128 842 l 1,7,8
 147 922 147 922 185.5 986.5 c 128,-1,9
 224 1051 224 1051 269.5 1091.5 c 128,-1,10
 315 1132 315 1132 369.5 1159.5 c 128,-1,11
 424 1187 424 1187 473.5 1198 c 128,-1,12
 523 1209 523 1209 571 1209 c 0,13,14
 691 1209 691 1209 793 1149.5 c 128,-1,15
 895 1090 895 1090 954.5 987 c 128,-1,16
 1014 884 1014 884 1014 763 c 2,17,-1
 1014 553 l 2,18,19
 1014 449 1014 449 1070 336.5 c 128,-1,20
 1126 224 1126 224 1216.5 148 c 128,-1,21
 1307 72 1307 72 1397 72 c 0,22,23
 1511 72 1511 72 1571.5 152.5 c 128,-1,24
 1632 233 1632 233 1632 427 c 2,25,-1
 1632 1194 l 1,26,-1
 1721 1194 l 1,27,-1
 1721 427 l 2,28,29
 1721 -17 1721 -17 1397 -17 c 0,30,31
 1288 -17 1288 -17 1186.5 71.5 c 128,-1,32
 1085 160 1085 160 1014 295 c 1,33,-1
 1014 0 l 1,34,-1
 925 0 l 1,35,-1
 925 763 l 2,36,37
 925 844 925 844 895 912.5 c 128,-1,38
 865 981 865 981 815 1025.5 c 128,-1,39
 765 1070 765 1070 702 1094.5 c 128,-1,40
 639 1119 639 1119 571 1119 c 0,41,42
 454 1119 454 1119 355 1052.5 c 128,-1,43
 256 986 256 986 218 859 c 1,44,-1
 385 763 l 1,45,46
 319 732 319 732 288.5 685 c 128,-1,47
 258 638 258 638 258 553 c 2,48,-1
 258 90 l 1,49,-1
 376 90 l 1,0,-1
EndSplineSet
EndChar

StartChar: uni0E0D
Encoding: 3597 3597 226
Width: 1886
GlyphClass: 2
Flags: W
LayerCount: 2
Fore
SplineSet
376 90 m 1,0,-1
 346 0 l 1,1,-1
 168 0 l 1,2,-1
 168 553 l 2,3,4
 168 613 168 613 202 668 c 128,-1,5
 236 723 236 723 284 759 c 1,6,-1
 128 842 l 1,7,8
 147 922 147 922 185.5 986.5 c 128,-1,9
 224 1051 224 1051 269.5 1091.5 c 128,-1,10
 315 1132 315 1132 369.5 1159.5 c 128,-1,11
 424 1187 424 1187 473.5 1198 c 128,-1,12
 523 1209 523 1209 571 1209 c 0,13,14
 691 1209 691 1209 793 1149.5 c 128,-1,15
 895 1090 895 1090 954.5 987 c 128,-1,16
 1014 884 1014 884 1014 763 c 2,17,-1
 1014 430 l 2,18,19
 1014 282 1014 282 1106.5 178 c 128,-1,20
 1199 74 1199 74 1327 74 c 128,-1,21
 1455 74 1455 74 1546.5 178 c 128,-1,22
 1638 282 1638 282 1638 430 c 2,23,-1
 1638 1194 l 1,24,-1
 1721 1194 l 1,25,-1
 1721 101 l 2,26,27
 1721 -83 1721 -83 1608.5 -212.5 c 128,-1,28
 1496 -342 1496 -342 1327 -342 c 0,29,30
 1233 -342 1233 -342 1153 -299.5 c 128,-1,31
 1073 -257 1073 -257 1019 -181 c 1,32,-1
 1094 -137 l 1,33,34
 1188 -258 1188 -258 1327 -258 c 0,35,36
 1455 -258 1455 -258 1546.5 -154 c 128,-1,37
 1638 -50 1638 -50 1638 98 c 2,38,-1
 1638 145 l 1,39,40
 1584 70 1584 70 1503.5 27.5 c 128,-1,41
 1423 -15 1423 -15 1327 -15 c 0,42,43
 1217 -15 1217 -15 1124 45 c 128,-1,44
 1031 105 1031 105 978 206.5 c 128,-1,45
 925 308 925 308 925 427 c 2,46,-1
 925 763 l 2,47,48
 925 844 925 844 895 912.5 c 128,-1,49
 865 981 865 981 815 1025.5 c 128,-1,50
 765 1070 765 1070 702 1094.5 c 128,-1,51
 639 1119 639 1119 571 1119 c 0,52,53
 454 1119 454 1119 355 1052.5 c 128,-1,54
 256 986 256 986 218 859 c 1,55,-1
 385 763 l 1,56,57
 319 732 319 732 288.5 685 c 128,-1,58
 258 638 258 638 258 553 c 2,59,-1
 258 90 l 1,60,-1
 376 90 l 1,0,-1
EndSplineSet
Substitution2: "Single Substitution lookup 29 subtable" uni0E0D.descless
Substitution2: "'ccmp' Glyph Composition/Decomposition in Thai lookup 3 subtable" uni0E0D.descless
EndChar

StartChar: uni0E0E
Encoding: 3598 3598 227
Width: 1179
GlyphClass: 2
Flags: W
AnchorPoint: "Anchor-0" 1012 -444 basechar 0
LayerCount: 2
Fore
SplineSet
62 0 m 1,0,-1
 92 90 l 1,1,-1
 168 90 l 1,2,-1
 168 553 l 2,3,4
 168 613 168 613 202 668 c 128,-1,5
 236 723 236 723 284 759 c 1,6,-1
 128 842 l 1,7,8
 147 922 147 922 185.5 986.5 c 128,-1,9
 224 1051 224 1051 269.5 1091.5 c 128,-1,10
 315 1132 315 1132 369.5 1159.5 c 128,-1,11
 424 1187 424 1187 473.5 1198 c 128,-1,12
 523 1209 523 1209 571 1209 c 0,13,14
 691 1209 691 1209 793 1149.5 c 128,-1,15
 895 1090 895 1090 954.5 987 c 128,-1,16
 1014 884 1014 884 1014 763 c 2,17,-1
 1014 -421 l 1,18,-1
 884 -421 l 1,19,-1
 636 -258 l 1,20,-1
 406 -421 l 1,21,-1
 11 -421 l 1,22,-1
 43 -331 l 1,23,-1
 376 -331 l 1,24,-1
 628 -150 l 1,25,-1
 906 -331 l 1,26,-1
 925 -331 l 1,27,-1
 925 763 l 2,28,29
 925 844 925 844 895 912.5 c 128,-1,30
 865 981 865 981 815 1025.5 c 128,-1,31
 765 1070 765 1070 702 1094.5 c 128,-1,32
 639 1119 639 1119 571 1119 c 0,33,34
 454 1119 454 1119 355 1052.5 c 128,-1,35
 256 986 256 986 218 859 c 1,36,-1
 385 763 l 1,37,38
 319 732 319 732 288.5 685 c 128,-1,39
 258 638 258 638 258 553 c 2,40,-1
 258 0 l 1,41,-1
 62 0 l 1,0,-1
EndSplineSet
EndChar

StartChar: uni0E0F
Encoding: 3599 3599 228
Width: 1179
GlyphClass: 2
Flags: W
AnchorPoint: "Anchor-0" 1012 -444 basechar 0
LayerCount: 2
Fore
SplineSet
171 -331 m 1,0,-1
 340 -137 l 1,1,-1
 538 -316 l 1,2,-1
 724 -137 l 1,3,-1
 914 -331 l 1,4,-1
 925 -331 l 1,5,-1
 925 763 l 2,6,7
 925 844 925 844 895 912.5 c 128,-1,8
 865 981 865 981 815 1025.5 c 128,-1,9
 765 1070 765 1070 702 1094.5 c 128,-1,10
 639 1119 639 1119 571 1119 c 0,11,12
 454 1119 454 1119 355 1052.5 c 128,-1,13
 256 986 256 986 218 859 c 1,14,-1
 385 763 l 1,15,16
 319 732 319 732 288.5 685 c 128,-1,17
 258 638 258 638 258 553 c 2,18,-1
 258 0 l 1,19,-1
 62 0 l 1,20,-1
 92 90 l 1,21,-1
 168 90 l 1,22,-1
 168 553 l 2,23,24
 168 613 168 613 202 668 c 128,-1,25
 236 723 236 723 284 759 c 1,26,-1
 128 842 l 1,27,28
 147 922 147 922 185.5 986.5 c 128,-1,29
 224 1051 224 1051 269.5 1091.5 c 128,-1,30
 315 1132 315 1132 369.5 1159.5 c 128,-1,31
 424 1187 424 1187 473.5 1198 c 128,-1,32
 523 1209 523 1209 571 1209 c 0,33,34
 691 1209 691 1209 793 1149.5 c 128,-1,35
 895 1090 895 1090 954.5 987 c 128,-1,36
 1014 884 1014 884 1014 763 c 2,37,-1
 1014 -421 l 1,38,-1
 878 -421 l 1,39,-1
 724 -262 l 1,40,-1
 544 -436 l 1,41,-1
 352 -262 l 1,42,-1
 213 -421 l 1,43,-1
 11 -421 l 1,44,-1
 43 -331 l 1,45,-1
 171 -331 l 1,0,-1
EndSplineSet
EndChar

StartChar: uni0E10
Encoding: 3600 3600 229
Width: 1168
GlyphClass: 2
Flags: W
LayerCount: 2
Fore
SplineSet
914 -331 m 1,0,-1
 914 -158 l 1,1,-1
 844 -158 l 1,2,-1
 875 -69 l 1,3,-1
 1003 -69 l 1,4,-1
 1003 -421 l 1,5,-1
 867 -421 l 1,6,-1
 709 -262 l 1,7,-1
 530 -436 l 1,8,-1
 340 -262 l 1,9,-1
 199 -421 l 1,10,-1
 0 -421 l 1,11,-1
 30 -331 l 1,12,-1
 158 -331 l 1,13,-1
 329 -137 l 1,14,-1
 526 -316 l 1,15,-1
 709 -137 l 1,16,-1
 902 -331 l 1,17,-1
 914 -331 l 1,0,-1
914 643 m 1,18,-1
 914 763 l 2,19,20
 914 911 914 911 809.5 1015 c 128,-1,21
 705 1119 705 1119 557 1119 c 0,22,23
 410 1119 410 1119 306.5 1015 c 128,-1,24
 203 911 203 911 203 763 c 1,25,-1
 114 763 l 1,26,27
 114 884 114 884 173.5 987 c 128,-1,28
 233 1090 233 1090 335 1149.5 c 128,-1,29
 437 1209 437 1209 557 1209 c 0,30,31
 697 1209 697 1209 822 1121 c 1,32,-1
 933 1198 l 1,33,-1
 985 1121 l 1,34,-1
 889 1059 l 1,35,36
 1003 939 1003 939 1003 763 c 2,37,-1
 1003 0 l 1,38,-1
 914 0 l 1,39,-1
 914 553 l 1,40,-1
 557 553 l 1,41,-1
 589 643 l 1,42,-1
 914 643 l 1,18,-1
EndSplineSet
Substitution2: "Single Substitution lookup 29 subtable" uni0E10.descless
Substitution2: "'ccmp' Glyph Composition/Decomposition in Thai lookup 3 subtable" uni0E10.descless
EndChar

StartChar: uni0E11
Encoding: 3601 3601 230
Width: 1221
GlyphClass: 2
Flags: W
LayerCount: 2
Fore
SplineSet
168 0 m 1,0,-1
 168 555 l 1,1,-1
 383 842 l 1,2,-1
 383 1053 l 1,3,-1
 244 889 l 1,4,5
 204 982 204 982 167 1031 c 0,6,7
 119 1095 119 1095 56 1130 c 1,8,-1
 98 1209 l 1,9,10
 193 1157 193 1157 265 1053 c 1,11,-1
 385 1194 l 1,12,-1
 472 1194 l 1,13,-1
 472 947 l 1,14,15
 710 1209 710 1209 850 1209 c 0,16,17
 911 1209 911 1209 953 1187 c 128,-1,18
 995 1165 995 1165 1015 1127 c 128,-1,19
 1035 1089 1035 1089 1046 1038.5 c 128,-1,20
 1057 988 1057 988 1057 931 c 128,-1,21
 1057 874 1057 874 1057 813 c 0,22,23
 1057 772 1057 772 1057 752 c 2,24,-1
 1057 0 l 1,25,-1
 967 0 l 1,26,-1
 967 752 l 2,27,28
 967 779 967 779 968 829.5 c 128,-1,29
 969 880 969 880 969 906.5 c 128,-1,30
 969 933 969 933 967 972.5 c 128,-1,31
 965 1012 965 1012 957.5 1033.5 c 128,-1,32
 950 1055 950 1055 937 1077.5 c 128,-1,33
 924 1100 924 1100 902 1109.5 c 128,-1,34
 880 1119 880 1119 850 1119 c 0,35,36
 792 1119 792 1119 680.5 1022 c 128,-1,37
 569 925 569 925 456 790.5 c 128,-1,38
 343 656 343 656 258 526 c 1,39,-1
 258 0 l 1,40,-1
 168 0 l 1,0,-1
EndSplineSet
EndChar

StartChar: uni0E12
Encoding: 3602 3602 231
Width: 1946
GlyphClass: 2
Flags: W
LayerCount: 2
Fore
SplineSet
391 636 m 1,0,-1
 421 726 l 1,1,-1
 504 726 l 2,2,3
 597 726 597 726 665 672.5 c 128,-1,4
 733 619 733 619 765 538 c 128,-1,5
 797 457 797 457 797 361 c 0,6,7
 797 314 797 314 788.5 266.5 c 128,-1,8
 780 219 780 219 757 167 c 128,-1,9
 734 115 734 115 699.5 75.5 c 128,-1,10
 665 36 665 36 606.5 10.5 c 128,-1,11
 548 -15 548 -15 474 -15 c 0,12,13
 363 -15 363 -15 282 68 c 128,-1,14
 201 151 201 151 162.5 279.5 c 128,-1,15
 124 408 124 408 124 562 c 0,16,17
 124 751 124 751 199.5 929.5 c 128,-1,18
 275 1108 275 1108 412 1211 c 1,19,20
 536 1019 536 1019 636 1019 c 0,21,22
 725 1019 725 1019 853 1209 c 1,23,24
 955 1139 955 1139 1014.5 1036.5 c 128,-1,25
 1074 934 1074 934 1074 822 c 2,26,-1
 1074 555 l 2,27,28
 1074 452 1074 452 1130 339.5 c 128,-1,29
 1186 227 1186 227 1276.5 150.5 c 128,-1,30
 1367 74 1367 74 1457 74 c 0,31,32
 1511 74 1511 74 1552.5 92 c 128,-1,33
 1594 110 1594 110 1626 150 c 128,-1,34
 1658 190 1658 190 1675 260.5 c 128,-1,35
 1692 331 1692 331 1692 430 c 2,36,-1
 1692 1194 l 1,37,-1
 1782 1194 l 1,38,-1
 1782 430 l 2,39,40
 1782 198 1782 198 1696 91.5 c 128,-1,41
 1610 -15 1610 -15 1457 -15 c 0,42,43
 1347 -15 1347 -15 1246.5 73.5 c 128,-1,44
 1146 162 1146 162 1074 297 c 1,45,-1
 1074 0 l 1,46,-1
 985 0 l 1,47,-1
 985 822 l 2,48,49
 985 987 985 987 871 1083 c 1,50,51
 815 1011 815 1011 753 970 c 128,-1,52
 691 929 691 929 636 929 c 0,53,54
 515 929 515 929 396 1083 c 1,55,56
 308 998 308 998 260.5 858 c 128,-1,57
 213 718 213 718 213 562 c 0,58,59
 213 434 213 434 242 324.5 c 128,-1,60
 271 215 271 215 332 144.5 c 128,-1,61
 393 74 393 74 474 74 c 0,62,63
 527 74 527 74 569.5 93.5 c 128,-1,64
 612 113 612 113 637 143 c 128,-1,65
 662 173 662 173 678.5 213 c 128,-1,66
 695 253 695 253 701 289 c 128,-1,67
 707 325 707 325 707 361 c 0,68,69
 707 473 707 473 653 554.5 c 128,-1,70
 599 636 599 636 504 636 c 2,71,-1
 391 636 l 1,0,-1
EndSplineSet
EndChar

